<?xml version="1.0" encoding="utf-8"?>
<!-- Generator: Adobe Illustrator 27.0.0, SVG Export Plug-In . SVG Version: 6.00 Build 0)  -->
<svg version="1.1" id="Layer_1" xmlns="http://www.w3.org/2000/svg" xmlns:xlink="http://www.w3.org/1999/xlink" x="0px" y="0px"
	 viewBox="0 0 420.9 114.4" style="enable-background:new 0 0 420.9 114.4;" xml:space="preserve">
<style type="text/css">
	.st0{fill:#575756;}
	.st1{fill:#003763;}
	.st2{fill:#E4022D;}
</style>
<g>
	<g>
		<path class="st0" d="M180.6,56.6V44.3h4.7v12.3h6.6V44.3h4.7v12.3h11.8v4.3h-36.4v-4.3H180.6z M200.5,49.6v-19h-25.6v-4.4h30.5
			v23.4H200.5z"/>
		<path class="st0" d="M249.9,51.7v12.2H245v-8h-26.6v-4.2h6.3l0-4.6h-8.3v-4.3h36.4v4.3h-8.4v4.6H249.9z M244.4,32.3
			c0,1.2-0.3,2.4-0.8,3.5c-0.5,1.1-1.2,2.1-2.1,2.9c-0.9,0.8-1.9,1.4-3.1,1.9c-1.2,0.5-2.4,0.7-3.8,0.7c-1.3,0-2.6-0.2-3.8-0.7
			c-1.2-0.5-2.2-1.1-3.1-1.9c-0.9-0.9-1.6-1.8-2.1-2.9c-0.5-1.1-0.8-2.3-0.8-3.5c0-1.2,0.3-2.4,0.8-3.5c0.5-1.1,1.2-2.1,2.1-2.9
			c0.9-0.8,1.9-1.5,3.1-2c1.2-0.5,2.5-0.7,3.8-0.7c1.3,0,2.6,0.2,3.8,0.7c1.2,0.5,2.2,1.1,3.1,2c0.9,0.9,1.5,1.8,2.1,2.9
			C244.1,29.9,244.4,31.1,244.4,32.3z M229.3,51.7h10.7v-4.6h-10.6L229.3,51.7z M239.6,32.3c0-1.3-0.5-2.5-1.4-3.4
			c-1-0.9-2.1-1.4-3.5-1.4c-1.4,0-2.5,0.5-3.5,1.4c-1,0.9-1.5,2.1-1.5,3.4c0,1.3,0.5,2.5,1.5,3.4c1,0.9,2.1,1.4,3.5,1.4
			c1.4,0,2.5-0.5,3.5-1.4C239.1,34.8,239.6,33.7,239.6,32.3z"/>
		<path class="st0" d="M261.4,49.2h36.4v4.4H282v10.2h-4.9V53.6h-15.7V49.2z M269.1,29.9h20.8v-5h4.9v19h-30.5v-19h4.8V29.9z
			 M289.9,34.1h-20.8v5.5h20.8V34.1z"/>
	</g>
	<g>
		<path class="st0" d="M186,79.1v14.1h-2.3V81.9L180,93.2h-2.2l-3.7-11.3v11.3h-2.3V79.1h3.5l3.5,10.9l3.5-10.9H186z"/>
		<path class="st0" d="M191.4,80.2c0,0.4-0.1,0.7-0.4,1c-0.3,0.3-0.6,0.4-1,0.4c-0.4,0-0.7-0.1-1-0.4c-0.3-0.3-0.4-0.6-0.4-1
			c0-0.4,0.1-0.7,0.4-1c0.3-0.3,0.6-0.4,1-0.4c0.4,0,0.7,0.1,1,0.4C191.2,79.5,191.4,79.8,191.4,80.2z M188.8,93.2V83.1h2.3v10.1
			H188.8z"/>
		<path class="st0" d="M196.1,88.1v5.1h-2.3V83.1h2.2v1.4c0.3-0.5,0.7-0.9,1.2-1.1c0.5-0.3,1.1-0.4,1.7-0.4c1.2,0,2.2,0.4,2.9,1.2
			c0.7,0.8,1.1,1.9,1.1,3.3v5.9h-2.3v-5.3c0-1.1-0.2-1.9-0.5-2.4c-0.3-0.5-0.9-0.8-1.6-0.8c-0.4,0-0.7,0.1-1.1,0.4
			c-0.4,0.2-0.6,0.6-0.8,1C196.2,86.6,196.1,87.3,196.1,88.1z"/>
		<path class="st0" d="M208.1,80.2c0,0.4-0.1,0.7-0.4,1c-0.3,0.3-0.6,0.4-1,0.4c-0.4,0-0.7-0.1-1-0.4c-0.3-0.3-0.4-0.6-0.4-1
			c0-0.4,0.1-0.7,0.4-1c0.3-0.3,0.6-0.4,1-0.4c0.4,0,0.7,0.1,1,0.4C208,79.5,208.1,79.8,208.1,80.2z M205.5,93.2V83.1h2.3v10.1
			H205.5z"/>
		<path class="st0" d="M209.7,91.3l1.4-1.5c0.4,0.5,0.8,1,1.3,1.3c0.5,0.3,1,0.4,1.5,0.4c0.5,0,0.9-0.1,1.3-0.3
			c0.4-0.2,0.5-0.5,0.5-0.8c0-0.4-0.2-0.6-0.5-0.8c-0.3-0.2-0.7-0.4-1.2-0.6c-0.6-0.2-1.1-0.4-1.7-0.6c-0.8-0.3-1.4-0.6-1.7-1.1
			c-0.4-0.4-0.5-0.9-0.5-1.5c0-0.8,0.4-1.5,1.2-2.1c0.8-0.6,1.7-0.9,2.8-0.9c1.1,0,2,0.3,2.8,0.8c0.4,0.3,0.7,0.6,0.9,1l-1.4,1.4
			c-0.2-0.3-0.4-0.6-0.7-0.8c-0.4-0.4-1-0.6-1.7-0.6c-0.4,0-0.7,0.1-1,0.3c-0.3,0.2-0.4,0.4-0.4,0.7c0,0.3,0.2,0.5,0.5,0.7
			c0.3,0.2,0.8,0.4,1.4,0.6c0.2,0.1,0.5,0.1,0.8,0.2c1,0.3,1.7,0.7,2.2,1.3c0.5,0.5,0.8,1.1,0.8,1.8c0,0.8-0.4,1.6-1.2,2.2
			c-0.8,0.6-1.8,0.9-3.1,0.9c-1,0-2-0.2-2.8-0.7C210.6,92.4,210.1,91.9,209.7,91.3z"/>
		<path class="st0" d="M222.9,79.8v3.2h2.2v1.9h-2.2v5.1c0,0.5,0.1,0.8,0.4,1c0.2,0.2,0.6,0.3,1,0.3h0.8v1.8h-1.4
			c-1.1,0-1.9-0.2-2.4-0.7c-0.5-0.5-0.7-1.2-0.7-2.2v-5.4h-1.7v-1.9h1.7v-3.2H222.9z"/>
		<path class="st0" d="M227,93.2V83.1h2.2v1.5c0.3-0.5,0.7-0.9,1.2-1.2c0.6-0.3,1.3-0.5,2-0.5h0.2V85h-0.2c-1,0-1.7,0.3-2.3,0.9
			c-0.5,0.6-0.8,1.4-0.8,2.6v4.7H227z"/>
		<path class="st0" d="M237.5,92.8l-4-9.7h2.4l2.7,6.9l2.7-6.9h2.4l-5.6,14h-2.3L237.5,92.8z"/>
		<path class="st0" d="M254.9,93.4c-1.5,0-2.7-0.5-3.8-1.5c-1-1-1.6-2.3-1.6-3.8c0-1.5,0.5-2.7,1.6-3.8c1-1,2.3-1.5,3.8-1.5
			c1.5,0,2.8,0.5,3.8,1.5c1,1,1.6,2.3,1.6,3.8c0,1.5-0.5,2.7-1.6,3.8C257.6,92.9,256.4,93.4,254.9,93.4z M254.9,91.5
			c0.8,0,1.6-0.3,2.1-1c0.6-0.6,0.9-1.4,0.9-2.4c0-1-0.3-1.8-0.9-2.4c-0.6-0.7-1.3-1-2.1-1c-0.8,0-1.5,0.3-2.1,1
			c-0.6,0.7-0.9,1.5-0.9,2.4c0,1,0.3,1.8,0.9,2.4C253.3,91.2,254,91.5,254.9,91.5z"/>
		<path class="st0" d="M262.7,82c0-0.9,0.3-1.7,0.8-2.1c0.5-0.5,1.3-0.7,2.4-0.7h1.1v1.8h-0.7c-0.4,0-0.8,0.1-1,0.3
			c-0.2,0.2-0.4,0.5-0.4,1v0.8h2v1.9h-2v8.2h-2.3v-8.2h-1.7v-1.9h1.7V82z"/>
		<path class="st0" d="M284.2,93.2H275V79.1h9.2v2h-6.8v4.1h6.7V87h-6.7v4.2h6.9V93.2z"/>
		<path class="st0" d="M290.8,82.8c1.2,0,2.2,0.5,3.1,1.5v-5.2h2.3v14.1H294v-1.3c-0.8,1-1.9,1.5-3.2,1.5c-1.5,0-2.7-0.5-3.6-1.6
			c-0.9-1-1.4-2.3-1.4-3.7c0-1.4,0.5-2.7,1.4-3.7C288.1,83.3,289.3,82.8,290.8,82.8z M293.9,88.8c0-0.4,0-0.9,0-1.3
			c-0.1-0.8-0.4-1.4-0.8-1.9c-0.5-0.6-1.2-0.8-2-0.8c-0.9,0-1.6,0.3-2.1,1c-0.5,0.7-0.8,1.5-0.8,2.4c0,1,0.3,1.8,0.8,2.4
			c0.5,0.6,1.2,1,2.1,1c0.8,0,1.5-0.3,2-0.8C293.5,90.2,293.8,89.5,293.9,88.8z"/>
		<path class="st0" d="M305.5,88.1v-5.1h2.3v10.1h-2.2v-1.3c-0.3,0.5-0.7,0.9-1.1,1.1c-0.6,0.3-1.1,0.4-1.7,0.4
			c-1.2,0-2.1-0.4-2.9-1.2c-0.7-0.8-1.1-1.9-1.1-3.3v-5.9h2.3v5.3c0,1.1,0.2,1.9,0.5,2.4c0.4,0.5,0.9,0.8,1.6,0.8
			c0.4,0,0.7-0.1,1.1-0.4c0.4-0.2,0.6-0.6,0.8-1C305.4,89.6,305.5,89,305.5,88.1z"/>
		<path class="st0" d="M309.7,88.1c0-1.5,0.5-2.7,1.6-3.7c1.1-1,2.5-1.6,4.2-1.6c1.3,0,2.6,0.4,3.7,1.3l-0.7,1.8c-1-0.8-2-1.2-3-1.2
			c-1,0-1.9,0.3-2.5,1c-0.6,0.7-1,1.5-1,2.4s0.3,1.8,1,2.4c0.6,0.7,1.5,1,2.5,1c1,0,2-0.4,3-1.1l0.7,1.8c-1.1,0.8-2.4,1.2-3.7,1.2
			c-1.7,0-3.1-0.5-4.2-1.6C310.3,90.8,309.7,89.6,309.7,88.1z"/>
		<path class="st0" d="M325.7,86.7c0.8,0,1.6,0,2.4,0c0-0.7-0.3-1.2-0.8-1.5c-0.5-0.3-1.2-0.5-2.2-0.5H325c-0.9,0-1.9,0.2-2.9,0.6
			l-0.6-1.8c1.1-0.5,2.2-0.7,3.5-0.7h0c1.7,0,3,0.3,3.9,1c0.9,0.7,1.4,1.7,1.4,3.1v6.2h-2.2v-1.1c-0.4,0.4-1,0.8-1.6,1
			c-0.6,0.2-1.3,0.4-1.9,0.4c-1.2,0-2.2-0.3-2.9-1c-0.7-0.6-1.1-1.4-1.1-2.4c0-1,0.5-1.9,1.4-2.6C322.9,86.9,324.1,86.7,325.7,86.7z
			 M325.1,91.6c0.6,0,1.2-0.1,1.8-0.4c0.6-0.3,1-0.6,1.3-1v-1.7c-0.8,0-1.4,0-2,0c-1.2,0-2,0.1-2.4,0.4c-0.4,0.3-0.7,0.7-0.7,1.2
			c0,0.4,0.2,0.8,0.6,1.1C323.9,91.4,324.4,91.6,325.1,91.6z"/>
		<path class="st0" d="M336,79.8v3.2h2.2v1.9H336v5.1c0,0.5,0.1,0.8,0.4,1c0.2,0.2,0.6,0.3,1,0.3h0.8v1.8h-1.4
			c-1.1,0-1.9-0.2-2.4-0.7c-0.5-0.5-0.7-1.2-0.7-2.2v-5.4h-1.7v-1.9h1.7v-3.2H336z"/>
		<path class="st0" d="M342.7,80.2c0,0.4-0.1,0.7-0.4,1c-0.3,0.3-0.6,0.4-1,0.4c-0.4,0-0.8-0.1-1-0.4c-0.3-0.3-0.4-0.6-0.4-1
			c0-0.4,0.1-0.7,0.4-1c0.3-0.3,0.6-0.4,1-0.4c0.4,0,0.7,0.1,1,0.4C342.6,79.5,342.7,79.8,342.7,80.2z M340.1,93.2V83.1h2.3v10.1
			H340.1z"/>
		<path class="st0" d="M349.9,93.4c-1.5,0-2.7-0.5-3.8-1.5c-1-1-1.6-2.3-1.6-3.8c0-1.5,0.5-2.7,1.6-3.8c1-1,2.3-1.5,3.8-1.5
			c1.5,0,2.8,0.5,3.8,1.5c1,1,1.6,2.3,1.6,3.8c0,1.5-0.5,2.7-1.6,3.8C352.6,92.9,351.4,93.4,349.9,93.4z M349.9,91.5
			c0.8,0,1.5-0.3,2.1-1c0.6-0.6,0.9-1.4,0.9-2.4c0-1-0.3-1.8-0.9-2.4c-0.6-0.7-1.3-1-2.1-1c-0.8,0-1.5,0.3-2.1,1
			c-0.6,0.7-0.9,1.5-0.9,2.4c0,1,0.3,1.8,0.9,2.4C348.3,91.2,349,91.5,349.9,91.5z"/>
		<path class="st0" d="M359.5,88.1v5.1h-2.3V83.1h2.2v1.4c0.3-0.5,0.7-0.9,1.2-1.1c0.5-0.3,1.1-0.4,1.7-0.4c1.2,0,2.2,0.4,2.9,1.2
			c0.7,0.8,1.1,1.9,1.1,3.3v5.9h-2.3v-5.3c0-1.1-0.2-1.9-0.5-2.4c-0.3-0.5-0.9-0.8-1.6-0.8c-0.4,0-0.7,0.1-1.1,0.4
			c-0.4,0.2-0.6,0.6-0.8,1C359.6,86.6,359.5,87.3,359.5,88.1z"/>
	</g>
	<g>
		<g>
			<g>
				<g>
					<g>
						<g>
							<path class="st1" d="M120.7,55.1c-8.6-5.9-19.7-3.5-25.5,5.3c-4.8,7.4-12.1,8.3-15,8.3c-9.2,0-15.5-6.5-17.4-13.2h0
								c0-0.1,0-0.1,0-0.2c0-0.1,0-0.1-0.1-0.2C62,52.3,61.8,51,61.8,48c0-16.1,16.5-33.9,40.2-33.9c24.3,0,38.2,18.5,41.8,28.8
								c-0.1-0.2-0.1-0.4-0.2-0.5c-6.9-20.1-26-34.6-48.4-34.6C67,7.8,44.1,30.7,44.1,58.9c0,25.2,18.2,46.9,43.5,46.9
								c20.1,0,33.7-11.3,39.9-26.9C130.9,70.4,128.4,60.4,120.7,55.1z"/>
						</g>
						<g>
							<path class="st2" d="M144.1,43.9c-3-10-17-29.8-42.1-29.8C78.3,14.1,61.8,32,61.8,48c0,3,0.2,4.3,0.9,7.1
								c-0.3-1.2-0.5-2.4-0.5-3.6c0-16.7,16.7-28.3,33.9-28.3c23.3,0,42.2,18.9,42.2,42.2c0,18.3-10.5,34.1-25.8,41.7l0,0
								c19.7-7.1,33.7-26,33.7-48.1C146.4,53.7,145.7,49.1,144.1,43.9z"/>
						</g>
					</g>
				</g>
			</g>
		</g>
	</g>
</g>
</svg>
