<?xml version="1.0" encoding="utf-8"?>
<!-- Generator: Adobe Illustrator 27.0.0, SVG Export Plug-In . SVG Version: 6.00 Build 0)  -->
<svg version="1.1" id="Layer_1" xmlns="http://www.w3.org/2000/svg" xmlns:xlink="http://www.w3.org/1999/xlink" x="0px" y="0px"
	 viewBox="0 0 420.9 114.4" style="enable-background:new 0 0 420.9 114.4;" xml:space="preserve">
<style type="text/css">
	.st0{fill:#14AAD3;}
	.st1{fill:#F3A300;}
	.st2{fill:#FEC80E;}
	.st3{fill:#A3C417;}
	.st4{fill:#615A59;}
	.st5{fill:#7A7574;}
	.st6{fill:#C1966B;}
	.st7{opacity:0.38;fill:#010203;}
	.st8{fill:#010203;}
	.st9{fill:#EE725C;}
	.st10{fill:#FFFFFF;}
	.st11{fill:#2A4A85;}
	.st12{fill:#2AA2DC;}
	.st13{fill:#333333;}
	.st14{fill:none;stroke:#FFFFFF;stroke-width:3;}
	.st15{fill:#71A52E;}
</style>
<g>
	<path class="st0" d="M40.2,66.8c0,0.1,0,0.2,0,0.3c-0.3,9.3,9.5,16.9,20.8,17C72.3,84.4,83,77,83.9,67.8c0-0.1,0-0.2,0-0.3
		c0.2-3.3,3.2-6,7.3-5.9c4.1,0.1,6.7,2.8,6.6,6.1h0c0,0,0,0,0,0v0c0,0,0,0,0,0c-0.9,13.1-12.2,24.1-27,27.5c-4.9,1-12.4,2.2-21-0.3
		C35.4,91,25.5,79.8,26.3,66.6v0c0,0,0,0,0,0c0,0,0,0,0,0l0,0c0.2-3.3,3.2-5.9,7.3-5.9C37.7,60.7,40.4,63.5,40.2,66.8"/>
	<path class="st1" d="M42.4,45.8c-0.8,4.7-5.2,7.8-9.9,7c-4.7-0.8-7.8-5.2-7-9.9c0.8-4.7,5.2-7.8,9.9-7C40,36.7,43.1,41.1,42.4,45.8
		"/>
	<path class="st2" d="M74.3,25.6c-0.5,3.2-3.6,5.4-6.8,4.9c-3.2-0.5-5.4-3.6-4.9-6.8c0.5-3.2,3.6-5.4,6.8-4.9
		C72.7,19.3,74.9,22.3,74.3,25.6"/>
	<path class="st3" d="M64.9,37.9L84.2,26c0,0,10.3-6.4,4.7,4.2c-3.6,6.5-13.4,15.3-12.5,17.7c0.9,2.5,7.9,17.2,4.8,16.5
		c-3-0.7-12.8-7.4-12.8-7.4s-3.8-4.1-3.8,0c0,4.1-1.3,10.8-2.8,11.1c-1.4,0.3-6.4-5.9-9.3-24.8c-2.9-18.9-0.4-28.1,3.5-21
		C60.1,29.3,64.9,37.9,64.9,37.9"/>
	<path class="st4" d="M113.2,34.5c-0.5,0-0.9-0.2-1.2-0.6c-0.3-0.4-0.4-0.8-0.4-1.3c0-0.5,0.1-1,0.4-1.3c0.3-0.4,0.7-0.6,1.2-0.6
		h5.9V29c0-0.7,0.2-1.1,0.7-1.4c0.5-0.3,1-0.5,1.6-0.5c0.6,0,1.1,0.2,1.6,0.5c0.5,0.3,0.7,0.8,0.7,1.4v1.7h5.5
		c0.5,0,0.9,0.2,1.2,0.6c0.3,0.4,0.4,0.8,0.4,1.3c0,0.5-0.1,1-0.4,1.3c-0.3,0.4-0.7,0.6-1.2,0.6H113.2z M121.3,36
		c2.4,0,4.3,0.5,5.7,1.6c1.4,1.1,2.1,2.5,2.1,4.4c0,1.8-0.7,3.3-2.1,4.4c-1.4,1.1-3.3,1.6-5.7,1.6c-2.4,0-4.3-0.5-5.7-1.6
		c-1.4-1.1-2.1-2.5-2.1-4.4c0-1.8,0.7-3.3,2.1-4.4C117,36.6,118.9,36,121.3,36 M119.4,59.5c-1.1,0-1.9-0.2-2.3-0.6
		c-0.4-0.4-0.7-1.2-0.7-2.3v-5.3c0-0.7,0.2-1.1,0.7-1.4c0.5-0.3,1-0.5,1.6-0.5c0.6,0,1.1,0.2,1.6,0.5c0.5,0.3,0.7,0.8,0.7,1.4v3.6
		c0,0.5,0.3,0.8,0.8,0.8h14.6c0.5,0,0.9,0.2,1.2,0.6c0.3,0.4,0.4,0.8,0.4,1.4c0,0.5-0.1,1-0.4,1.3c-0.3,0.4-0.7,0.6-1.2,0.6H119.4z
		 M121.3,44.5c1.3,0,2.2-0.2,2.8-0.7c0.6-0.5,0.9-1.1,0.9-1.8c0-0.7-0.3-1.3-0.9-1.8c-0.6-0.5-1.5-0.7-2.8-0.7
		c-1.3,0-2.2,0.2-2.8,0.7c-0.6,0.5-0.9,1.1-0.9,1.8c0,0.7,0.3,1.3,0.9,1.8C119.1,44.3,120,44.5,121.3,44.5 M137.2,36.4h3.3
		c0.5,0,0.9,0.2,1.2,0.6c0.3,0.4,0.4,0.8,0.4,1.4c0,0.5-0.1,1-0.4,1.4c-0.3,0.4-0.7,0.6-1.2,0.6h-3.3v9.4c0,0.7-0.2,1.1-0.7,1.4
		c-0.5,0.3-1,0.5-1.5,0.5c-0.6,0-1.1-0.2-1.6-0.5c-0.5-0.3-0.7-0.8-0.7-1.4V29.1c0-0.7,0.2-1.1,0.7-1.4c0.5-0.3,1-0.5,1.6-0.5
		c0.6,0,1.1,0.2,1.5,0.5c0.5,0.3,0.7,0.8,0.7,1.4V36.4z"/>
	<path class="st4" d="M156.3,50.5v-6.7h-11.1c-0.5,0-0.9-0.2-1.2-0.6c-0.3-0.4-0.4-0.8-0.4-1.3c0-0.5,0.1-1,0.4-1.3
		c0.3-0.4,0.7-0.6,1.2-0.6h26.5c0.5,0,0.9,0.2,1.2,0.6c0.3,0.4,0.4,0.8,0.4,1.3c0,0.5-0.1,0.9-0.4,1.3c-0.3,0.4-0.7,0.6-1.2,0.6
		h-11.1v6.7H156.3z M148.7,52.2c-0.5,0-0.9-0.2-1.2-0.6c-0.3-0.4-0.4-0.8-0.4-1.3c0-0.5,0.1-0.9,0.4-1.3c0.3-0.4,0.7-0.6,1.2-0.6h18
		c1.1,0,1.9,0.2,2.3,0.6c0.4,0.4,0.7,1.2,0.7,2.3v7c0,0.7-0.2,1.1-0.7,1.4c-0.5,0.3-1,0.5-1.6,0.5c-0.6,0-1.1-0.2-1.6-0.5
		c-0.5-0.3-0.7-0.8-0.7-1.4V53c0-0.5-0.3-0.8-0.8-0.8H148.7z M148.8,32.4c-0.5,0-0.9-0.2-1.2-0.6c-0.3-0.4-0.4-0.8-0.4-1.4
		c0-0.5,0.1-1,0.4-1.4c0.3-0.4,0.7-0.6,1.2-0.6h17.5c1.1,0,1.9,0.2,2.3,0.6c0.4,0.4,0.6,1.2,0.6,2.3v2.4c0,0.8,0,1.6-0.1,2.4
		c-0.1,0.8-0.2,1.6-0.4,2.4c-0.1,0.8-0.3,1.5-0.5,2.1c-0.2,0.6-0.4,1.2-0.5,1.6l-4-0.8c0.7-2.5,1-5,1-7.4v-0.9
		c0-0.5-0.3-0.8-0.8-0.8H148.8z"/>
	<path class="st4" d="M189.5,51.3V42c0-0.6,0.2-1.1,0.7-1.4c0.4-0.3,0.9-0.4,1.5-0.4c0.5,0,1,0.1,1.5,0.4c0.4,0.3,0.7,0.7,0.7,1.4
		v9.2h10c0.5,0,0.9,0.2,1.2,0.6c0.3,0.4,0.4,0.8,0.4,1.3c0,0.5-0.1,1-0.4,1.3c-0.3,0.4-0.7,0.6-1.2,0.6h-26.5
		c-0.5,0-0.9-0.2-1.2-0.6c-0.3-0.4-0.4-0.8-0.4-1.3c0-0.5,0.1-0.9,0.4-1.3c0.3-0.4,0.7-0.6,1.2-0.6h4.8V42c0-0.6,0.2-1.1,0.7-1.4
		c0.4-0.3,0.9-0.4,1.5-0.4c0.5,0,1,0.1,1.5,0.4c0.4,0.3,0.7,0.7,0.7,1.4v9.2H189.5z M180.6,33.3c-0.5,0-0.9-0.2-1.2-0.6
		c-0.3-0.4-0.4-0.8-0.4-1.4c0-0.5,0.1-1,0.4-1.4c0.3-0.4,0.7-0.6,1.2-0.6h18.3c1.1,0,1.9,0.2,2.3,0.6c0.4,0.4,0.6,1.2,0.6,2.3v3.2
		c0,2.2-0.1,4.1-0.2,5.7c-0.2,1.7-0.4,3.2-0.7,4.7c-0.1,0.6-0.5,1.1-1,1.3c-0.5,0.2-1.1,0.3-1.7,0.2c-0.5-0.1-1-0.4-1.3-0.7
		c-0.3-0.3-0.4-0.8-0.3-1.5c0.3-1.5,0.5-3,0.7-4.6c0.1-1.6,0.2-3.3,0.2-5.2v-1.3c0-0.5-0.3-0.8-0.8-0.8H180.6z"/>
	<path class="st4" d="M235.7,42.3c0.5,0,0.9,0.2,1.2,0.5c0.2,0.4,0.4,0.8,0.4,1.3c0,0.5-0.1,0.9-0.4,1.3c-0.2,0.4-0.6,0.5-1.2,0.5
		H229v4.8h-4.3V46h-4.5v4.8h-4.3V46h-6.8c-0.5,0-0.9-0.2-1.2-0.5c-0.2-0.4-0.4-0.8-0.4-1.3c0-0.5,0.1-1,0.4-1.3
		c0.2-0.4,0.6-0.5,1.2-0.5H235.7z M229,53.7c0-0.5-0.3-0.8-0.8-0.8h-15.7c-0.5,0-0.9-0.2-1.2-0.5c-0.2-0.4-0.4-0.8-0.4-1.3
		c0-0.5,0.1-0.9,0.4-1.3c0.2-0.4,0.6-0.5,1.2-0.5h18c1.1,0,1.9,0.2,2.3,0.6c0.4,0.4,0.7,1.2,0.7,2.3v6.3c0,0.7-0.2,1.1-0.7,1.4
		c-0.5,0.3-1,0.5-1.6,0.5c-0.6,0-1.1-0.2-1.6-0.5c-0.5-0.3-0.7-0.8-0.7-1.4V53.7z M211.4,34.2c0-1.1,0.3-2,0.8-2.8
		c0.5-0.8,1.2-1.5,2.2-2c0.9-0.5,2.1-0.9,3.5-1.2c1.4-0.2,2.9-0.4,4.6-0.4c1.7,0,3.2,0.1,4.6,0.4c1.4,0.2,2.5,0.6,3.5,1.2
		c0.9,0.5,1.7,1.2,2.2,2c0.5,0.8,0.8,1.7,0.8,2.8c0,1.1-0.3,2-0.8,2.8c-0.5,0.8-1.2,1.4-2.2,2c-0.9,0.5-2.1,0.9-3.5,1.2
		c-1.4,0.2-2.9,0.4-4.6,0.4c-1.7,0-3.2-0.1-4.6-0.4c-1.4-0.2-2.5-0.6-3.5-1.2c-0.9-0.5-1.7-1.2-2.2-2
		C211.7,36.2,211.4,35.3,211.4,34.2 M229,34.2c0-0.8-0.5-1.5-1.5-2c-1-0.5-2.7-0.7-5-0.7c-2.3,0-4,0.2-5,0.7c-1,0.5-1.5,1.1-1.5,2
		c0,0.8,0.5,1.5,1.5,2c1,0.5,2.7,0.7,5,0.7c2.3,0,4-0.2,5-0.7C228.5,35.7,229,35,229,34.2"/>
	<path class="st4" d="M258.4,49.4c-1.1,0.1-2.4,0.2-3.7,0.2c-1.4,0.1-2.8,0.1-4.3,0.2c-1.5,0.1-3,0.1-4.6,0.1c-1.6,0-3.2,0-4.8,0
		c-0.5,0-0.9-0.2-1.2-0.5c-0.2-0.4-0.4-0.8-0.4-1.2c0-0.5,0.1-0.9,0.4-1.2c0.2-0.4,0.6-0.5,1.2-0.5h3.3c1.1,0,2.2,0,3.4,0v-4h4.4
		v3.9c1,0,2-0.1,3.1-0.2c1-0.1,2-0.1,3-0.2c0.5,0,0.9,0.1,1.2,0.4c0.3,0.3,0.4,0.7,0.5,1.2c0,0.5,0,0.9-0.2,1.3
		C259.3,49.1,258.9,49.3,258.4,49.4 M241.8,33.4c-0.5,0-0.9-0.2-1.1-0.5c-0.2-0.4-0.4-0.8-0.4-1.2c0-0.5,0.1-0.9,0.4-1.3
		c0.2-0.3,0.6-0.5,1.1-0.5h5.8v-1.4c0-0.6,0.2-1.1,0.7-1.4c0.4-0.3,1-0.5,1.6-0.5c0.6,0,1.1,0.2,1.6,0.5c0.5,0.3,0.7,0.8,0.7,1.4
		v1.4h5.5c0.5,0,0.9,0.2,1.1,0.5c0.2,0.4,0.3,0.8,0.3,1.3c0,0.5-0.1,0.9-0.3,1.2c-0.2,0.3-0.6,0.5-1.1,0.5H241.8z M249.8,34.6
		c2.4,0,4.2,0.4,5.6,1.2c1.3,0.8,2,2,2,3.5c0,1.5-0.7,2.7-2,3.5c-1.3,0.8-3.2,1.2-5.6,1.2c-2.4,0-4.2-0.4-5.6-1.2
		c-1.3-0.8-2-2-2-3.5c0-1.5,0.7-2.7,2-3.5C245.6,35,247.5,34.6,249.8,34.6 M247,59.6c-1.1,0-1.9-0.2-2.3-0.6
		c-0.4-0.4-0.7-1.2-0.7-2.3V53c0-0.7,0.2-1.1,0.7-1.4c0.5-0.3,1-0.5,1.5-0.5c0.6,0,1.1,0.2,1.5,0.5c0.5,0.3,0.7,0.8,0.7,1.4v2.2
		c0,0.5,0.3,0.8,0.8,0.8h15.6c0.5,0,0.9,0.2,1.1,0.5c0.2,0.4,0.4,0.8,0.4,1.3c0,0.5-0.1,0.9-0.4,1.2c-0.2,0.4-0.6,0.5-1.1,0.5H247z
		 M249.8,40.9c2.4,0,3.5-0.5,3.5-1.5c0-1-1.2-1.5-3.5-1.5c-2.4,0-3.5,0.5-3.5,1.5C246.3,40.4,247.5,40.9,249.8,40.9 M265.5,37.4h2.8
		c0.6,0,1,0.2,1.2,0.6c0.3,0.4,0.4,0.8,0.4,1.4c0,0.5-0.1,1-0.4,1.4c-0.3,0.4-0.7,0.6-1.2,0.6h-2.8v9c0,0.6-0.2,1.1-0.7,1.4
		c-0.4,0.3-1,0.5-1.5,0.5c-0.6,0-1.1-0.1-1.5-0.5c-0.4-0.3-0.7-0.8-0.7-1.4V29.1c0-0.6,0.2-1.1,0.7-1.4c0.4-0.3,1-0.5,1.5-0.5
		c0.6,0,1.1,0.2,1.5,0.5c0.4,0.3,0.7,0.8,0.7,1.4V37.4z"/>
	<path class="st4" d="M274.5,32.8c-0.5,0-0.9-0.2-1.2-0.6c-0.3-0.4-0.4-0.8-0.4-1.3c0-0.5,0.1-1,0.4-1.4c0.3-0.4,0.7-0.6,1.2-0.6
		h10.1c1.1,0,1.9,0.2,2.3,0.6c0.4,0.4,0.6,1.2,0.6,2.3v2.7c0,1.3-0.1,2.4-0.4,3.3c-0.3,0.9-0.9,1.7-1.7,2.5
		c-0.9,0.8-2.1,1.6-3.7,2.5c-1.6,0.9-3.7,1.9-6.3,3.2c-0.6,0.3-1.1,0.3-1.6,0c-0.5-0.3-0.8-0.6-1.1-1.1c-0.1-0.2-0.2-0.4-0.2-0.7
		c0-0.3,0-0.5,0-0.8c0-0.2,0.1-0.5,0.3-0.7c0.2-0.2,0.4-0.4,0.7-0.5c2.3-1.1,4.2-2,5.4-2.6c1.3-0.7,2.2-1.3,2.8-1.8
		c0.6-0.5,1-1,1.1-1.5c0.1-0.5,0.2-1.1,0.2-1.9v-0.8c0-0.5-0.3-0.8-0.8-0.8H274.5z M277.5,53.6c0-2.3,0.9-4,2.8-5.1
		c1.9-1.1,4.5-1.7,7.8-1.7c3.3,0,5.9,0.6,7.8,1.7c1.9,1.1,2.8,2.8,2.8,5.1c0,2.3-0.9,4-2.8,5.1c-1.9,1.1-4.5,1.7-7.8,1.7
		c-3.3,0-5.9-0.6-7.8-1.7C278.4,57.6,277.5,55.9,277.5,53.6 M294.2,53.6c0-1-0.5-1.7-1.4-2.3c-0.9-0.6-2.5-0.9-4.7-0.9
		c-2.2,0-3.8,0.3-4.7,0.9c-0.9,0.6-1.4,1.4-1.4,2.3c0,1,0.5,1.7,1.4,2.3c0.9,0.6,2.5,0.9,4.7,0.9c2.2,0,3.8-0.3,4.7-0.9
		C293.7,55.3,294.2,54.5,294.2,53.6 M298.6,44.7c0,0.7-0.2,1.1-0.7,1.4c-0.5,0.3-1,0.5-1.5,0.5c-0.6,0-1.1-0.2-1.5-0.5
		c-0.5-0.3-0.7-0.8-0.7-1.4v-2.4h-3.9c-0.5,0-0.9-0.2-1.2-0.6c-0.2-0.4-0.4-0.8-0.4-1.4c0-0.5,0.1-1,0.4-1.3
		c0.2-0.4,0.6-0.6,1.2-0.6h3.9v-2.8h-3.6c-0.5,0-0.9-0.2-1.2-0.6c-0.2-0.4-0.4-0.8-0.4-1.4c0-0.5,0.1-1,0.4-1.3
		c0.2-0.4,0.6-0.6,1.2-0.6h3.6v-2.8c0-0.7,0.2-1.1,0.7-1.4c0.5-0.3,1-0.5,1.5-0.5c0.6,0,1.1,0.2,1.5,0.5c0.5,0.3,0.7,0.8,0.7,1.4
		V44.7z"/>
	<path class="st4" d="M305,55c-0.5,0-0.9-0.2-1.2-0.6c-0.3-0.4-0.4-0.8-0.4-1.3c0-0.5,0.1-1,0.4-1.3c0.3-0.4,0.7-0.6,1.2-0.6h11
		v-7.7h4.5v7.7h11c0.5,0,0.9,0.2,1.2,0.6c0.3,0.4,0.4,0.8,0.4,1.3c0,0.5-0.1,1-0.4,1.3c-0.3,0.4-0.7,0.6-1.2,0.6H305z M310.2,45.6
		c-1.1,0-1.9-0.2-2.3-0.6c-0.4-0.4-0.6-1.2-0.6-2.3V30.6c0-0.6,0.2-1.1,0.7-1.4c0.5-0.3,1-0.5,1.5-0.5c0.6,0,1.1,0.2,1.5,0.5
		c0.5,0.3,0.7,0.8,0.7,1.4V34h13.1v-3.4c0-0.6,0.2-1.1,0.7-1.4c0.5-0.3,1-0.5,1.5-0.5c0.6,0,1.1,0.2,1.5,0.5
		c0.5,0.3,0.7,0.8,0.7,1.4v12.1c0,1.1-0.2,1.9-0.7,2.3c-0.4,0.4-1.2,0.6-2.3,0.6H310.2z M324,41.9c0.5,0,0.8-0.3,0.8-0.8v-3.3h-13.1
		v3.3c0,0.5,0.3,0.8,0.8,0.8H324z"/>
	<path class="st4" d="M352.4,46.1v5.2h11c0.5,0,0.9,0.2,1.2,0.6c0.3,0.4,0.4,0.8,0.4,1.3c0,0.5-0.1,1-0.4,1.3
		c-0.3,0.4-0.7,0.6-1.2,0.6h-26.5c-0.5,0-0.9-0.2-1.2-0.6c-0.3-0.4-0.4-0.8-0.4-1.3c0-0.5,0.1-1,0.4-1.3c0.3-0.4,0.7-0.6,1.2-0.6h11
		v-5.2H352.4z M339.3,34.4c-0.5,0-0.9-0.2-1.2-0.6c-0.3-0.4-0.4-0.8-0.4-1.3c0-0.5,0.1-1,0.4-1.3c0.3-0.4,0.7-0.6,1.2-0.6h8.6v-2
		c0-0.7,0.2-1.1,0.7-1.5c0.5-0.3,1-0.5,1.6-0.5c0.6,0,1.1,0.2,1.6,0.5c0.5,0.3,0.7,0.8,0.7,1.5v2h8.6c0.5,0,0.9,0.2,1.2,0.6
		c0.3,0.4,0.4,0.8,0.4,1.3c0,0.5-0.1,1-0.4,1.3c-0.3,0.4-0.7,0.6-1.2,0.6H339.3z M340.3,42.1c0-2,0.9-3.5,2.6-4.5
		c1.8-1,4.2-1.5,7.2-1.5c1.5,0,2.9,0.1,4.1,0.4c1.2,0.3,2.2,0.6,3.1,1.1c0.9,0.5,1.5,1.1,2,1.9c0.5,0.8,0.7,1.6,0.7,2.6
		c0,1-0.2,1.9-0.7,2.7c-0.5,0.8-1.1,1.4-2,1.9c-0.9,0.5-1.9,0.9-3.1,1.1c-1.2,0.3-2.6,0.4-4.1,0.4c-3.1,0-5.5-0.5-7.2-1.5
		C341.2,45.7,340.3,44.1,340.3,42.1 M355.7,42.1c0-0.8-0.4-1.4-1.2-1.9c-0.8-0.5-2.3-0.7-4.3-0.7c-2,0-3.5,0.2-4.3,0.7
		c-0.8,0.5-1.2,1.1-1.2,1.9c0,0.8,0.4,1.4,1.2,1.9c0.8,0.5,2.3,0.7,4.3,0.7c2,0,3.5-0.2,4.3-0.7C355.3,43.6,355.7,42.9,355.7,42.1"
		/>
	<path class="st4" d="M369.2,45.3c-0.5,0-0.9-0.2-1.2-0.5c-0.2-0.4-0.4-0.8-0.4-1.3c0-0.5,0.1-1,0.4-1.3c0.2-0.4,0.6-0.5,1.2-0.5
		c2.8,0,5.8,0,8.9-0.1c3.1-0.1,6.2-0.3,9.1-0.7c0.5-0.1,0.9,0.1,1.2,0.4c0.3,0.3,0.4,0.7,0.5,1.3c0,0.5,0,0.9-0.2,1.3
		c-0.2,0.4-0.6,0.6-1.1,0.7c-1,0.1-2.2,0.3-3.4,0.4c-1.2,0.1-2.6,0.2-3.9,0.3v3.4c0,0.6-0.2,1-0.7,1.3c-0.4,0.3-1,0.4-1.6,0.4
		c-0.6,0-1.1-0.1-1.6-0.4c-0.4-0.3-0.6-0.7-0.6-1.3v-3.2c-1.1,0.1-2.2,0.1-3.3,0.1H369.2z M378.3,39.9c-2.9,0-5-0.6-6.4-1.6
		c-1.4-1.1-2.1-2.6-2.1-4.4c0-1.9,0.7-3.3,2.1-4.4c1.4-1.1,3.6-1.7,6.4-1.7c2.9,0,5,0.6,6.4,1.7c1.4,1.1,2.1,2.6,2.1,4.4
		c0,1.8-0.7,3.3-2.1,4.4C383.3,39.3,381.2,39.9,378.3,39.9 M394,55.8c0.5,0,0.9,0.2,1.2,0.6c0.3,0.4,0.4,0.8,0.4,1.3
		c0,0.5-0.1,1-0.4,1.3c-0.3,0.4-0.7,0.6-1.2,0.6h-18.4c-1.1,0-1.9-0.2-2.3-0.6c-0.4-0.4-0.6-1.2-0.6-2.3v-4.1c0-0.7,0.2-1.1,0.7-1.4
		c0.5-0.3,1-0.5,1.6-0.5c0.6,0,1.1,0.2,1.6,0.5c0.5,0.3,0.7,0.8,0.7,1.4V55c0,0.5,0.3,0.8,0.8,0.8H394z M378.3,36.4
		c1.5,0,2.6-0.2,3.3-0.7c0.7-0.5,1.1-1.1,1.1-1.9c0-0.8-0.4-1.4-1.1-1.9c-0.7-0.5-1.8-0.7-3.3-0.7c-1.5,0-2.6,0.2-3.3,0.7
		c-0.7,0.5-1,1.1-1,1.9c0,0.8,0.3,1.4,1,1.9C375.7,36.1,376.8,36.4,378.3,36.4 M390.3,49.6h-4.7c-0.5,0-0.9-0.2-1.1-0.5
		c-0.2-0.4-0.4-0.8-0.4-1.3s0.1-0.9,0.4-1.3c0.2-0.3,0.6-0.5,1.1-0.5h4.7V29.1c0-0.7,0.2-1.1,0.7-1.4c0.5-0.3,1-0.5,1.6-0.5
		c0.6,0,1.1,0.2,1.5,0.5c0.5,0.3,0.7,0.8,0.7,1.4v21.2c0,0.7-0.2,1.1-0.7,1.4c-0.5,0.3-1,0.5-1.5,0.5c-0.6,0-1.1-0.1-1.6-0.5
		c-0.5-0.3-0.7-0.8-0.7-1.4V49.6z"/>
	<path class="st5" d="M128.4,78.2c-0.4,0.4-1,0.7-1.8,0.7c-0.8,0-1.4-0.3-1.8-0.7c-0.6-0.6-0.7-1.4-0.7-2.4c0-1,0.1-1.8,0.7-2.4
		c0.4-0.4,1-0.7,1.8-0.7c0.8,0,1.4,0.3,1.8,0.7c0.6,0.6,0.7,1.4,0.7,2.4C129.1,76.8,129,77.6,128.4,78.2 M127.4,74.1
		c-0.2-0.2-0.5-0.4-0.9-0.4c-0.4,0-0.7,0.1-0.9,0.4c-0.4,0.4-0.4,1-0.4,1.7c0,0.7,0,1.3,0.4,1.7c0.2,0.2,0.5,0.4,0.9,0.4
		c0.4,0,0.7-0.1,0.9-0.4c0.4-0.4,0.4-1,0.4-1.7C127.9,75.1,127.8,74.4,127.4,74.1"/>
	<path class="st5" d="M134.2,74.1c-0.3-0.3-0.5-0.4-0.9-0.4c-0.7,0-1.2,0.5-1.2,1.4v3.7h-1.2v-6.2h1.2v0.7c0.3-0.4,0.9-0.7,1.6-0.7
		c0.6,0,1,0.2,1.5,0.6L134.2,74.1z"/>
	<path class="st5" d="M136.6,76.1c0,1.1,0.6,1.7,1.6,1.7c0.7,0,1.1-0.2,1.5-0.6l0.8,0.7c-0.6,0.6-1.2,1-2.3,1
		c-1.5,0-2.8-0.8-2.8-3.2c0-2,1-3.1,2.6-3.1c1.7,0,2.6,1.2,2.6,3v0.5H136.6z M139.2,74.4c-0.2-0.5-0.6-0.8-1.2-0.8
		c-0.6,0-1,0.3-1.2,0.8c-0.1,0.3-0.1,0.5-0.2,0.8h2.8C139.4,74.9,139.4,74.7,139.2,74.4"/>
	<path class="st5" d="M145.6,78.8v-0.6c-0.4,0.4-0.9,0.6-1.6,0.6c-0.8,0-1.3-0.2-1.7-0.6c-0.3-0.3-0.5-0.8-0.5-1.3
		c0-1,0.7-1.8,2.1-1.8h1.6v-0.4c0-0.8-0.4-1.2-1.3-1.2c-0.7,0-1,0.2-1.3,0.6l-0.8-0.8c0.6-0.7,1.2-0.9,2.2-0.9
		c1.7,0,2.5,0.7,2.5,2.1v4.1H145.6z M145.6,76.1h-1.4c-0.7,0-1.1,0.3-1.1,0.9c0,0.6,0.4,0.9,1.1,0.9c0.5,0,0.8,0,1.1-0.4
		c0.2-0.2,0.3-0.5,0.3-0.9V76.1z"/>
	<polygon class="st5" points="151.8,78.8 151.8,70.2 157.3,70.2 157.3,71.4 153.1,71.4 153.1,73.9 156.7,73.9 156.7,75.1 
		153.1,75.1 153.1,77.7 157.3,77.7 157.3,78.8 	"/>
	<path class="st5" d="M162.5,78.8v-0.7c-0.5,0.6-1,0.7-1.6,0.7c-0.6,0-1.2-0.2-1.5-0.5c-0.6-0.6-0.7-1.7-0.7-2.6
		c0-0.9,0.1-2,0.7-2.6c0.3-0.3,0.9-0.5,1.5-0.5c0.7,0,1.2,0.2,1.6,0.7v-3.1h1.2v8.6H162.5z M161.2,73.7c-1.1,0-1.3,0.9-1.3,2
		c0,1.1,0.2,2.1,1.3,2.1c1.1,0,1.3-1,1.3-2.1C162.4,74.7,162.3,73.7,161.2,73.7"/>
	<path class="st5" d="M169.4,78.8v-0.6c-0.4,0.5-1,0.7-1.6,0.7c-0.6,0-1.2-0.2-1.5-0.6c-0.5-0.5-0.6-1-0.6-1.7v-3.9h1.2v3.7
		c0,1,0.5,1.4,1.2,1.4c0.7,0,1.3-0.4,1.3-1.4v-3.7h1.2v6.2H169.4z"/>
	<path class="st5" d="M175,78.9c-1.4,0-2.7-0.8-2.7-3.2c0-2.3,1.4-3.1,2.7-3.1c0.8,0,1.4,0.2,2,0.9l-0.8,0.8
		c-0.4-0.4-0.7-0.6-1.2-0.6c-0.5,0-0.9,0.2-1.1,0.5c-0.3,0.3-0.4,0.8-0.4,1.5c0,0.7,0.1,1.2,0.4,1.5c0.3,0.4,0.7,0.5,1.1,0.5
		c0.5,0,0.8-0.2,1.2-0.6L177,78C176.4,78.6,175.8,78.9,175,78.9"/>
	<path class="st5" d="M181.7,78.8v-0.6c-0.4,0.4-0.9,0.6-1.6,0.6c-0.8,0-1.3-0.2-1.7-0.6c-0.3-0.3-0.5-0.8-0.5-1.3
		c0-1,0.7-1.8,2.1-1.8h1.6v-0.4c0-0.8-0.4-1.2-1.3-1.2c-0.7,0-1,0.2-1.3,0.6l-0.8-0.8c0.6-0.7,1.2-0.9,2.2-0.9
		c1.7,0,2.5,0.7,2.5,2.1v4.1H181.7z M181.6,76.1h-1.4c-0.7,0-1.1,0.3-1.1,0.9c0,0.6,0.4,0.9,1.1,0.9c0.5,0,0.8,0,1.2-0.4
		c0.2-0.2,0.3-0.5,0.3-0.9V76.1z"/>
	<path class="st5" d="M186.6,78.8c-1.2,0-1.7-0.8-1.7-1.7v-3.4h-0.7v-0.9h0.7v-1.9h1.2v1.9h1.2v0.9h-1.2v3.3c0,0.4,0.2,0.7,0.7,0.7
		h0.5v1.1H186.6z"/>
	<path class="st5" d="M188.9,70.2h1.3v1.3h-1.3V70.2z M188.9,72.7h1.2v6.2h-1.2V72.7z"/>
	<path class="st5" d="M196.2,78.2c-0.4,0.4-1,0.7-1.8,0.7c-0.8,0-1.4-0.3-1.8-0.7c-0.6-0.6-0.7-1.4-0.7-2.4c0-1,0.1-1.8,0.7-2.4
		c0.4-0.4,1-0.7,1.8-0.7c0.8,0,1.4,0.3,1.8,0.7c0.6,0.6,0.7,1.4,0.7,2.4C197,76.8,196.8,77.6,196.2,78.2 M195.3,74.1
		c-0.2-0.2-0.5-0.4-0.9-0.4c-0.4,0-0.7,0.1-0.9,0.4c-0.4,0.4-0.4,1-0.4,1.7c0,0.7,0,1.3,0.4,1.7c0.2,0.2,0.5,0.4,0.9,0.4
		c0.4,0,0.7-0.1,0.9-0.4c0.4-0.4,0.4-1,0.4-1.7C195.7,75.1,195.7,74.4,195.3,74.1"/>
	<path class="st5" d="M202.4,78.8v-3.8c0-1-0.5-1.4-1.2-1.4c-0.7,0-1.3,0.4-1.3,1.4v3.8h-1.2v-6.2h1.2v0.6c0.4-0.5,1-0.7,1.6-0.7
		c0.6,0,1.2,0.2,1.5,0.6c0.5,0.5,0.6,1,0.6,1.7v3.9H202.4z"/>
	<path class="st5" d="M208.9,78.8v-0.6c-0.5,0.4-0.9,0.6-1.6,0.6c-0.8,0-1.3-0.2-1.6-0.6c-0.3-0.3-0.5-0.8-0.5-1.3
		c0-1,0.7-1.8,2.1-1.8h1.6v-0.4c0-0.8-0.4-1.2-1.3-1.2c-0.7,0-1,0.2-1.4,0.6l-0.8-0.8c0.6-0.7,1.2-0.9,2.2-0.9
		c1.7,0,2.5,0.7,2.5,2.1v4.1H208.9z M208.8,76.1h-1.4c-0.7,0-1.1,0.3-1.1,0.9c0,0.6,0.4,0.9,1.1,0.9c0.5,0,0.8,0,1.2-0.4
		c0.2-0.2,0.3-0.5,0.3-0.9V76.1z"/>
	<path class="st5" d="M213.6,78.8c-1.2,0-1.7-0.8-1.7-1.7v-6.9h1.2v6.9c0,0.5,0.2,0.7,0.7,0.7h0.5v1.1H213.6z"/>
	<polygon class="st5" points="218.8,78.8 218.8,70.2 224.3,70.2 224.3,71.4 220.1,71.4 220.1,73.9 223.7,73.9 223.7,75.1 
		220.1,75.1 220.1,77.7 224.3,77.7 224.3,78.8 	"/>
	<path class="st5" d="M229.7,78.8v-3.8c0-1-0.5-1.4-1.2-1.4c-0.7,0-1.3,0.4-1.3,1.4v3.8H226v-6.2h1.2v0.6c0.4-0.5,1-0.7,1.6-0.7
		c0.6,0,1.2,0.2,1.5,0.6c0.5,0.5,0.6,1,0.6,1.7v3.9H229.7z"/>
	<polygon class="st5" points="235.3,78.8 234.3,78.8 232,72.7 233.3,72.7 234.8,77 236.2,72.7 237.5,72.7 	"/>
	<path class="st5" d="M238.6,70.2h1.3v1.3h-1.3V70.2z M238.6,72.7h1.2v6.2h-1.2V72.7z"/>
	<path class="st5" d="M245.2,74.1c-0.3-0.3-0.5-0.4-0.9-0.4c-0.7,0-1.2,0.5-1.2,1.4v3.7h-1.2v-6.2h1.2v0.7c0.3-0.4,0.9-0.7,1.6-0.7
		c0.6,0,1,0.2,1.5,0.6L245.2,74.1z"/>
	<path class="st5" d="M250.9,78.2c-0.4,0.4-1,0.7-1.8,0.7c-0.8,0-1.4-0.3-1.8-0.7c-0.6-0.6-0.7-1.4-0.7-2.4c0-1,0.1-1.8,0.7-2.4
		c0.4-0.4,1-0.7,1.8-0.7c0.8,0,1.4,0.3,1.8,0.7c0.6,0.6,0.7,1.4,0.7,2.4C251.6,76.8,251.4,77.6,250.9,78.2 M249.9,74.1
		c-0.2-0.2-0.5-0.4-0.9-0.4c-0.4,0-0.7,0.1-0.9,0.4c-0.4,0.4-0.4,1-0.4,1.7c0,0.7,0,1.3,0.4,1.7c0.2,0.2,0.5,0.4,0.9,0.4
		c0.4,0,0.7-0.1,0.9-0.4c0.4-0.4,0.4-1,0.4-1.7C250.3,75.1,250.3,74.4,249.9,74.1"/>
	<path class="st5" d="M257,78.8v-3.8c0-1-0.5-1.4-1.2-1.4c-0.7,0-1.3,0.4-1.3,1.4v3.8h-1.2v-6.2h1.2v0.6c0.4-0.5,1-0.7,1.6-0.7
		c0.6,0,1.1,0.2,1.5,0.6c0.5,0.5,0.6,1,0.6,1.7v3.9H257z"/>
	<path class="st5" d="M267.7,78.8v-3.8c0-1-0.5-1.4-1.2-1.4c-0.7,0-1.3,0.4-1.3,1.3v3.8h-1.2v-3.8c0-1-0.5-1.4-1.2-1.4
		c-0.7,0-1.3,0.4-1.3,1.4v3.8h-1.2v-6.2h1.2v0.6c0.4-0.4,1-0.7,1.6-0.7c0.8,0,1.4,0.3,1.7,0.9c0.5-0.6,1.1-0.9,1.9-0.9
		c0.6,0,1.2,0.2,1.5,0.6c0.5,0.5,0.7,1,0.7,1.7v3.9H267.7z"/>
	<path class="st5" d="M271.7,76.1c0,1.1,0.6,1.7,1.6,1.7c0.7,0,1.1-0.2,1.5-0.6l0.8,0.7c-0.6,0.6-1.2,1-2.3,1
		c-1.5,0-2.8-0.8-2.8-3.2c0-2,1-3.1,2.6-3.1c1.6,0,2.6,1.2,2.6,3v0.5H271.7z M274.3,74.4c-0.2-0.5-0.6-0.8-1.2-0.8
		c-0.6,0-1,0.3-1.2,0.8c-0.1,0.3-0.1,0.5-0.2,0.8h2.8C274.5,74.9,274.4,74.7,274.3,74.4"/>
	<path class="st5" d="M281.1,78.8v-3.8c0-1-0.5-1.4-1.2-1.4c-0.7,0-1.3,0.4-1.3,1.4v3.8h-1.2v-6.2h1.2v0.6c0.4-0.5,1-0.7,1.6-0.7
		c0.6,0,1.2,0.2,1.5,0.6c0.5,0.5,0.6,1,0.6,1.7v3.9H281.1z"/>
	<path class="st5" d="M286.1,78.8c-1.2,0-1.7-0.8-1.7-1.7v-3.4h-0.7v-0.9h0.7v-1.9h1.2v1.9h1.2v0.9h-1.2v3.3c0,0.4,0.2,0.7,0.7,0.7
		h0.5v1.1H286.1z"/>
	<path class="st5" d="M290.4,78.9c-1,0-1.9-0.2-2.6-0.9l0.8-0.8c0.5,0.5,1.2,0.6,1.8,0.6c0.7,0,1.3-0.3,1.3-0.8
		c0-0.4-0.2-0.7-0.8-0.7l-1-0.1c-1.2-0.1-1.8-0.6-1.8-1.7c0-1.2,1-1.9,2.3-1.9c0.9,0,1.7,0.2,2.3,0.7l-0.8,0.8
		c-0.4-0.3-0.9-0.5-1.5-0.5c-0.7,0-1.1,0.3-1.1,0.8c0,0.4,0.2,0.6,0.8,0.7l1,0.1c1.2,0.1,1.8,0.6,1.8,1.7
		C293,78.2,291.9,78.9,290.4,78.9"/>
	<path class="st5" d="M300.8,75.4h-2v3.4h-1.3v-8.6h3.3c1.7,0,2.8,1.1,2.8,2.6C303.6,74.3,302.5,75.4,300.8,75.4 M300.7,71.4h-1.9
		v2.9h1.9c0.9,0,1.5-0.5,1.5-1.4C302.3,71.9,301.6,71.4,300.7,71.4"/>
	<path class="st5" d="M308.4,74.1c-0.3-0.3-0.5-0.4-0.9-0.4c-0.7,0-1.2,0.5-1.2,1.4v3.7H305v-6.2h1.2v0.7c0.3-0.4,0.9-0.7,1.6-0.7
		c0.6,0,1,0.2,1.5,0.6L308.4,74.1z"/>
	<path class="st5" d="M314.1,78.2c-0.4,0.4-1,0.7-1.8,0.7c-0.8,0-1.4-0.3-1.8-0.7c-0.6-0.6-0.7-1.4-0.7-2.4c0-1,0.1-1.8,0.7-2.4
		c0.4-0.4,1-0.7,1.8-0.7c0.8,0,1.4,0.3,1.8,0.7c0.6,0.6,0.7,1.4,0.7,2.4C314.8,76.8,314.6,77.6,314.1,78.2 M313.1,74.1
		c-0.2-0.2-0.5-0.4-0.9-0.4c-0.4,0-0.7,0.1-0.9,0.4c-0.4,0.4-0.4,1-0.4,1.7c0,0.7,0,1.3,0.4,1.7c0.2,0.2,0.5,0.4,0.9,0.4
		c0.4,0,0.7-0.1,0.9-0.4c0.4-0.4,0.4-1,0.4-1.7C313.5,75.1,313.5,74.4,313.1,74.1"/>
	<path class="st5" d="M318.3,78.8c-1.2,0-1.7-0.8-1.7-1.7v-3.4h-0.7v-0.9h0.7v-1.9h1.2v1.9h1.2v0.9h-1.2v3.3c0,0.4,0.2,0.7,0.7,0.7
		h0.5v1.1H318.3z"/>
	<path class="st5" d="M321.5,76.1c0,1.1,0.6,1.7,1.6,1.7c0.7,0,1.1-0.2,1.5-0.6l0.8,0.7c-0.6,0.6-1.2,1-2.3,1
		c-1.5,0-2.8-0.8-2.8-3.2c0-2,1-3.1,2.6-3.1c1.7,0,2.6,1.2,2.6,3v0.5H321.5z M324.1,74.4c-0.2-0.5-0.6-0.8-1.2-0.8
		c-0.6,0-1,0.3-1.2,0.8c-0.1,0.3-0.1,0.5-0.2,0.8h2.8C324.2,74.9,324.2,74.7,324.1,74.4"/>
	<path class="st5" d="M329.5,78.9c-1.4,0-2.7-0.8-2.7-3.2c0-2.3,1.4-3.1,2.7-3.1c0.8,0,1.4,0.2,2,0.9l-0.8,0.8
		c-0.4-0.4-0.7-0.6-1.2-0.6c-0.5,0-0.9,0.2-1.1,0.5c-0.3,0.3-0.4,0.8-0.4,1.5c0,0.7,0.1,1.2,0.4,1.5c0.3,0.4,0.7,0.5,1.1,0.5
		c0.5,0,0.8-0.2,1.2-0.6l0.8,0.8C331,78.6,330.4,78.9,329.5,78.9"/>
	<path class="st5" d="M334.8,78.8c-1.2,0-1.7-0.8-1.7-1.7v-3.4h-0.7v-0.9h0.7v-1.9h1.2v1.9h1.2v0.9h-1.2v3.3c0,0.4,0.2,0.7,0.7,0.7
		h0.5v1.1H334.8z"/>
	<path class="st5" d="M337.1,70.2h1.3v1.3h-1.3V70.2z M337.1,72.7h1.2v6.2h-1.2V72.7z"/>
	<path class="st5" d="M344.5,78.2c-0.4,0.4-1,0.7-1.8,0.7c-0.8,0-1.4-0.3-1.8-0.7c-0.6-0.6-0.7-1.4-0.7-2.4c0-1,0.1-1.8,0.7-2.4
		c0.4-0.4,1-0.7,1.8-0.7c0.8,0,1.4,0.3,1.8,0.7c0.6,0.6,0.7,1.4,0.7,2.4C345.2,76.8,345,77.6,344.5,78.2 M343.5,74.1
		c-0.2-0.2-0.5-0.4-0.9-0.4c-0.4,0-0.7,0.1-0.9,0.4c-0.4,0.4-0.4,1-0.4,1.7c0,0.7,0,1.3,0.4,1.7c0.2,0.2,0.5,0.4,0.9,0.4
		c0.4,0,0.7-0.1,0.9-0.4c0.4-0.4,0.4-1,0.4-1.7C343.9,75.1,343.9,74.4,343.5,74.1"/>
	<path class="st5" d="M350.6,78.8v-3.8c0-1-0.5-1.4-1.2-1.4c-0.7,0-1.3,0.4-1.3,1.4v3.8h-1.2v-6.2h1.2v0.6c0.4-0.5,1-0.7,1.6-0.7
		c0.6,0,1.2,0.2,1.5,0.6c0.5,0.5,0.6,1,0.6,1.7v3.9H350.6z"/>
	<path class="st5" d="M361.8,78.8l-0.6-1.7h-3.4l-0.6,1.7h-1.4l3.2-8.6h1.1l3.2,8.6H361.8z M359.5,72.1l-1.3,3.8h2.7L359.5,72.1z"/>
	<path class="st5" d="M366.3,81.4c-0.9,0-1.5-0.2-2.2-0.8l0.8-0.8c0.4,0.4,0.7,0.5,1.3,0.5c1,0,1.4-0.7,1.4-1.6V78
		c-0.4,0.5-1,0.7-1.6,0.7c-0.6,0-1.1-0.2-1.5-0.5c-0.6-0.6-0.7-1.5-0.7-2.5c0-1,0.1-1.9,0.7-2.5c0.3-0.3,0.9-0.5,1.5-0.5
		c0.7,0,1.2,0.2,1.6,0.7v-0.7h1.2v6.1C369,80.3,368,81.4,366.3,81.4 M366.5,73.7c-1.1,0-1.3,1-1.3,1.9c0,1,0.2,1.9,1.3,1.9
		c1.1,0,1.3-1,1.3-1.9C367.7,74.7,367.6,73.7,366.5,73.7"/>
	<path class="st5" d="M371.8,76.1c0,1.1,0.6,1.7,1.6,1.7c0.7,0,1.1-0.2,1.5-0.6l0.8,0.7c-0.6,0.6-1.2,1-2.3,1
		c-1.5,0-2.8-0.8-2.8-3.2c0-2,1-3.1,2.6-3.1c1.7,0,2.6,1.2,2.6,3v0.5H371.8z M374.4,74.4c-0.2-0.5-0.6-0.8-1.2-0.8
		c-0.6,0-1,0.3-1.2,0.8c-0.1,0.3-0.1,0.5-0.2,0.8h2.8C374.6,74.9,374.6,74.7,374.4,74.4"/>
	<path class="st5" d="M381.2,78.8v-3.8c0-1-0.5-1.4-1.2-1.4c-0.7,0-1.3,0.4-1.3,1.4v3.8h-1.2v-6.2h1.2v0.6c0.4-0.5,1-0.7,1.6-0.7
		c0.6,0,1.2,0.2,1.5,0.6c0.5,0.5,0.6,1,0.6,1.7v3.9H381.2z"/>
	<path class="st5" d="M386.8,78.9c-1.4,0-2.7-0.8-2.7-3.2c0-2.3,1.4-3.1,2.7-3.1c0.8,0,1.4,0.2,2,0.9l-0.8,0.8
		c-0.4-0.4-0.7-0.6-1.2-0.6c-0.5,0-0.9,0.2-1.1,0.5c-0.3,0.3-0.4,0.8-0.4,1.5c0,0.7,0.1,1.2,0.4,1.5c0.3,0.4,0.7,0.5,1.1,0.5
		c0.5,0,0.8-0.2,1.2-0.6l0.8,0.8C388.2,78.6,387.6,78.9,386.8,78.9"/>
	<path class="st5" d="M392.2,80.1c-0.1,0.3-0.3,0.6-0.4,0.8c-0.3,0.3-0.8,0.5-1.3,0.5H390v-1.1h0.3c0.5,0,0.7-0.2,0.9-0.7l0.3-1
		l-2.1-5.9h1.3l1.5,4.3l1.4-4.3h1.3L392.2,80.1z"/>
	<polygon class="st5" points="121.6,78.8 119.2,74.6 117.7,76.3 117.7,78.8 116.4,78.8 116.4,70.2 117.7,70.2 117.7,74.5 
		121.3,70.2 122.9,70.2 120.1,73.6 123.2,78.8 	"/>
</g>
<g>
	<rect x="47.3" y="288.6" class="st6" width="76.8" height="100.7"/>
	<rect x="47.3" y="386.2" class="st7" width="76.8" height="3.1"/>
	<path class="st7" d="M118.7,307.8h-66c-3,0-5.4-2.4-5.4-5.4v2.8c0,3,2.4,5.4,5.4,5.4h66c3,0,5.4-2.4,5.4-5.4v-2.8
		C124.1,305.3,121.7,307.8,118.7,307.8z"/>
	<path class="st6" d="M118.7,308.2h-66c-3,0-5.4-2.4-5.4-5.4V289h76.8v13.8C124.1,305.8,121.7,308.2,118.7,308.2z"/>
	<path class="st8" d="M82.9,313.5C82.9,313.5,82.9,313.5,82.9,313.5c-0.3,0-0.5-0.2-0.5-0.5l0.6-8.6c0-0.3,0.3-0.5,0.5-0.4
		c0.3,0,0.5,0.2,0.4,0.5l-0.6,8.6C83.4,313.3,83.2,313.5,82.9,313.5z"/>
	<path class="st8" d="M88.4,313.5c-0.2,0-0.5-0.2-0.5-0.4l-0.6-8.6c0-0.3,0.2-0.5,0.4-0.5c0.2,0,0.5,0.2,0.5,0.4l0.6,8.6
		C88.9,313.2,88.7,313.5,88.4,313.5C88.4,313.5,88.4,313.5,88.4,313.5z"/>
	<path class="st9" d="M90,316.4c0,2.4-1.9,4.3-4.3,4.3c-2.4,0-4.3-1.9-4.3-4.3c0-2.4,1.9-4.3,4.3-4.3C88.1,312,90,314,90,316.4z"/>
	<path class="st9" d="M90,316.4c0,2.4-1.9,4.3-4.3,4.3c-2.4,0-4.3-1.9-4.3-4.3c0-2.4,1.9-4.3,4.3-4.3C88.1,312,90,314,90,316.4z"/>
	<path class="st10" d="M87.4,316.4c0,1-0.8,1.7-1.7,1.7s-1.7-0.8-1.7-1.7c0-1,0.8-1.7,1.7-1.7S87.4,315.4,87.4,316.4z"/>
	<path class="st8" d="M82.9,301.1c-0.2,0-0.4-0.1-0.4-0.3c0,0-2.1-4.4-4.9-4.1c-0.3,0-0.5-0.2-0.5-0.4c0-0.3,0.2-0.5,0.4-0.5
		c3.6-0.4,5.8,4.4,5.9,4.6c0.1,0.2,0,0.5-0.2,0.6C83.1,301.1,83,301.1,82.9,301.1z"/>
	<path class="st9" d="M90,300.6c0,2.4-1.9,4.3-4.3,4.3c-2.4,0-4.3-1.9-4.3-4.3c0-2.4,1.9-4.3,4.3-4.3C88.1,296.3,90,298.2,90,300.6z
		"/>
	<path class="st9" d="M85.7,305c-2.3,0-4.1-1.8-4.3-4c0,0.1,0,0.2,0,0.4c0,2.4,1.9,4.3,4.3,4.3c2.4,0,4.3-1.9,4.3-4.3
		c0-0.1,0-0.2,0-0.4C89.8,303.2,87.9,305,85.7,305z"/>
	<path class="st7" d="M85.7,305c-2.3,0-4.1-1.8-4.3-4c0,0.1,0,0.2,0,0.4c0,2.4,1.9,4.3,4.3,4.3c2.4,0,4.3-1.9,4.3-4.3
		c0-0.1,0-0.2,0-0.4C89.8,303.2,87.9,305,85.7,305z"/>
	<path class="st9" d="M85.7,320.9c-2.3,0-4.1-1.8-4.3-4c0,0.1,0,0.2,0,0.4c0,2.4,1.9,4.3,4.3,4.3c2.4,0,4.3-1.9,4.3-4.3
		c0-0.1,0-0.2,0-0.4C89.8,319.1,87.9,320.9,85.7,320.9z"/>
	<path class="st7" d="M85.7,320.9c-2.3,0-4.1-1.8-4.3-4c0,0.1,0,0.2,0,0.4c0,2.4,1.9,4.3,4.3,4.3c2.4,0,4.3-1.9,4.3-4.3
		c0-0.1,0-0.2,0-0.4C89.8,319.1,87.9,320.9,85.7,320.9z"/>
	<path class="st10" d="M87.4,300.6c0,1-0.8,1.7-1.7,1.7s-1.7-0.8-1.7-1.7c0-1,0.8-1.7,1.7-1.7S87.4,299.7,87.4,300.6z"/>
	<path class="st7" d="M86.5,300.6c0,0.5-0.4,0.9-0.9,0.9c-0.5,0-0.9-0.4-0.9-0.9c0-0.5,0.4-0.9,0.9-0.9
		C86.1,299.8,86.5,300.1,86.5,300.6z"/>
	<path class="st7" d="M86.5,316.4c0,0.5-0.4,0.9-0.9,0.9c-0.5,0-0.9-0.4-0.9-0.9s0.4-0.9,0.9-0.9C86.1,315.5,86.5,315.9,86.5,316.4z
		"/>
</g>
<g>
	<polygon class="st10" points="75.4,338.1 -8,338.1 -24.8,409.4 92.1,409.4 	"/>
	<polygon class="st11" points="12.9,349.6 -1.6,349.6 -0.5,345 15.1,345 	"/>
	<polygon class="st11" points="7.8,361.7 -4.2,361.7 -2.9,357.1 10,357.1 	"/>
	<polygon class="st11" points="3.2,374.6 -7.3,374.6 -6.2,370 4.7,370 	"/>
	<polygon class="st11" points="-9.8,387.1 -8.6,382.5 34.6,382.5 34.6,387.1 	"/>
	<polygon class="st11" points="63.3,374.6 14.4,374.6 15.6,370 63.3,370 	"/>
	<polygon class="st11" points="63.3,361.7 19.2,361.7 20.4,357.1 63.3,357.1 	"/>
	<polygon class="st11" points="63.3,349.6 24.5,349.6 25.7,345 63.3,345 	"/>
	<polygon class="st11" points="34.6,399.4 -12.4,399.4 -11.2,394.8 34.6,394.8 	"/>
	<polygon class="st11" points="53,349.6 67.6,349.6 66.4,345 50.8,345 	"/>
	<polygon class="st11" points="58.1,361.7 70.1,361.7 68.8,357.1 55.9,357.1 	"/>
	<polygon class="st11" points="62.7,374.6 73.2,374.6 72.1,370 61.3,370 	"/>
	<polygon class="st11" points="75.7,387.1 74.5,382.5 31.3,382.5 31.3,387.1 	"/>
	<polygon class="st11" points="31.3,399.4 78.3,399.4 77.2,394.8 31.3,394.8 	"/>
	<polygon class="st12" points="13.1,369.5 8,367.3 33.7,308.3 38.8,310.5 	"/>
	<polygon class="st13" points="13.1,369.5 8,367.3 5.2,380.1 	"/>
</g>
<g>
	<g>
		<g>
			<g>
				<g>
					<path class="st10" d="M271.8,352.1c-0.3,0-0.5-0.1-0.8-0.2c-0.5-0.3-0.8-0.8-0.8-1.3v-23.2c0-0.5,0.3-1,0.8-1.3
						c0.5-0.3,1-0.3,1.5,0l20.1,11.6c0.5,0.3,0.8,0.8,0.8,1.3c0,0.5-0.3,1-0.8,1.3l-20.1,11.6C272.3,352,272,352.1,271.8,352.1z
						 M273.3,330v18l15.6-9L273.3,330z"/>
				</g>
			</g>
		</g>
		<g>
			<g>
				<path class="st10" d="M307.8,368h-55.2c-0.8,0-1.5-0.7-1.5-1.5v-55.2c0-0.8,0.7-1.5,1.5-1.5h55.2c0.8,0,1.5,0.7,1.5,1.5v55.2
					C309.3,367.4,308.6,368,307.8,368z M254.1,365h52.2v-52.2h-52.2V365z"/>
			</g>
		</g>
	</g>
	<g>
		<g>
			<g>
				<g>
					<g>
						<path class="st10" d="M275.8,301c-0.4,0-0.8-0.1-1.1-0.4c-0.6-0.6-0.6-1.5,0-2.1l4.4-4.4c0.6-0.6,1.5-0.6,2.1,0
							c0.6,0.6,0.6,1.5,0,2.1l-4.4,4.4C276.6,300.9,276.2,301,275.8,301z"/>
					</g>
				</g>
				<g>
					<g>
						<path class="st10" d="M284.6,301c-0.4,0-0.8-0.1-1.1-0.4l-4.4-4.4c-0.6-0.6-0.6-1.5,0-2.1c0.6-0.6,1.5-0.6,2.1,0l4.4,4.4
							c0.6,0.6,0.6,1.5,0,2.1C285.4,300.9,285,301,284.6,301z"/>
					</g>
				</g>
			</g>
			<g>
				<g>
					<g>
						<path class="st10" d="M280.2,384.3c-0.4,0-0.8-0.1-1.1-0.4l-4.4-4.4c-0.6-0.6-0.6-1.5,0-2.1c0.6-0.6,1.5-0.6,2.1,0l4.4,4.4
							c0.6,0.6,0.6,1.5,0,2.1C281,384.1,280.6,384.3,280.2,384.3z"/>
					</g>
				</g>
				<g>
					<g>
						<path class="st10" d="M280.2,384.3c-0.4,0-0.8-0.1-1.1-0.4c-0.6-0.6-0.6-1.5,0-2.1l4.4-4.4c0.6-0.6,1.5-0.6,2.1,0
							c0.6,0.6,0.6,1.5,0,2.1l-4.4,4.4C281,384.1,280.6,384.3,280.2,384.3z"/>
					</g>
				</g>
			</g>
		</g>
		<g>
			<g>
				<g>
					<g>
						<path class="st10" d="M324,340.5c-0.4,0-0.8-0.1-1.1-0.4l-4.4-4.4c-0.6-0.6-0.6-1.5,0-2.1c0.6-0.6,1.5-0.6,2.1,0l4.4,4.4
							c0.6,0.6,0.6,1.5,0,2.1C324.8,340.3,324.4,340.5,324,340.5z"/>
					</g>
				</g>
				<g>
					<g>
						<path class="st10" d="M319.7,344.8c-0.4,0-0.8-0.1-1.1-0.4c-0.6-0.6-0.6-1.5,0-2.1l4.4-4.4c0.6-0.6,1.5-0.6,2.1,0
							c0.6,0.6,0.6,1.5,0,2.1l-4.4,4.4C320.4,344.7,320,344.8,319.7,344.8z"/>
					</g>
				</g>
			</g>
			<g>
				<g>
					<g>
						<path class="st10" d="M236.4,340.5c-0.4,0-0.8-0.1-1.1-0.4c-0.6-0.6-0.6-1.5,0-2.1l4.4-4.4c0.6-0.6,1.5-0.6,2.1,0
							c0.6,0.6,0.6,1.5,0,2.1l-4.4,4.4C237.2,340.3,236.8,340.5,236.4,340.5z"/>
					</g>
				</g>
				<g>
					<g>
						<path class="st10" d="M240.8,344.8c-0.4,0-0.8-0.1-1.1-0.4l-4.4-4.4c-0.6-0.6-0.6-1.5,0-2.1c0.6-0.6,1.5-0.6,2.1,0l4.4,4.4
							c0.6,0.6,0.6,1.5,0,2.1C241.5,344.7,241.2,344.8,240.8,344.8z"/>
					</g>
				</g>
			</g>
		</g>
	</g>
	<g>
		<g>
			<g>
				<g>
					<path class="st10" d="M262.2,319.8h-2.6c-0.8,0-1.5-0.7-1.5-1.5c0-0.8,0.7-1.5,1.5-1.5h2.6c0.8,0,1.5,0.7,1.5,1.5
						C263.7,319.1,263.1,319.8,262.2,319.8z"/>
				</g>
			</g>
			<g>
				<g>
					<path class="st10" d="M262.2,333.2h-2.6c-0.8,0-1.5-0.7-1.5-1.5c0-0.8,0.7-1.5,1.5-1.5h2.6c0.8,0,1.5,0.7,1.5,1.5
						C263.7,332.5,263.1,333.2,262.2,333.2z"/>
				</g>
			</g>
			<g>
				<g>
					<path class="st10" d="M262.2,346.5h-2.6c-0.8,0-1.5-0.7-1.5-1.5c0-0.8,0.7-1.5,1.5-1.5h2.6c0.8,0,1.5,0.7,1.5,1.5
						C263.7,345.9,263.1,346.5,262.2,346.5z"/>
				</g>
			</g>
			<g>
				<g>
					<path class="st10" d="M262.2,359.9h-2.6c-0.8,0-1.5-0.7-1.5-1.5c0-0.8,0.7-1.5,1.5-1.5h2.6c0.8,0,1.5,0.7,1.5,1.5
						C263.7,359.2,263.1,359.9,262.2,359.9z"/>
				</g>
			</g>
		</g>
		<g>
			<g>
				<g>
					<path class="st10" d="M300.8,319.8h-2.6c-0.8,0-1.5-0.7-1.5-1.5c0-0.8,0.7-1.5,1.5-1.5h2.6c0.8,0,1.5,0.7,1.5,1.5
						C302.3,319.1,301.6,319.8,300.8,319.8z"/>
				</g>
			</g>
			<g>
				<g>
					<path class="st10" d="M300.8,333.2h-2.6c-0.8,0-1.5-0.7-1.5-1.5c0-0.8,0.7-1.5,1.5-1.5h2.6c0.8,0,1.5,0.7,1.5,1.5
						C302.3,332.5,301.6,333.2,300.8,333.2z"/>
				</g>
			</g>
			<g>
				<g>
					<path class="st10" d="M300.8,346.5h-2.6c-0.8,0-1.5-0.7-1.5-1.5c0-0.8,0.7-1.5,1.5-1.5h2.6c0.8,0,1.5,0.7,1.5,1.5
						C302.3,345.9,301.6,346.5,300.8,346.5z"/>
				</g>
			</g>
			<g>
				<g>
					<path class="st10" d="M300.8,359.9h-2.6c-0.8,0-1.5-0.7-1.5-1.5c0-0.8,0.7-1.5,1.5-1.5h2.6c0.8,0,1.5,0.7,1.5,1.5
						C302.3,359.2,301.6,359.9,300.8,359.9z"/>
				</g>
			</g>
		</g>
	</g>
</g>
<g>
	<g>
		<path class="st10" d="M383.8,418.7c-0.5,0-1.1-0.2-1.4-0.7c-0.5-0.6-0.6-1.5-0.1-2.2l1.1-2.8c0-0.1,0-0.1,0-0.2v-8
			c0-2,1.6-3.6,3.6-3.6h18.8c2,0,3.6,1.6,3.6,3.6v8c0,2-1.6,3.6-3.6,3.6h-17.9c0,0-0.1,0-0.1,0.1l-3.1,1.9c0,0-0.1,0-0.1,0
			C384.3,418.6,384.1,418.7,383.8,418.7z M387,402.8c-1.1,0-2,0.9-2,2v8c0,0.1,0,0.1,0,0.2c0,0.1,0,0.3-0.1,0.4l-1.2,3
			c0,0.1-0.1,0.1-0.1,0.2c-0.1,0.1-0.1,0.2,0,0.3c0.1,0.1,0.2,0.1,0.3,0.1l3.1-1.9c0,0,0.1,0,0.1,0c0,0,0,0,0.1,0
			c0.1-0.1,0.3-0.2,0.5-0.2h18.2c1.1,0,2-0.9,2-2v-8c0-1.1-0.9-2-2-2H387z"/>
		<path class="st10" d="M419.6,432.7c-0.3,0-0.5-0.1-0.8-0.2c0,0-0.1,0-0.1,0l-3.1-1.9c0,0-0.1,0-0.1-0.1H401c-2,0-3.6-1.6-3.6-3.6
			v-5.6c0-2,1.6-3.6,3.6-3.6h15.3c2,0,3.6,1.6,3.6,3.6v5.6c0,0.1,0,0.1,0,0.2l1.1,2.8c0.4,0.7,0.4,1.6-0.1,2.2
			C420.7,432.4,420.1,432.7,419.6,432.7z M419.5,431c0.1,0,0.2,0,0.3-0.1c0.1-0.1,0.1-0.2,0-0.3c0-0.1-0.1-0.1-0.1-0.2l-1.2-3
			c-0.1-0.1-0.1-0.3-0.1-0.4c0-0.1,0-0.1,0-0.2v-5.6c0-1.1-0.9-2-2-2H401c-1.1,0-2,0.9-2,2v5.6c0,1.1,0.9,2,2,2h14.7
			c0.2,0,0.4,0.1,0.5,0.2c0,0,0,0,0.1,0c0,0,0.1,0,0.1,0L419.5,431z"/>
	</g>
	<g>
		<path class="st10" d="M393.1,412.1l-0.6,0.6l-1-0.9c-0.2,0.1-0.5,0.2-0.8,0.3s-0.5,0.1-0.8,0.1c-0.5,0-0.9-0.1-1.3-0.3
			s-0.7-0.4-1-0.8c-0.3-0.3-0.5-0.7-0.6-1.1c-0.1-0.4-0.2-0.9-0.2-1.4c0-0.5,0.1-0.9,0.2-1.4c0.1-0.4,0.4-0.8,0.6-1.1
			c0.3-0.3,0.6-0.6,1-0.8s0.9-0.3,1.3-0.3c0.5,0,0.9,0.1,1.3,0.3s0.7,0.4,1,0.8c0.3,0.3,0.5,0.7,0.6,1.1s0.2,0.9,0.2,1.4
			c0,0.5-0.1,1-0.2,1.4s-0.4,0.9-0.7,1.2L393.1,412.1z M390.1,410.6l0.6-0.7l0.8,0.7c0.2-0.2,0.4-0.5,0.4-0.9c0.1-0.3,0.1-0.7,0.1-1
			c0-0.3,0-0.7-0.1-1c-0.1-0.3-0.2-0.6-0.4-0.8c-0.2-0.2-0.4-0.4-0.6-0.6s-0.6-0.2-0.9-0.2c-0.3,0-0.7,0.1-0.9,0.2s-0.5,0.3-0.6,0.6
			c-0.2,0.2-0.3,0.5-0.4,0.8s-0.1,0.6-0.1,1s0,0.7,0.1,1c0.1,0.3,0.2,0.6,0.4,0.8s0.4,0.4,0.6,0.6s0.6,0.2,0.9,0.2
			c0.3,0,0.5-0.1,0.8-0.2L390.1,410.6z"/>
		<path class="st10" d="M397.9,411.4c-0.2,0.3-0.5,0.5-0.8,0.7c-0.3,0.1-0.7,0.2-1.1,0.2c-0.6,0-1.1-0.2-1.5-0.5
			c-0.4-0.4-0.6-0.9-0.6-1.5c0-0.4,0.1-0.8,0.4-1.1c0.3-0.3,0.7-0.6,1.1-0.8c-0.2-0.3-0.4-0.5-0.5-0.8s-0.2-0.5-0.2-0.7
			c0-0.5,0.2-0.9,0.5-1.2c0.3-0.3,0.7-0.4,1.2-0.4s0.9,0.1,1.2,0.4c0.3,0.3,0.5,0.7,0.5,1.2c0,0.4-0.1,0.7-0.3,1
			c-0.2,0.3-0.5,0.5-0.9,0.7l1.1,1.3c0-0.1,0.1-0.3,0.1-0.4s0.1-0.3,0.1-0.5h1c0,0.3-0.1,0.6-0.2,0.9c-0.1,0.3-0.2,0.5-0.3,0.8
			l1.3,1.6h-1.3L397.9,411.4z M396,409c0,0-0.1,0.1-0.2,0.1c-0.3,0.1-0.5,0.3-0.6,0.5c-0.1,0.2-0.2,0.4-0.2,0.7
			c0,0.4,0.1,0.6,0.3,0.8c0.2,0.2,0.5,0.3,0.8,0.3c0.3,0,0.6-0.1,0.7-0.2c0.2-0.1,0.3-0.3,0.5-0.5l0.1-0.1L396,409z M395.9,406.2
			c-0.1,0.1-0.2,0.3-0.2,0.5c0,0.2,0,0.3,0.1,0.4s0.2,0.3,0.3,0.5c0.1,0.1,0.1,0.2,0.2,0.2c0.3-0.2,0.5-0.3,0.6-0.5
			c0.1-0.2,0.2-0.4,0.2-0.6c0-0.2-0.1-0.4-0.2-0.6c-0.1-0.1-0.3-0.2-0.5-0.2C396.3,406,396.1,406.1,395.9,406.2z"/>
		<path class="st10" d="M402.3,405.3h1.3l2.6,6.8h-1.3l-0.6-1.8h-2.7l-0.6,1.8h-1.2L402.3,405.3z M401.9,409.4h2.1l-1-2.9h0
			L401.9,409.4z"/>
	</g>
	<circle class="st10" cx="403.7" cy="424.1" r="1.2"/>
	<circle class="st10" cx="408.6" cy="424.1" r="1.2"/>
	<circle class="st10" cx="413.5" cy="424.1" r="1.2"/>
</g>
<g>
	<g id="XMLID_00000065040929757159098300000000163041271047450278_">
		<path id="XMLID_00000136394792136025405590000008537532971371724217_" class="st10" d="M390.9,368.8c-0.3,0-0.5-0.1-0.7-0.4
			l-2.4-4.4c-0.2-0.4-0.1-0.8,0.3-1c0.4-0.2,0.8-0.1,1,0.3l2.4,4.4c0.2,0.4,0.1,0.8-0.3,1C391.1,368.7,391,368.8,390.9,368.8z"/>
		<path id="XMLID_00000078732686435191831920000012271405290208469889_" class="st10" d="M398.2,379.9h-13.6c-0.4,0-0.7-0.3-0.7-0.7
			v-3.6c0-0.4,0.3-0.7,0.7-0.7h13.6c0.4,0,0.7,0.3,0.7,0.7v3.6C398.9,379.5,398.6,379.9,398.2,379.9z M385.3,378.4h12.1v-2.2h-12.1
			V378.4z"/>
		<path id="XMLID_00000036967127169835940440000005773793253767453851_" class="st10" d="M396.4,375.1c0.3-0.3,0.4-0.7,0.5-1.2
			c0.5-3.5-3.6-9.8-5.2-11.9c-0.5-0.8-1.3-1-2-0.6c-0.7,0.4-0.9,1.3-0.5,2c0.2,0.4,0.1,0.8-0.3,1c-0.4,0.2-0.8,0.1-1-0.3l-0.6-1.1
			c-0.3-0.3-0.6-1.3,0-2.3l4.2-7.9c0.4-0.7,0.2-1.6-0.5-2c-0.3-0.2-0.7-0.2-1.1-0.1c-0.4,0.1-0.7,0.3-0.9,0.7l-4.2,7.9
			c-1.6,2.7-0.1,5.1,0,5.2c0.1,0.2,2.6,6.3,3.7,8c0.6,1,0.4,2.1-0.1,2.9c-0.4,0.7-2,0.2-1.8-0.1c0.5-0.5,1-1.3,0.6-2
			c-1.1-1.8-3.6-7.8-3.7-8.1c0,0-2-3.2,0-6.6l4.2-7.9c0.4-0.7,1-1.2,1.8-1.4c0.8-0.2,1.5-0.1,2.2,0.3c1.4,0.8,1.9,2.6,1.1,4
			l-3.5,6.5c1.3-0.6,2.9-0.1,3.7,1.2c0.2,0.3,6.2,8.2,5.5,13c-0.1,0.4-0.2,0.8-0.3,1.1C397.8,375.9,396.3,375.3,396.4,375.1z"/>
	</g>
	<g id="XMLID_00000052799079076842500570000012140190984101619621_">
		<path id="XMLID_00000096770263618525199490000014922148418075371185_" class="st10" d="M412.9,368.8c0.3,0,0.5-0.1,0.7-0.4
			l2.4-4.4c0.2-0.4,0.1-0.8-0.3-1c-0.4-0.2-0.8-0.1-1,0.3l-2.4,4.4c-0.2,0.4-0.1,0.8,0.3,1C412.6,368.7,412.7,368.8,412.9,368.8z"/>
		<path id="XMLID_00000078041379365663993510000015099848857315994502_" class="st10" d="M404.8,379.1v-3.6c0-0.4,0.3-0.7,0.7-0.7
			h13.6c0.4,0,0.7,0.3,0.7,0.7v3.6c0,0.4-0.3,0.7-0.7,0.7h-13.6C405.1,379.9,404.8,379.5,404.8,379.1z M418.4,376.2h-12.1v2.2h12.1
			V376.2z"/>
		<path id="XMLID_00000034805094495003404710000007853806326628568762_" class="st10" d="M407.3,375.1c-0.3-0.3-0.4-0.7-0.5-1.2
			c-0.5-3.5,3.6-9.8,5.2-11.9c0.5-0.8,1.3-1,2-0.6c0.7,0.4,0.9,1.3,0.5,2c-0.2,0.4-0.1,0.8,0.3,1c0.4,0.2,0.8,0.1,1-0.3l0.6-1.1
			c0.3-0.3,0.6-1.3,0-2.3l-4.2-7.9c-0.4-0.7-0.2-1.6,0.5-2c0.3-0.2,0.7-0.2,1.1-0.1c0.4,0.1,0.7,0.3,0.9,0.7l4.2,7.9
			c1.6,2.7,0.1,5.1,0,5.2c-0.1,0.2-2.6,6.3-3.7,8c-0.6,1-0.4,2.1,0.1,2.9c0.4,0.7,2,0.2,1.8-0.1c-0.5-0.5-1-1.3-0.6-2
			c1.1-1.8,3.6-7.8,3.7-8.1c0,0,2-3.2,0-6.6l-4.2-7.9c-0.4-0.7-1-1.2-1.8-1.4c-0.8-0.2-1.5-0.1-2.2,0.3c-1.4,0.8-1.9,2.6-1.1,4
			l3.5,6.5c-1.3-0.6-2.9-0.1-3.7,1.2c-0.2,0.3-6.2,8.2-5.5,13c0.1,0.4,0.2,0.8,0.3,1.1C406,375.9,407.5,375.3,407.3,375.1z"/>
	</g>
</g>
<g id="XMLID_00000029763967406044226650000006909880858356535216_">
	<path id="XMLID_00000025432953534916832980000012860376661215700666_" class="st10" d="M401.9,366.6c-0.2,0-0.4-0.1-0.5-0.2
		c-0.5-0.5-5.1-4.7-6-6.3c-1.1-1.9-0.5-4.4,1.5-5.6c0.9-0.5,2-0.7,3.1-0.4c0.8,0.2,1.4,0.6,1.9,1.2c0.5-0.6,1.2-1,1.9-1.2
		c1.1-0.3,2.1-0.1,3.1,0.4c0.9,0.5,1.6,1.4,1.9,2.5c0.3,1,0.1,2.1-0.4,3.1c-0.9,1.6-5.5,5.9-6,6.3
		C402.2,366.5,402,366.6,401.9,366.6z M398.8,355.5c-0.4,0-0.9,0.1-1.3,0.3c-1.2,0.7-1.7,2.3-0.9,3.5c0.6,1.1,3.6,4,5.2,5.5
		c1.6-1.5,4.6-4.4,5.2-5.5c0.3-0.6,0.4-1.3,0.3-2c-0.2-0.7-0.6-1.2-1.2-1.6c-0.6-0.3-1.3-0.4-2-0.3c-0.7,0.2-1.2,0.6-1.6,1.2
		c-0.1,0.3-0.4,0.5-0.7,0.5c-0.3,0-0.6-0.1-0.7-0.4C400.6,356,399.8,355.5,398.8,355.5z"/>
</g>
<g>
	<path class="st10" d="M417.9,309.7c-0.1,0-0.7-0.3-1.9-0.6v-0.2c0-0.3-0.2-0.6-0.5-0.7c-0.1,0-1.6-0.7-4-1.1v-4.5
		c0-0.4-0.3-0.7-0.7-0.7c-6.3-0.5-10.1,4.5-11.1,6.1c-1.8-0.6-3.6-1-5.5-1.1c0.3,0.5,0.5,1,0.7,1.6c1.5,0.2,3,0.5,4.4,0.9V328
		c-2.2-0.7-4.6-1-6.9-1c-3.1,0-5.5,0.6-6.8,1v-9.8c-0.5-0.1-1-0.3-1.5-0.5v11.4c0,0.3,0.1,0.5,0.3,0.6c0.2,0.1,0.5,0.2,0.7,0.1
		c0,0,3-1.3,7.3-1.3c2.5,0,5,0.4,7.4,1.3c0,0,0,0,0,0c0,0,0,0,0,0c0,0,0,0,0,0c0.1,0,0.2,0,0.2,0c0.1,0,0.2,0,0.2,0c0,0,0,0,0,0
		c2.4-0.8,4.9-1.3,7.4-1.3c4.3,0,7.2,1.2,7.3,1.3c0.2,0.1,0.5,0.1,0.7-0.1c0.2-0.1,0.3-0.4,0.3-0.6v-18.5c0.4,0.1,0.6,0.2,0.9,0.3
		v20.2c-1.6-0.7-5-1.8-9.3-1.8c-1.7,0-3.5,0.2-5.1,0.5c-0.3,0.1-0.5,0.3-0.6,0.6c-0.1,0.5-0.8,1-1.8,1c-1,0-1.8-0.5-1.8-1
		c0-0.3-0.3-0.6-0.6-0.6c-1.7-0.4-3.4-0.5-5.1-0.5c-4.3,0-7.7,1.1-9.3,1.8v-13.9c-0.6-0.4-1.1-0.8-1.5-1.3v16.3
		c0,0.3,0.1,0.5,0.4,0.6c0.2,0.1,0.5,0.1,0.7,0c0,0,4-2.1,9.7-2.1c1.5,0,2.9,0.1,4.4,0.4c0.4,1,1.7,1.7,3.2,1.7
		c1.5,0,2.7-0.7,3.2-1.7c1.4-0.3,2.9-0.4,4.4-0.4c5.6,0,9.7,2.1,9.7,2.1c0.2,0.1,0.5,0.1,0.7,0c0.2-0.1,0.4-0.4,0.4-0.6v-21.9
		C418.3,310,418.2,309.8,417.9,309.7z M400.8,309.1c0.6-0.9,3.8-5.8,9.2-5.8c0,0,0.1,0,0.1,0v18.8c-4.2,0.4-7.5,3.2-9.2,5V309.1z
		 M414.5,328c-1.3-0.4-3.7-1-6.8-1c-1.8,0-3.6,0.2-5.3,0.6c1.8-1.7,4.8-4,8.4-4.1c0.4,0,0.7-0.3,0.7-0.8v-14.1
		c1.4,0.2,2.4,0.6,3,0.8V328z"/>
	<path class="st10" d="M393.3,310.5c0-0.3,0-0.6-0.1-1c-0.5-2.9-3.1-5-6.2-4.8c-3.1,0.2-5.6,2.8-5.6,5.9c0,3.3,2.6,6.1,6,6.1
		c2.3,0,4.2-1.3,5.3-3.1c0.1-0.2,0-0.5-0.3-0.5c-0.3,0-1.3,0-1.3,0c-0.1,0-0.2,0.1-0.3,0.2c-0.8,1-2,1.7-3.4,1.7
		c-1.5,0-2.8-0.7-3.5-1.9c-0.3-0.5-0.6-1.1-0.6-1.7c0,0,0,0,0,0c0,0,8.8,0,9.4,0C393.2,311.2,393.4,310.9,393.3,310.5z M383.3,309.5
		c0.5-1.8,2.1-3.1,4-3.1s3.6,1.3,4,3.1H383.3z"/>
</g>
<g>
	<g>
		<path class="st10" d="M391.3,280.8h-4.2c-1.5,0-3-1.2-3.5-2.8l-0.1-0.5c-0.1-0.4,0.1-0.8,0.5-0.8h8.8c0.4,0,0.8,0.3,0.8,0.8
			l0.1,0.5C393.8,279.6,392.8,280.8,391.3,280.8z M385.1,278.2c0.3,0.7,1,1.2,1.6,1.2h4.3c0.7,0,1.2-0.5,1.2-1.2H385.1z"/>
		<path class="st10" d="M402.1,280.8h-4.2c-1.5,0-2.8-1.2-2.9-2.8l0-0.5c0-0.4,0.3-0.8,0.7-0.8h8.8c0.4,0,0.7,0.3,0.7,0.8l0,0.5
			C404.9,279.6,403.6,280.8,402.1,280.8z M396.4,278.2c0.1,0.7,0.7,1.2,1.4,1.2h4.3c0.7,0,1.3-0.5,1.4-1.2H396.4z"/>
		<path class="st10" d="M412.9,280.8h-4.2c-1.5,0-2.5-1.2-2.4-2.8l0.1-0.5c0-0.4,0.4-0.8,0.8-0.8h8.8c0.4,0,0.6,0.3,0.5,0.8
			l-0.1,0.5C415.9,279.6,414.3,280.8,412.9,280.8z M407.7,278.2c0,0.7,0.5,1.2,1.2,1.2h4.3c0.7,0,1.4-0.5,1.6-1.2H407.7z"/>
	</g>
	<g>
		<path class="st10" d="M415.6,275.1h-31.5c-1.1,0-2.1-0.4-2.7-1.2c-0.7-0.8-1-2-0.7-3.2l2.8-14.6c0.3-1.7,2-3,3.9-3h25
			c1.9,0,3.6,1.3,3.9,3l2.8,14.6c0.2,1.2,0,2.3-0.7,3.2C417.7,274.7,416.7,275.1,415.6,275.1z M387.3,254.7c-1.1,0-2.2,0.8-2.3,1.7
			l-2.8,14.6c-0.1,0.7,0,1.4,0.4,1.8c0.4,0.4,0.9,0.7,1.5,0.7h31.5c0.6,0,1.2-0.2,1.5-0.7c0.4-0.5,0.5-1.1,0.4-1.8l-2.8-14.6
			c-0.2-0.9-1.2-1.7-2.3-1.7H387.3z"/>
		<g>
			<path class="st10" d="M397,263h-9c-0.5,0-0.9-0.2-1.2-0.5c-0.3-0.3-0.4-0.8-0.3-1.2l0.5-3.4c0.1-0.8,0.9-1.4,1.7-1.4h8.4
				c0.4,0,0.8,0.2,1.1,0.5c0.3,0.3,0.4,0.7,0.4,1.1l-0.1,3.4C398.6,262.3,397.9,263,397,263z M388.1,261.4h8.8c0,0,0,0,0,0l0.1-3.3
				l-8.4,0c0,0-0.1,0-0.1,0.1L388.1,261.4z"/>
			<path class="st10" d="M411.7,263h-9c-0.9,0-1.6-0.7-1.6-1.6L401,258c0-0.4,0.1-0.8,0.4-1.1c0.3-0.3,0.7-0.5,1.1-0.5h8.4
				c0.8,0,1.6,0.6,1.7,1.4l0.5,3.4c0.1,0.4-0.1,0.9-0.3,1.2C412.6,262.8,412.2,263,411.7,263z M402.6,258l0.1,3.3l8.9,0l-0.5-3.3
				c0,0,0,0-0.1,0H402.6z"/>
		</g>
		<path class="st10" d="M391.9,271.9h-5.3c-0.5,0-0.9-0.2-1.2-0.5c-0.3-0.4-0.4-0.8-0.4-1.3l0.6-4c0.1-0.8,0.9-1.5,1.8-1.5h5
			c0.5,0,0.9,0.2,1.2,0.5c0.3,0.3,0.4,0.7,0.4,1.2l-0.3,4C393.6,271.2,392.9,271.9,391.9,271.9z M392.4,266.2l-5,0
			c-0.1,0-0.2,0.1-0.2,0.2l-0.6,4l5.3,0c0.1,0,0.2-0.1,0.2-0.2L392.4,266.2z"/>
		<path class="st10" d="M402.5,271.9h-5.3c-0.5,0-0.9-0.2-1.2-0.5c-0.3-0.3-0.5-0.8-0.5-1.2l0.2-4c0-0.9,0.8-1.6,1.7-1.6h5
			c0.9,0,1.7,0.7,1.7,1.6l0.2,4c0,0.5-0.1,0.9-0.5,1.2C403.4,271.7,403,271.9,402.5,271.9z M397.4,266.2
			C397.3,266.2,397.3,266.2,397.4,266.2l-0.2,4l0.1,0.1h5.3c0,0,0,0,0.1,0l-0.1-4c0,0,0-0.1-0.1-0.1H397.4z"/>
		<path class="st10" d="M413.1,271.9h-5.3c-0.9,0-1.7-0.7-1.8-1.7l-0.3-4c0-0.4,0.1-0.9,0.4-1.2c0.3-0.3,0.7-0.5,1.2-0.5h5
			c0.9,0,1.7,0.7,1.8,1.5l0.6,4c0.1,0.5-0.1,1-0.4,1.3C414,271.7,413.6,271.9,413.1,271.9z M407.3,266.2l0.3,3.9
			c0,0.1,0.1,0.2,0.2,0.2h5.3c0,0,0,0,0,0l-0.6-4c0-0.1-0.1-0.2-0.2-0.2H407.3z"/>
	</g>
	<path class="st10" d="M416,278.2h-32.3c-1.7,0-3.2-1.4-3.2-3.2v-3.3h1.6v3.3c0,0.9,0.7,1.6,1.6,1.6H416c0.9,0,1.6-0.7,1.6-1.6v-3.3
		h1.6v3.3C419.2,276.8,417.8,278.2,416,278.2z"/>
</g>
<g id="그룹_702" transform="translate(0 1.5)">
	<line id="선_13" class="st14" x1="469.6" y1="260.8" x2="489.6" y2="260.8"/>
	<line id="선_14" class="st14" x1="469.6" y1="268.8" x2="489.6" y2="268.8"/>
	<line id="선_15" class="st14" x1="469.6" y1="276.8" x2="489.6" y2="276.8"/>
</g>
<path id="돋보기" class="st15" d="M487.3,331.1c-0.7,1-2.1,1.2-3.1,0.5l-8-6.4c-0.1-0.1-0.1-0.1-0.2-0.2
	c-4.3,3.3-10.4,2.6-13.8-1.7c-3.3-4.3-2.6-10.4,1.7-13.8s10.4-2.6,13.8,1.7c2.3,2.9,2.7,6.8,1.2,10.1c0.1,0.1,0.2,0.1,0.3,0.2l8,6.4
	C488,328.8,488.1,330.2,487.3,331.1z M474.3,311.8c-3.1-2.5-7.5-2-10,1.1c-2.5,3.1-2,7.5,1.1,10c3.1,2.5,7.5,2,10-1.1
	C477.9,318.7,477.4,314.2,474.3,311.8C474.3,311.8,474.3,311.8,474.3,311.8z"/>
<line id="선_19" class="st14" x1="470.8" y1="237.5" x2="488.3" y2="220"/>
<line id="선_20" class="st14" x1="470.8" y1="220" x2="488.3" y2="237.5"/>
<g>
	<defs>
		<rect id="SVGID_1_" x="405.5" y="173.6" width="108" height="135.1"/>
	</defs>
	<clipPath id="SVGID_00000048483020392678969530000016797328574218383234_">
		<use xlink:href="#SVGID_1_"  style="overflow:visible;"/>
	</clipPath>
</g>
</svg>
