<?xml version="1.0" encoding="utf-8"?>
<!-- Generator: Adobe Illustrator 27.0.0, SVG Export Plug-In . SVG Version: 6.00 Build 0)  -->
<svg version="1.1" id="레이어_1" xmlns="http://www.w3.org/2000/svg" xmlns:xlink="http://www.w3.org/1999/xlink" x="0px"
	 y="0px" viewBox="0 0 512 512" style="enable-background:new 0 0 512 512;" xml:space="preserve">
<style type="text/css">
	.st0{fill:#FFFFFF;}
</style>
<path id="신청서작성-2" class="st0" d="M355.4,431.5h-58.2l18.4-14.3h25.5v-20l14.3-11.2V431.5L355.4,431.5L355.4,431.5z
	 M235.4,431.5H76v-351h279.4v0.6l-14.3,27.7V94.8H90.3v322.3h145.8l-0.7,14L235.4,431.5L235.4,431.5z M284.8,311.3l50.7,23.7
	l-62.4,65.5L284.8,311.3z M239.5,388.5H117.2v-14.3h123.1L239.5,388.5L239.5,388.5L239.5,388.5z M241.8,347.3H117.2V333h125.4
	L241.8,347.3C241.8,347.3,241.8,347.3,241.8,347.3z M290.7,298.6l94.6-202.8l50.7,23.7l-94.6,202.8L290.7,298.6z M248.8,304.4H117.2
	V290h138.6L248.8,304.4L248.8,304.4z M269.8,263.2H117.2v-14.3h159.6L269.8,263.2L269.8,263.2z M290.8,220.2H117.2v-14.3h180.7
	L290.8,220.2L290.8,220.2L290.8,220.2z M307.9,179H117.2v-14.3h197v1.2L307.9,179L307.9,179L307.9,179z M314.2,137.8h-197v-14.3h197
	L314.2,137.8L314.2,137.8L314.2,137.8z"/>
</svg>
