<?xml version="1.0" encoding="utf-8"?>
<!-- Generator: Adobe Illustrator 27.0.0, SVG Export Plug-In . SVG Version: 6.00 Build 0)  -->
<svg version="1.1" id="레이어_1" xmlns="http://www.w3.org/2000/svg" xmlns:xlink="http://www.w3.org/1999/xlink" x="0px"
	 y="0px" viewBox="0 0 512 512" style="enable-background:new 0 0 512 512;" xml:space="preserve">
<style type="text/css">
	.st0{clip-path:url(#SVGID_00000052074574889974369010000008284869428932333724_);}
	.st1{fill:#ED8D7F;}
	.st2{fill:#361700;}
	.st3{fill:#D7AA81;}
	.st4{opacity:0.4;}
	.st5{clip-path:url(#SVGID_00000019659028665048086710000008812849929258383290_);}
	.st6{opacity:0.5;}
	.st7{clip-path:url(#SVGID_00000021806880480643153310000001987544592168235164_);}
	.st8{clip-path:url(#SVGID_00000067228864179040359600000007888860978881656975_);}
	.st9{clip-path:url(#SVGID_00000178187649807021734140000014033511627575457164_);}
	.st10{fill:#FFFFFF;}
	.st11{clip-path:url(#SVGID_00000006684968549823741270000012973966515029147019_);}
	.st12{fill:#D1E0ED;}
	.st13{fill:#D54847;}
	.st14{clip-path:url(#SVGID_00000086692087275672001090000008126327826310508695_);}
	.st15{fill:#BBBFC7;}
	.st16{clip-path:url(#SVGID_00000072990356171523215790000005242602317642171549_);}
	.st17{fill:#FFB69D;}
	.st18{opacity:0.8;}
	.st19{clip-path:url(#SVGID_00000103944659513661790550000017606917965288815505_);}
	.st20{fill:#FFC4B4;}
	.st21{clip-path:url(#SVGID_00000127027421481844477130000011085888603715714998_);}
	.st22{fill:#231F20;}
	.st23{clip-path:url(#SVGID_00000026873661394446825800000001461561911715420059_);}
	.st24{fill:#B54F41;}
	.st25{clip-path:url(#SVGID_00000158031158752860339540000017609792726420842885_);}
	.st26{fill:#FF9297;}
	.st27{clip-path:url(#SVGID_00000129913206367358396960000013568005667715138957_);}
	.st28{fill:#815B4E;}
	.st29{clip-path:url(#SVGID_00000061449501055473501080000008572925531396803721_);}
	.st30{clip-path:url(#SVGID_00000153664805765950820920000009700198140942680478_);}
	.st31{fill:#B53D34;}
	.st32{opacity:0.7;}
	.st33{clip-path:url(#SVGID_00000114061043928219261600000013463972489261229744_);}
	.st34{clip-path:url(#SVGID_00000001628972388085610520000003462819528626901122_);}
	.st35{clip-path:url(#SVGID_00000082358063838559291020000013119051351672100508_);}
	.st36{clip-path:url(#SVGID_00000003107120380399873240000003800233428158155705_);}
	.st37{clip-path:url(#SVGID_00000060752759984663610580000014711774349901396864_);}
	.st38{fill:#71A42F;}
	.st39{fill:#F5C49F;}
	.st40{opacity:0.6;}
	.st41{clip-path:url(#SVGID_00000116913461011917953980000000101805670332048282_);}
	.st42{clip-path:url(#SVGID_00000170278525679029109380000000362191582665442988_);}
	.st43{clip-path:url(#SVGID_00000054949152275379181210000003427768948194918830_);}
	.st44{clip-path:url(#SVGID_00000160167144090047911750000017995371227654467489_);}
	.st45{clip-path:url(#SVGID_00000153668279651420977910000018005608580256592776_);}
	.st46{clip-path:url(#SVGID_00000132081225088888427520000004723520068860284067_);}
	.st47{fill:#C4926E;}
	.st48{opacity:0.3;}
	.st49{clip-path:url(#SVGID_00000022551568631459487840000011510078606542813578_);}
	.st50{clip-path:url(#SVGID_00000164510516458432432380000015458441400348310677_);}
	.st51{clip-path:url(#SVGID_00000065066172155825008790000011828814684311735944_);}
	.st52{clip-path:url(#SVGID_00000052103389181061931430000003305365612290473351_);}
	.st53{fill:#7B7471;}
	.st54{clip-path:url(#SVGID_00000040573021717006885120000000345068982780586400_);}
	.st55{clip-path:url(#SVGID_00000168090792585256938110000005474679808782932925_);}
	.st56{clip-path:url(#SVGID_00000041280852685633412180000014295713069095753404_);}
	.st57{clip-path:url(#SVGID_00000080919028498647732180000004342643066042857370_);}
	.st58{clip-path:url(#SVGID_00000117669485233120710560000012526790924858936992_);}
	.st59{clip-path:url(#SVGID_00000155116301751462162410000000968681340278154914_);}
	.st60{clip-path:url(#SVGID_00000060016176651614771950000006654493231303852476_);}
	.st61{fill:#B0AEBA;}
	.st62{clip-path:url(#SVGID_00000106857339282732528530000010888398856559763893_);}
	.st63{clip-path:url(#SVGID_00000091736093665068245940000005269259431780980899_);}
	.st64{clip-path:url(#SVGID_00000057143623830262445680000008666984593133398918_);}
	.st65{clip-path:url(#SVGID_00000056425865844613454510000013365537088678737338_);}
	.st66{clip-path:url(#SVGID_00000147903315539427805640000012892140149946415290_);}
	.st67{clip-path:url(#SVGID_00000058577942950404929420000009302477779817313939_);}
	.st68{clip-path:url(#SVGID_00000149372242589004614760000000441466156118255746_);}
	.st69{clip-path:url(#SVGID_00000180354638090851813880000017923269781717255586_);}
	.st70{fill:#08ADD2;}
	.st71{clip-path:url(#SVGID_00000166662892900411069180000010479158278631558556_);}
	.st72{clip-path:url(#SVGID_00000036932357800656227120000000186105687332288940_);}
	.st73{clip-path:url(#SVGID_00000026125049280144865850000009442054328158565821_);}
	.st74{fill:#E2D4C5;}
	.st75{clip-path:url(#SVGID_00000150060860942363196830000004679456018370929595_);}
	.st76{clip-path:url(#SVGID_00000052790771633284954740000011047412139795669682_);}
	.st77{clip-path:url(#SVGID_00000054263165838347708650000013679513001836151712_);}
	.st78{fill:#F9EEE4;}
	.st79{clip-path:url(#SVGID_00000008107884078223139070000006241018643860336273_);}
	.st80{fill:#F8EBDB;}
	.st81{clip-path:url(#SVGID_00000064346771420508746400000016561186596796783755_);}
	.st82{clip-path:url(#SVGID_00000060000418675909193710000013695015743877677484_);}
	.st83{clip-path:url(#SVGID_00000048499774311870339490000008503994312449420463_);}
	.st84{clip-path:url(#SVGID_00000165922795516217043910000009635757214964155322_);}
	.st85{clip-path:url(#SVGID_00000029021951841828497610000000087940517478337192_);}
	.st86{clip-path:url(#SVGID_00000122707453720170144110000003212030415089991072_);}
	.st87{clip-path:url(#SVGID_00000061429841324069037360000015380898689474782362_);}
	.st88{clip-path:url(#SVGID_00000052066862587889293620000013888279873920490643_);}
	.st89{clip-path:url(#SVGID_00000044149040579448143980000011765533469351018911_);}
	.st90{fill:#EFB86D;}
	.st91{fill:#55A5AF;}
	.st92{fill:#F39193;}
	.st93{fill:#FE7676;}
	.st94{fill:#151824;}
	.st95{font-family:'NanumSquareOTFEB-KSCpc-EUC-H';}
	.st96{font-size:18px;}
</style>
<g id="그룹_358" transform="translate(12.025 -0.001)">
	<g>
		<defs>
			<rect id="SVGID_1_" x="40" y="79.8" width="399.7" height="333.9"/>
		</defs>
		<clipPath id="SVGID_00000148647420018108076990000003327317840500430479_">
			<use xlink:href="#SVGID_1_"  style="overflow:visible;"/>
		</clipPath>
		<g id="그룹_357" style="clip-path:url(#SVGID_00000148647420018108076990000003327317840500430479_);">
			<path id="패스_303" class="st1" d="M210.3,186.2c0.7-0.1,1.4-0.4,1.7-1c2.1-3.1,4.6-6,7.4-8.5c3.1-2.6,0.2-2.8-1.5-1.6
				c-1.7,1.3-5.8,5-7.6,6.6c-1.7,1.6-5.2,0.7-5.2,0.7L210.3,186.2z"/>
			<path id="패스_304" class="st1" d="M124,138.8c-0.3-0.7-0.2-1.4,0.2-2c1.9-3.6,3.5-7.4,4.7-11.3c1-3.9,2.4-1.4,2.2,0.8
				c-0.4,3.2-2.3,8.2-3,10.5c-0.7,2.3,1.6,5,1.6,5L124,138.8z"/>
			<path id="패스_305" class="st1" d="M196,198.8c-1.1-2.1-2.3-4.1-3.6-6c-1.5-2.1-1.7-5.7,2.2-7c3.8-1.3,10.6-3.5,10.6-3.5
				l5.5,3.7l-8.3,5.9l1.7,4.1L196,198.8z"/>
			<path id="패스_306" class="st1" d="M130.9,164.1l3-4.5c0,0,5.3-3-1.5-12.7l-3.9-8.8l-4.4,0.1l1.6,17.3l-3.3,3.1L130.9,164.1z"
				/>
			<path id="패스_307" class="st1" d="M174.9,210.7c0,0,1.3-1.5,2.7,0.6c1.4,2-1.7,11.2-7.8,10.6
				C169.8,221.9,172.8,215.6,174.9,210.7"/>
			<path id="패스_308" class="st2" d="M181,194.4c0,0,2.4,1.9,2.3,7.1s-3.1,8.6-6.6,9.5l-3.2,5.4l1.4-8c0,0,3.6-2.6,2.4-11.7
				c0,0,0.7,6.9-3.8,9.7c-4.5,2.8-0.4,0.1-0.4,0.1c-2.2-1.9-4.8-3.3-7.6-4.2c0,0,4-2,3.1-9.8c0,0-0.4,6.7-6.4,8.4
				c-1.8-0.9-3.8-1.5-5.9-1.6c4,0.1,7.6-2.5,8.7-6.3c0,0-4,5.4-15.9,6.7c0,0-0.1-6.4,8.6-9.4c-5.6,2-10.2,6-12.9,11.3l-1.6,6.7
				l-1.9,0.3l0.4-7.9l-2.7-0.7c0,0-0.1-10.4,4.6-13.3c4.7-2.9,14.2-7,22.7-5.5c8.5,1.5,9.7,7.3,9.7,7.3S180.6,188.2,181,194.4"/>
			<path id="패스_309" class="st3" d="M138,331.7l-4.6,24.1l-0.8,4.2l-0.3,1.5l-4.4,6.7c-2.2,2.2-3.7,4.9-4.4,7.9
				c-2.6,13.6-9.4,41-10.9,48.8c-2,10.5-7.4,25.1-17.6,83l-17.7,0.8c0,0,5.1-54.1,13.2-81.5l0.2-1.6l0-0.4l6.6-68.8l0.1-0.7l2.3-8.3
				l6.1-21.6l25.6,4.7L138,331.7z"/>
			<path id="패스_310" class="st3" d="M124.4,331.7l2.3,18.3l4.2,18.3c0,0-1.4,46.2-1.7,56.6c-0.3,10.5,1.8,25-0.8,83l17.9,0.8
				c0,0,7-54.1,5-81.6l9.2-71.4l-1.9-29.9L124.4,331.7z"/>
			<g id="그룹_218" transform="translate(40.138 304.423)" class="st4">
				<g id="그룹_217">
					<g>
						<defs>
							<rect id="SVGID_00000161633824168310441520000008711422492282645390_" x="40" y="79.8" width="32" height="98.5"/>
						</defs>
						<clipPath id="SVGID_00000006682152354824905340000000503697081997553281_">
							<use xlink:href="#SVGID_00000161633824168310441520000008711422492282645390_"  style="overflow:visible;"/>
						</clipPath>
						<g id="그룹_216" style="clip-path:url(#SVGID_00000006682152354824905340000000503697081997553281_);">
							<path id="패스_311" class="st3" d="M65.8,124.6c-0.2,0-0.4,0.1-0.6,0.1c-3.2,0.6-6.1-0.9-7.2-4.1c-0.5-1.4-0.8-2.9-1.2-4.4
								c-0.5-1.3-0.9-2.7-1.2-4.1c-0.8-4.7-1-9.4-0.7-14.1c0-3.8,0.1-7.6,0.3-11.4c-0.3-2.3-0.6-4.6-0.8-6.9l-3.9,40.9l0,0.4
								l-0.2,1.6c-4.4,15-7.9,37.9-10.2,55.6c1.8-5.4,4-10.7,5.5-15.2c2.3-7.1,5-13.9,9.9-19.7c4.6-5.4,10.3-9.5,15.1-14.6
								c0.6-2.5,1.1-4.6,1.6-6.5C70.6,124.4,68.1,125.2,65.8,124.6"/>
						</g>
					</g>
				</g>
			</g>
			<g id="그룹_221" transform="translate(57.164 245.938)" class="st6">
				<g id="그룹_220">
					<g>
						<defs>
							<rect id="SVGID_00000073690637742880880300000002201286755596729268_" x="40" y="79.8" width="63.2" height="35.4"/>
						</defs>
						<clipPath id="SVGID_00000179635708532652610340000006107680038419309711_">
							<use xlink:href="#SVGID_00000073690637742880880300000002201286755596729268_"  style="overflow:visible;"/>
						</clipPath>
						<g id="그룹_219" style="clip-path:url(#SVGID_00000179635708532652610340000006107680038419309711_);">
							<path id="패스_312" class="st3" d="M103.2,109.7l-0.6,4.4c-8.7,0.4-17.1,3.2-24.5-2.1c-0.7-0.5-1.2-1.5-2-2.2
								c-1-1-2.5-1.5-5.5,0.1c-4.3,2.3-9.3,2.7-13.9,1.1c-4.3-1.5-12-1.3-16.8-0.7l0.1-0.7l2.3-8.3l6.1-21.6l25.6,4.7l27.2-4.7
								L103.2,109.7z"/>
						</g>
					</g>
				</g>
			</g>
			<g id="그룹_224" transform="translate(108.328 328.759)" class="st4">
				<g id="그룹_223">
					<g>
						<defs>
							<rect id="SVGID_00000102523903894263170920000012132810522682554254_" x="40" y="79.8" width="5.2" height="34.1"/>
						</defs>
						<clipPath id="SVGID_00000005264718657229299550000015408677016409541037_">
							<use xlink:href="#SVGID_00000102523903894263170920000012132810522682554254_"  style="overflow:visible;"/>
						</clipPath>
						<g id="그룹_222" style="clip-path:url(#SVGID_00000005264718657229299550000015408677016409541037_);">
							<path id="패스_313" class="st3" d="M43.2,113.9c0.1-5.7,0-11-0.3-15.6l2.4-18.5c-1,4.3-2.8,8.3-5.2,12
								C39.8,99.2,42,106.5,43.2,113.9"/>
						</g>
					</g>
				</g>
			</g>
			<g id="그룹_227" transform="translate(88.27 286.318)" class="st4">
				<g id="그룹_226">
					<g>
						<defs>
							<rect id="SVGID_00000044159688596228655860000016496906021926401436_" x="40" y="79.8" width="9.4" height="142.2"/>
						</defs>
						<clipPath id="SVGID_00000114768222452463107460000018231595223575089578_">
							<use xlink:href="#SVGID_00000044159688596228655860000016496906021926401436_"  style="overflow:visible;"/>
						</clipPath>
						<g id="그룹_225" style="clip-path:url(#SVGID_00000114768222452463107460000018231595223575089578_);">
							<path id="패스_314" class="st3" d="M49.5,222c-0.2-0.3-0.4-0.6-0.5-1c-10.6-27-3.5-55.3-3-83.3c0-0.7,0.2-1.4,0.4-2
								c-3.1-6.8-2.7-14-2.4-21.4c0.4-11.4,0.1-22.8,0.1-34.1c-0.2-0.1-0.3-0.2-0.5-0.3c-0.5,0-1,0-1.5,0l0.5,2.2
								c0,0-1.4,46.2-1.7,56.6s1.8,25-0.8,83L49.5,222z"/>
						</g>
					</g>
				</g>
			</g>
			<path id="패스_315" class="st10" d="M139.6,233.9l-7.1,1.9l-2,14.2l14.7,31.9l18.4-25.4l0.1-14.4l-4.8-4.5l-9.2,1L139.6,233.9z
				"/>
			<g id="그룹_230" transform="translate(90.477 154.531)">
				<g id="그룹_229">
					<g>
						<defs>
							<rect id="SVGID_00000088821906739374468560000010035763064697913751_" x="40" y="79.8" width="33.7" height="47.6"/>
						</defs>
						<clipPath id="SVGID_00000091718619598996005540000010890984816803664052_">
							<use xlink:href="#SVGID_00000088821906739374468560000010035763064697913751_"  style="overflow:visible;"/>
						</clipPath>
						<g id="그룹_228" style="clip-path:url(#SVGID_00000091718619598996005540000010890984816803664052_);">
							<path id="패스_316" class="st12" d="M42,81.3l5.5-1.5c0.2,3.1,0.5,6.3,1,9.3c0.1,0.8,0.2,1.5,0.3,2.3
								c-0.1,3.9,0.5,7.8,1.6,11.6c0.6,1.9,3.1,1.4,3.8-0.1c0.5-0.3,0.8-0.8,1-1.4c0.1-0.3,0.1-0.5,0.2-0.8c0.2-0.2,0.3-0.4,0.4-0.6
								c1.1-2.6,1.8-5.4,2.1-8.2c0.1-0.4,0-0.8-0.3-1.2c0.1-0.6,0.2-1.3,0.3-1.9c0.1-0.6-0.2-1.3-0.7-1.7c-0.1-1.1-1-2-2.1-2
								c-1,0-1.8,0.8-1.9,1.8c0,0.1,0,0.1,0,0.2c0.1-2,0.2-4,0.2-6l6,2.8l9.2-1l2.9,2.2l-0.2,0.5c-0.6,0.3-1,0.9-1.1,1.5
								c-0.1,0.5-0.2,1-0.3,1.5c-0.1,0.3-0.3,0.6-0.4,0.9c0.2-1,0.4-2,0.6-3c0.4-2.7-3.8-3.2-4.1-0.5c-0.1,0.8-0.3,1.6-0.4,2.3
								c-0.4-0.5-1-0.8-1.6-0.8c0-0.7,0-1.3,0-2c-0.1-1.6-2.1-2.1-3.3-1.4c-0.5,0.2-1,0.6-1.1,1.2c-1.4,4.8-1.1,9.7-1.5,14.7
								c-0.1,0.8,0.3,1.5,1,1.9c-0.1,1.7,0,3.5,0.2,5.2c0.1,0.4,0.2,0.7,0.5,0.9c-0.5,0.5-1.1,1-1.7,1.5c-2.2,1.6,0.4,4.9,2.6,3.3
								c3.8-2.8,6.3-6.5,8.4-10.7c2-4,4.1-7.9,5.1-12.2c0.3-0.7-1.1-1.9-0.9-2.6l0.4,0.2l-0.1,14.4l-18.4,25.4L40,95.4L42,81.3z"/>
						</g>
					</g>
				</g>
			</g>
			<path id="패스_317" class="st13" d="M154.3,243.3c-0.4,1.7-1,3.2-1.9,4.7l-3.8-0.8c-0.6-1.6-1.1-3.3-1.4-5l2.8-2.6l2.2,0.4
				L154.3,243.3z"/>
			<g id="그룹_233" transform="translate(99.262 153.895)">
				<g id="그룹_232" transform="translate(0)">
					<g>
						<defs>
							<rect id="SVGID_00000020357688202821578160000012189059732109661583_" x="40" y="79.8" width="23.6" height="18.3"/>
						</defs>
						<clipPath id="SVGID_00000037687037581318539470000010671386796813031352_">
							<use xlink:href="#SVGID_00000020357688202821578160000012189059732109661583_"  style="overflow:visible;"/>
						</clipPath>
						<g id="그룹_231" style="clip-path:url(#SVGID_00000037687037581318539470000010671386796813031352_);">
							<path id="패스_318" class="st12" d="M63.6,87.3c-2.1,3.5-4,7-5.6,10.7c0,0-4-7.8-4.7-9.4c0,0-6.7,6.2-10.9,7
								c0,0-1.3-11.3-2.4-15.9L63.6,87.3z"/>
						</g>
					</g>
				</g>
			</g>
			<path id="패스_319" class="st10" d="M159.8,235.2l3.3,5.6c-2.7,1.9-4.9,4.4-6.3,7.4c0,0-4.1-5.8-4.6-8.6
				c-2.6,2.8-5.6,5.1-8.9,7c0,0-1.6-8.5-4.2-13l6.4-3.5L159.8,235.2z"/>
			<path id="패스_320" class="st13" d="M152.1,248c0,0,0.4,7.5,0.4,11.1c0,3.6-1.4,13.2-1.4,13.2l-6.7,6.3l-1.6-9.4l4.1-12.2
				c0,0,1.6-7,2-9.7L152.1,248z"/>
			<path id="패스_321" class="st15" d="M109,329.8c0.9,2.4,8.5,6.1,18.3,6.3c6.2,0.1,24.8,0.4,28.3,1.6s8.2-2.7,5-9.2
				c-3.2-6.6,5.7-32.7,5.7-32.7s3.2-55.5,2.6-55.2c-0.2,0.2-0.6,0.3-1.6,0.4c-0.2,0-0.5,0-0.8,0.1l-0.2,0c-0.3,0-0.6,0-0.8,0
				c-1.2,0-2.3,0.1-2.3,0.1s-1.5,21.1-16.4,33.9c-5.9-12.7-9.6-26.5-10.6-40.5l-2.3-0.1l-0.8,0l-1.3-0.1l-0.8,0.1l-12.2,1l-9.4,87.5
				C109.3,323,107.8,326.6,109,329.8"/>
			<g id="그룹_236" transform="translate(108.937 167.413)">
				<g id="그룹_235">
					<g>
						<defs>
							<rect id="SVGID_00000043417694521937405520000013442960299362301864_" x="40" y="79.8" width="3.2" height="4.3"/>
						</defs>
						<clipPath id="SVGID_00000110438429900670596010000014655261194858008251_">
							<use xlink:href="#SVGID_00000043417694521937405520000013442960299362301864_"  style="overflow:visible;"/>
						</clipPath>
						<g id="그룹_234" style="clip-path:url(#SVGID_00000110438429900670596010000014655261194858008251_);">
							<path id="패스_322" class="st13" d="M43.2,80.5c-0.3,1.2-0.7,2.3-1.4,3.4C41,84.9,40,79.8,40,79.8L43.2,80.5z"/>
						</g>
					</g>
				</g>
			</g>
			<path id="패스_323" class="st17" d="M144.9,233.1l6.9,7.9l7.4-3.4c0.1-2,0.5-4,1.2-5.9c0.2-0.8,0.5-1.6,0.7-2.3
				c0.5-1.7,0.9-2.9,0.9-2.9s-16.9-11.9-16.4-5.5c0.1,2.7,0,5.4-0.3,8.1c-0.1,0.8-0.2,1.5-0.2,1.9
				C144.9,233.2,144.9,233.1,144.9,233.1"/>
			<g id="그룹_239" transform="translate(105.18 139.328)" class="st18">
				<g id="그룹_238" transform="translate(0)">
					<g>
						<defs>
							<rect id="SVGID_00000151541057173108467630000004245803960979143582_" x="40" y="79.8" width="16.9" height="14.9"/>
						</defs>
						<clipPath id="SVGID_00000021092331079943283760000006979003145540195742_">
							<use xlink:href="#SVGID_00000151541057173108467630000004245803960979143582_"  style="overflow:visible;"/>
						</clipPath>
						<g id="그룹_237" style="clip-path:url(#SVGID_00000021092331079943283760000006979003145540195742_);">
							<path id="패스_324" class="st1" d="M40,91.7c4.7,4.7,8.7,3.1,15.3,0.7c0.2-0.8,0.5-1.6,0.7-2.3c0.5-1.7,0.9-2.9,0.9-2.9
								S40,75.2,40.6,81.7C40.6,85.1,40.4,88.4,40,91.7"/>
						</g>
					</g>
				</g>
			</g>
			<path id="패스_325" class="st20" d="M177.3,196.7c1.2,9.1-2.4,11.7-2.4,11.7l-1.6,8.7c0,0.1-0.1,0.3-0.1,0.4
				c-1.1,5-1.7,8.4-8.7,11.3c-7.6,3.1-14,2.4-19.6-5.1c-5.2-7.2-4.4-8.7-4-14.6c0,0,0.1-0.4,0.4-1.2c0,0,1-0.2,1-0.2l2.1-6.2
				c2.7-5.3,7.3-9.2,12.9-11.1c-8.4,2.9-8.5,9.1-8.5,9.4c11.9-1.3,15.9-6.7,15.9-6.7c-1.2,3.8-4.7,6.4-8.7,6.3
				c2.1,0.1,4.1,0.7,5.9,1.7c6-1.8,6.5-8.4,6.5-8.4c1,7.9-3.1,9.8-3.1,9.8c2.9,0.9,5.6,2.2,8.1,4l0,0
				C177.9,203.6,177.3,196.7,177.3,196.7"/>
			<path id="패스_326" class="st17" d="M166,202c1.1-0.9,3.2-3.5,2.5-9.4c0,0-0.5,6.5-6.3,8.4C163.4,201.1,164.7,201.5,166,202"/>
			<g id="그룹_242" transform="translate(100.627 110.503)" class="st6">
				<g id="그룹_241" transform="translate(0)">
					<g>
						<defs>
							<rect id="SVGID_00000083071834784981668490000002882024783811353249_" x="40" y="79.8" width="36.9" height="40.2"/>
						</defs>
						<clipPath id="SVGID_00000028295001984394294250000002058346662646125698_">
							<use xlink:href="#SVGID_00000083071834784981668490000002882024783811353249_"  style="overflow:visible;"/>
						</clipPath>
						<g id="그룹_240" style="clip-path:url(#SVGID_00000028295001984394294250000002058346662646125698_);">
							<path id="패스_327" class="st17" d="M76.7,86.3c0.1,0.8,0.4,7-3.8,9.6c-1.5-1.1-3-2-4.7-2.8c0.8,0.7,1.6,1.4,2.2,2.3
								c3.1,4.2,3.4,12.4-1,16.1c-2.1,2.4-5.3,3.4-8.4,2.6c-1.2-0.3-2.3-0.8-3.3-1.5c-0.2-0.1-0.5-0.2-0.8-0.4
								c-0.4-0.1-0.8-0.3-1.2-0.5c-0.4,0-0.9-0.1-1.3-0.2c-2.2-0.1-2.3,0.1-4.5-0.8c-3.6-1.7-6-5.3-6.1-9.3c0.1-3.4,0.4-6.3,3-8.4
								c1-0.8,2.2-1.5,3.4-1.9c1-0.7,2.2-1.1,3.4-1.1c2.5-0.1,5,0,7.5,0.3c-1.8-0.9-3.7-1.4-5.6-1.5c4,0.1,7.6-2.5,8.7-6.3
								c0,0-4,5.3-15.9,6.7c0-0.3,0.1-6.5,8.5-9.4c-5.6,1.8-10.3,5.8-12.9,11.1l-2.1,6.2c0,0-1,0.2-1,0.2c-0.3,0.8-0.4,1.2-0.4,1.2
								c-0.3,5.9-1.2,7.4,4,14.6c5.5,7.5,12,8.3,19.6,5.1c7-2.9,7.6-6.3,8.7-11.3c0-0.1,0.1-0.3,0.1-0.4l1.6-8.7
								C74.3,97.9,77.8,95.3,76.7,86.3"/>
						</g>
					</g>
				</g>
			</g>
			<path id="패스_328" class="st17" d="M173.2,206.6l-0.5,0.3L173.2,206.6"/>
			<path id="패스_329" class="st17" d="M172.5,207.1c-0.1,0.1-0.3,0.2-0.4,0.2C172.2,207.2,172.3,207.2,172.5,207.1"/>
			<path id="패스_330" class="st17" d="M172,207.4l-0.3,0.2L172,207.4"/>
			<path id="패스_331" class="st1" d="M141.4,200.6c0,0-0.5-1.9-2.7-0.7c-2.2,1.2-3.5,10.7,2.1,13
				C140.8,212.9,141.1,206,141.4,200.6"/>
			<path id="패스_332" class="st22" d="M164.8,208.1c-0.3,1.1-0.1,2.1,0.6,2.3c0.6,0.2,1.4-0.6,1.7-1.6c0.3-1.1,0.1-2.1-0.6-2.3
				C165.9,206.3,165.1,207.1,164.8,208.1"/>
			<path id="패스_333" class="st22" d="M156.4,205.4c-0.3,1.1-0.1,2.1,0.6,2.3c0.6,0.2,1.4-0.6,1.7-1.6c0.3-1.1,0.1-2.1-0.6-2.3
				C157.4,203.6,156.7,204.3,156.4,205.4"/>
			<path id="패스_334" class="st22" d="M170.2,207c-0.3-0.3-0.6-0.6-0.9-0.9c-0.3-0.3-0.6-0.5-1-0.7c-0.8-0.4-1.6-0.8-2.5-1.2
				l-0.1-0.1c-0.2-0.1-0.3-0.3-0.2-0.5c0.1-0.1,0.2-0.2,0.4-0.2c1.1,0,2.2,0.3,3.1,0.8c1,0.6,1.7,1.6,2,2.7c0,0.2-0.1,0.4-0.3,0.4
				c-0.1,0-0.3,0-0.3-0.1L170.2,207z"/>
			<path id="패스_335" class="st22" d="M152.9,201.3c0.5-0.5,1.1-0.8,1.7-1c1.3-0.4,2.7-0.3,3.9,0.2c0.6,0.3,1.1,0.7,1.6,1.1
				l0.1,0.1c0.1,0.2,0.1,0.4,0,0.6c-0.1,0.1-0.3,0.1-0.4,0.1c-1-0.6-2.1-0.9-3.2-0.9c-1.1-0.1-2.2,0.1-3.2,0.6
				c-0.2,0.1-0.4,0-0.5-0.2C152.7,201.7,152.8,201.5,152.9,201.3L152.9,201.3z"/>
			<path id="패스_336" class="st10" d="M133.1,234.5c1.9,28.2,12.4,45.8,12.5,46l0.2,0.3l0.3-0.3c5.9-4.8,10.9-10.7,14.7-17.3
				c4.3-7.8,7.9-18.7,6.4-22.3c-0.2,0-0.5,0-0.8,0.1c1.4,3.5-1.9,14-6.3,21.9c-3.7,6.4-8.5,12.1-14.1,16.8
				c-1.6-2.6-10.3-19.6-12.1-45.2L133.1,234.5z"/>
			<g id="그룹_245" transform="translate(120.219 125.184)" class="st6">
				<g id="그룹_244">
					<g>
						<defs>
							<rect id="SVGID_00000154423642435446059030000014961445582406158782_" x="40" y="79.8" width="3.9" height="7.4"/>
						</defs>
						<clipPath id="SVGID_00000005984797903907688790000003724191204603165347_">
							<use xlink:href="#SVGID_00000154423642435446059030000014961445582406158782_"  style="overflow:visible;"/>
						</clipPath>
						<g id="그룹_243" style="clip-path:url(#SVGID_00000005984797903907688790000003724191204603165347_);">
							<path id="패스_337" class="st24" d="M43.5,80.2l-1.3,4l-0.2-0.4l0,0c0.5,0.2,1,0.4,1.3,0.8c0.3,0.2,0.4,0.5,0.5,0.9
								c0,0.4-0.3,0.8-0.6,1c-0.9,0.5-2,0.7-3,0.6c-0.2,0-0.3-0.2-0.3-0.3c0-0.1,0.1-0.3,0.3-0.3h0c0.9-0.1,1.7-0.3,2.5-0.7
								c0.2-0.1,0.2-0.3,0.2-0.1c0-0.1-0.1-0.2-0.2-0.3c-0.3-0.3-0.6-0.6-0.9-0.9l0,0c-0.1-0.1-0.2-0.2-0.2-0.4l1.3-4
								c0.1-0.2,0.2-0.3,0.4-0.2C43.5,79.9,43.6,80,43.5,80.2"/>
						</g>
					</g>
				</g>
			</g>
			<g id="그룹_248" transform="translate(123.254 132.84)" class="st4">
				<g id="그룹_247">
					<g>
						<defs>
							<rect id="SVGID_00000156588557847150675630000015009679906096754065_" x="40" y="79.8" width="5.3" height="5.3"/>
						</defs>
						<clipPath id="SVGID_00000158747527794784018620000016302367636779060667_">
							<use xlink:href="#SVGID_00000156588557847150675630000015009679906096754065_"  style="overflow:visible;"/>
						</clipPath>
						<g id="그룹_246" style="clip-path:url(#SVGID_00000158747527794784018620000016302367636779060667_);">
							<path id="패스_338" class="st26" d="M40.1,81.6c-0.4,1.4,0.3,2.9,1.7,3.3s2.9-0.3,3.3-1.7c0.4-1.4-0.3-2.9-1.7-3.3
								C42.1,79.5,40.6,80.3,40.1,81.6C40.1,81.6,40.1,81.6,40.1,81.6"/>
						</g>
					</g>
				</g>
			</g>
			<g id="그룹_251" transform="translate(111.094 128.43)" class="st4">
				<g id="그룹_250">
					<g>
						<defs>
							<rect id="SVGID_00000114073574706346681150000012281652533690568887_" x="40" y="79.8" width="5.3" height="5.3"/>
						</defs>
						<clipPath id="SVGID_00000128448452673358645790000001959005122165522596_">
							<use xlink:href="#SVGID_00000114073574706346681150000012281652533690568887_"  style="overflow:visible;"/>
						</clipPath>
						<g id="그룹_249" style="clip-path:url(#SVGID_00000128448452673358645790000001959005122165522596_);">
							<path id="패스_339" class="st26" d="M40.1,81.6c-0.4,1.4,0.3,2.9,1.7,3.3c1.4,0.4,2.9-0.3,3.3-1.7c0.4-1.4-0.3-2.9-1.7-3.3
								C42.1,79.5,40.6,80.2,40.1,81.6C40.1,81.6,40.1,81.6,40.1,81.6"/>
						</g>
					</g>
				</g>
			</g>
			<path id="패스_340" class="st28" d="M106.7,314.6c-1.4,4.2-12.2,26-12.2,26l25.2,10.9c1.3,0.6,2.7,0.8,4.1,0.6
				c0.2,0,0.3,0,0.5,0c0.2,0,0.4-0.1,0.6-0.1c0.2,0,0.4-0.1,0.5-0.2c1.8-0.6,3.3-1.8,4.3-3.4l1-1.7c0.2-0.3,0.4-0.6,0.6-0.9l1.1-1.9
				c0.2-0.3,0.4-0.6,0.5-0.9l2-3.3l0.1,8c0.1,4.4,3.6,7.9,8,7.9l20-0.1c0,0-0.7-15.2-0.5-22.3c0.1-7.1,4.1-26,4.1-26
				c1.2-9.1,18.9-33.4,20.2-54.9c-3.6-2.2-7.2-4.2-11-6.1c-0.2-0.1-0.5-0.2-0.7-0.4c-2.6-1.2-4.4-3.9-7.7-5.2c0,0-5.2,28.1-9.7,36.4
				c-4.5,8.3-14.3,22.9-14.3,22.9s-11-34.2-10.1-68.2c-3.1,1.1-6.4,1.7-9.6,1.8h0c-0.3,0-0.6,0-0.8,0.1c-4.1,0.1-8.1,0.8-12,2
				c-4.5,1.6,0,56.8-1.3,65.9C109.5,301.3,108.1,310.3,106.7,314.6"/>
			<g id="그룹_254" transform="translate(136.657 169.394)" class="st4">
				<g id="그룹_253">
					<g>
						<defs>
							<rect id="SVGID_00000090289706166040562110000008761487373443111320_" x="40" y="79.8" width="10.1" height="16.8"/>
						</defs>
						<clipPath id="SVGID_00000082354968470716450130000000773045877500621960_">
							<use xlink:href="#SVGID_00000090289706166040562110000008761487373443111320_"  style="overflow:visible;"/>
						</clipPath>
						<g id="그룹_252" style="clip-path:url(#SVGID_00000082354968470716450130000000773045877500621960_);">
							<path id="패스_341" class="st28" d="M50.1,82.6c-0.2-0.1-1.9-1.2-4.8-2.8c-0.2,0.3-0.4,0.6-0.6,0.8
								c-1.4,5.4-2.9,10.8-4.7,16c3.4-4.5,6.7-9.1,9.9-13.8C50,82.8,50.1,82.7,50.1,82.6"/>
						</g>
					</g>
				</g>
			</g>
			<g id="그룹_257" transform="translate(54.479 153.558)" class="st4">
				<g id="그룹_256">
					<g>
						<defs>
							<rect id="SVGID_00000132787357116758254410000006276020016433995406_" x="40" y="79.8" width="81.4" height="112.4"/>
						</defs>
						<clipPath id="SVGID_00000036248198866740678300000002757842880544757947_">
							<use xlink:href="#SVGID_00000132787357116758254410000006276020016433995406_"  style="overflow:visible;"/>
						</clipPath>
						<g id="그룹_255" style="clip-path:url(#SVGID_00000036248198866740678300000002757842880544757947_);">
							<path id="패스_342" class="st28" d="M80.7,192.2c0.4-9.9,3.4-20.2,13.9-18.1c6.1,1.2,9.7,7.3,12.2,12.4
								c0.5,1.1,1,2.1,1.5,3.2c-0.1-3.8-0.2-7.7-0.1-10.4c0.1-7.1,4.1-26,4.1-26c0.6-4.3,4.8-11.9,9.2-21
								c-5.1,6.3-10.4,12.5-16,18.4c-3.9,4.1-11.6-0.1-9.7-5.7c2.4-6.8,5.2-13.4,8.5-19.8c0.1-0.8,0.4-1.5,0.8-2.1
								c4.8-7.9,7-21.1,7.1-31.5c-1.7,8.4-5.4,25.5-8.7,31.7c-4.5,8.3-14.3,22.9-14.3,22.9c-4.6-15.1-7.7-30.7-9.3-46.4
								c-0.3,3.5-0.3,7-0.2,10.5c0.6,12,6.3,23,7.7,34.9c0.2,1.7-0.5,3.4-1.9,4.4c-0.8,4-6,7.1-9.8,3.3c-17-17.8-22.7-43.7-14.7-67
								c0.9-3.1,4.2-4.8,7.3-3.9c0.7,0.2,1.4,0.6,1.9,1c0.1-1.1,0.3-2.1,0.4-3.2c-0.4,0-0.8,0.1-1.2,0.1h0c-0.3,0-0.6,0-0.8,0.1
								c-4.1,0.1-8.1,0.8-12,2c-4.5,1.6,0,56.8-1.3,65.9c0,0-1.4,9-2.8,13.2S40,187,40,187l2.1,0.9c3.9-2.9,8-5.5,12.2-7.7
								c5.6-3,12.8-6.6,19.3-5.2c8.1,1.7,8.9,6.7,6.9,12.2L80.7,192.2z"/>
						</g>
					</g>
				</g>
			</g>
			<path id="패스_343" class="st31" d="M165.4,215.4c-1,0.4-1.6,1.4-2.5,2.3c-0.2,0.2-0.5,0.4-0.7,0.6c-0.2,0.2-0.4,0.3-0.7,0.4
				c-1.1,0.6-2.4,0.8-3.6,0.5c-1.1-0.6-2-1.6-2.4-2.7c-0.1-0.2-0.2-0.5-0.2-0.8c-0.1-0.3-0.1-0.6-0.2-1c0-1.1-0.2-2.3-0.6-3.4
				c0,0,0.4,0.3,1.1,0.7c0.1,0,0.2,0.1,0.3,0.1c0.7,0.3,1.8,0.2,4,1l0.4,0.1c2.4,0.9,3.2,1.8,4,1.9
				C164.6,215.4,165,215.4,165.4,215.4"/>
			<g id="그룹_260" transform="translate(115.139 135.981)" class="st32">
				<g id="그룹_259">
					<g>
						<defs>
							<rect id="SVGID_00000000195773620431387120000012456085722434693014_" x="40" y="79.8" width="7" height="3.6"/>
						</defs>
						<clipPath id="SVGID_00000137128292073682738630000009779009406269914752_">
							<use xlink:href="#SVGID_00000000195773620431387120000012456085722434693014_"  style="overflow:visible;"/>
						</clipPath>
						<g id="그룹_258" style="clip-path:url(#SVGID_00000137128292073682738630000009779009406269914752_);">
							<path id="패스_344" class="st24" d="M47,82.3c-0.2,0.2-0.4,0.3-0.7,0.4c-1.1,0.6-2.4,0.8-3.6,0.5c-1.1-0.6-2-1.6-2.4-2.7
								c-0.1-0.2-0.2-0.5-0.2-0.8c1.3-0.1,2.5,0.1,3.7,0.6C45,80.8,46.1,81.5,47,82.3"/>
						</g>
					</g>
				</g>
			</g>
			<path id="패스_345" class="st28" d="M133.3,231.6l-4.4-5.3c0,0,1.4-4.2-3.9-3c-7.2-7-13.4-14.9-18.6-23.5
				c-8.1-13.7-21.8-4.6-23-2.1c-1.2,2.6,27.2,62,27.2,62L133.3,231.6z"/>
			<path id="패스_346" class="st28" d="M83.4,197.7c0,0,1.6-5.1,4.2-7.9c2.6-2.8,26-23.6,33.7-32.9c0,0,12.2,2.4,11.7,12.4
				c0,0-15.9,16.5-27.5,31.4S83.4,197.7,83.4,197.7"/>
			<g id="그룹_263" transform="translate(61.509 101.504)" class="st4">
				<g id="그룹_262" transform="translate(0)">
					<g>
						<defs>
							<rect id="SVGID_00000063624566088666238060000005685133511202228663_" x="40" y="79.8" width="20.3" height="18.4"/>
						</defs>
						<clipPath id="SVGID_00000087386557997993024330000013777085712902947747_">
							<use xlink:href="#SVGID_00000063624566088666238060000005685133511202228663_"  style="overflow:visible;"/>
						</clipPath>
						<g id="그룹_261" style="clip-path:url(#SVGID_00000087386557997993024330000013777085712902947747_);">
							<path id="패스_347" class="st28" d="M40,93.4c0.4,0.2,0.8,0.4,1.2,0.7c1.4,1.2,2.6,2.5,3.5,4.1c5-6.4,10.8-13,15.7-18.4
								C53.6,84.3,46.9,89,40,93.4"/>
						</g>
					</g>
				</g>
			</g>
			<g id="그룹_266" transform="translate(43.292 112.589)" class="st4">
				<g id="그룹_265">
					<g>
						<defs>
							<rect id="SVGID_00000183960114721774066740000016360058931079118476_" x="40" y="79.8" width="27.6" height="67.3"/>
						</defs>
						<clipPath id="SVGID_00000001657601558762108180000017122079903591399581_">
							<use xlink:href="#SVGID_00000183960114721774066740000016360058931079118476_"  style="overflow:visible;"/>
						</clipPath>
						<g id="그룹_264" style="clip-path:url(#SVGID_00000001657601558762108180000017122079903591399581_);">
							<path id="패스_348" class="st28" d="M66.8,127.5c-0.5-0.6-1-1.3-1.2-2.1c-3.5-9.7-6.5-18.9-7.2-29.3
								c-0.5-6.5-0.7-13.9-6-16.3c-6-0.4-11.5,3.7-12.3,5.3c-1.2,2.6,27.2,62,27.2,62S68.4,130.7,66.8,127.5"/>
						</g>
					</g>
				</g>
			</g>
			<path id="패스_349" class="st28" d="M167.6,240.5l6.8-1.6c0,0,1.4-4.2,5,0c9.6-0.4,19-2.5,27.9-6.1c14.8-6,20.2,9.5,19.6,12.3
				s-59.2,32.8-59.2,32.8L167.6,240.5z"/>
			<path id="패스_350" class="st28" d="M227,245.2c0,0,0.5-5.3-0.8-8.9c-1.3-3.6-14.1-30.6-17.6-42.2c0,0-12.2-2.5-15.6,6.9
				c0,0,7.5,20.2,12.5,38.4S227,245.2,227,245.2"/>
			<g id="그룹_269" transform="translate(152.99 120.295)" class="st4">
				<g id="그룹_268">
					<g>
						<defs>
							<rect id="SVGID_00000143575669659316852310000008515318132729241513_" x="40" y="79.8" width="21.1" height="33"/>
						</defs>
						<clipPath id="SVGID_00000182521648840995737490000013891122778157819798_">
							<use xlink:href="#SVGID_00000143575669659316852310000008515318132729241513_"  style="overflow:visible;"/>
						</clipPath>
						<g id="그룹_267" style="clip-path:url(#SVGID_00000182521648840995737490000013891122778157819798_);">
							<path id="패스_351" class="st28" d="M61.1,110.6c-7.4-10-15.1-20-20.6-30.8c-0.2,0.3-0.3,0.6-0.5,1c0,0,5.9,15.8,10.7,32.1
								C54.1,111.8,57.6,111.1,61.1,110.6"/>
						</g>
					</g>
				</g>
			</g>
			<g id="그룹_272" transform="translate(144.45 155.453)" class="st4">
				<g id="그룹_271">
					<g>
						<defs>
							<rect id="SVGID_00000096059791127502154330000009453949321017534108_" x="40" y="79.8" width="42.3" height="33.9"/>
						</defs>
						<clipPath id="SVGID_00000029030460512329206820000018161307401926964125_">
							<use xlink:href="#SVGID_00000096059791127502154330000009453949321017534108_"  style="overflow:visible;"/>
						</clipPath>
						<g id="그룹_270" style="clip-path:url(#SVGID_00000029030460512329206820000018161307401926964125_);">
							<path id="패스_352" class="st28" d="M78.4,80.4c-13.2-4.5-21.7,15.8-31.9,22.6c-0.5,0.4-1,0.7-1.5,1.1
								c-1.5,3.3-3.2,6.4-5,9.5c17.4-9.1,41.9-22.2,42.3-24C82.6,88.3,81.4,83.9,78.4,80.4"/>
						</g>
					</g>
				</g>
			</g>
			<path id="패스_353" class="st38" d="M232.5,155.8c-12.2,26.8-43.8,38.7-70.6,26.5s-38.7-43.8-26.5-70.6S179.2,73,206,85.2
				c0,0,0,0,0,0C232.8,97.4,244.7,129,232.5,155.8"/>
			<path id="패스_354" class="st20" d="M123.8,139c0,0-0.3-1.2,1.9-2.5c2.2-1.4,5.6-3.5,5.6-3.5s1.9-1.1,2.2,0.1s-1.3,2.5-1.3,2.5
				l-3.4,2.4l-3,2C125.7,140,124.4,141.1,123.8,139"/>
			<path id="패스_355" class="st20" d="M124.9,141.9c0,0-0.3-1.3,2.1-2.9s6.3-3.9,6.3-3.9s2.1-1.2,2.4,0.1s-1.5,2.9-1.5,2.9
				l-3.8,2.7L127,143C127,143,125.6,144.2,124.9,141.9"/>
			<path id="패스_356" class="st1" d="M135.9,138.9c0,0,0.2,0.9,0.6,3.2c0.2,1.1-2.1,3.5-3,3.8c-0.9,0.3-0.7-1.4-0.2-2.1
				c0.7-1.3,1.1-1.3,1.1-1.3c-0.5-0.6-0.7-1.4-0.7-2.2C133.9,139.2,135.9,138.9,135.9,138.9"/>
			<path id="패스_357" class="st20" d="M126.5,144.5c0,0-0.3-1.3,2.1-2.9c2.5-1.6,4.9-2.9,4.9-2.9s2.1-1.2,2.4,0.1
				c0.3,1.3-1.5,2.9-1.5,2.9l-2.4,1.7l-3.4,2.2C128.6,145.7,127.1,146.9,126.5,144.5"/>
			<path id="패스_358" class="st1" d="M132.4,135.3c-1.1,0.8-2.2,1.6-3.3,2.3c-1.3,0.7-2.4,1.5-3.5,2.5c0,0-0.3,0.2-0.4,0.2
				c-0.4,0.2-1.1,0.2-1.5-1.2c0-0.3,0-0.5,0.1-0.8c0.7,0.6,1.7,0.6,2.4,0.1c1.4-0.8,2.7-1.6,4-2.6c0.9-0.6,2.1-1.1,2.6-2.2
				c0.1-0.3,0.2-0.7,0.1-1c0.2,0.1,0.4,0.3,0.5,0.5C133.6,133.9,132.9,134.8,132.4,135.3"/>
			<path id="패스_359" class="st1" d="M124.9,141.9c0-0.3,0-0.6,0.1-0.8c0,0.7,0.6,1.4,1.4,1.3l0.3-0.1c0.3-0.1,0.6-0.3,0.8-0.6
				c1.1-0.8,2.3-1.5,3.4-2.2c1.5-1,2.9-2.1,4.4-3.1c0.4-0.3,0.6-0.7,0.5-1.1c0,0,0,0,0,0c0.3,1.3-1.5,2.9-1.5,2.9l-0.7,0.5
				c-1.1,0.7-2.1,1.4-3.2,2c-1.1,0.6-3,1.2-3.5,2.5C126.3,143.4,125.4,143.6,124.9,141.9"/>
			<path id="패스_360" class="st1" d="M126.5,144.5c0-0.4,0.1-0.7,0.3-1.1c-0.1,1,0.5,1.4,1.2,1.1c0.2,0,0.4,0,0.6-0.1l0.1-0.1
				c0,0,0.1,0,0.1-0.1c0.3-0.1,1.2-0.5,1.5-0.7c0.8-0.5,1.5-0.9,2.3-1.4c1.5-0.9,1.5-0.9,3-1.8c-0.3,0.5-0.7,1-1.2,1.4l-2.4,1.7
				l-3.4,2.2C128.6,145.7,127.1,146.9,126.5,144.5"/>
			<path id="패스_361" class="st1" d="M202.2,178c-0.7,0.2-1.3,0.7-1.6,1.3c-0.5,1.1-1.4,3.3-1.3,3.8c0.2,0.5,0.7,0.8,1.2,0.7
				c0.3-0.1,0.5-0.3,0.6-0.6C201.8,182,203.3,180.1,202.2,178"/>
			<path id="패스_362" class="st20" d="M204.6,185.1c0,0,0.9-0.3,0.4-1.9c-0.5-1.6-1.4-4.2-1.4-4.2s-0.5-1.4-1.4-1
				s-0.7,1.7-0.7,1.7l0.7,2.7l0.7,2.3C202.8,184.6,202.9,185.7,204.6,185.1"/>
			<path id="패스_363" class="st20" d="M210.7,185.3c0,0,1.3-0.4,0.8-2.7c-0.5-2.3-1.4-5.9-1.4-5.9s-0.5-1.9-1.7-1.5
				c-1.2,0.4-1.2,2.3-1.2,2.3l0.5,3.7l0.6,3.2C208.3,184.5,208.4,186,210.7,185.3"/>
			<path id="패스_364" class="st20" d="M207.5,185.5c0,0,1.3-0.4,0.8-2.7c-0.5-2.3-1.4-5.9-1.4-5.9s-0.5-1.9-1.7-1.5
				c-1.2,0.4-1.2,2.3-1.2,2.3l0.5,3.7l0.6,3.2C205.1,184.7,205.2,186.2,207.5,185.5"/>
			<path id="패스_365" class="st1" d="M204.6,185.1c0.1-0.1,0.3-0.2,0.3-0.3c-0.2,0-0.3-0.1-0.5-0.1c-0.6-0.3-1-0.9-1.1-1.5
				c-0.1-0.4-0.2-0.7-0.3-1.1c-0.3-0.9-0.6-1.8-0.8-2.7c-0.1-0.6,0.3-0.9,0.9-1c-0.2-0.3-0.6-0.5-0.9-0.3c-0.8,0.3-0.7,1.7-0.7,1.7
				l0.7,2.7l0.7,2.3C202.8,184.6,202.9,185.7,204.6,185.1"/>
			<path id="패스_366" class="st1" d="M210.7,185.3c0.2-0.1,0.4-0.3,0.6-0.5c-0.6,0.4-1.4,0.2-1.9-0.3c0-0.1-0.1-0.1-0.1-0.2
				c-0.2-0.2-0.2-0.6,0-0.8c-0.2-1.1-0.4-2.2-0.7-3.2c-0.3-1.4-0.4-2.8-0.6-4.3c0-0.4,0.2-0.7,0.5-0.9c0,0,0,0-0.1,0
				c-1.2,0.4-1.2,2.3-1.2,2.3l0.1,0.7c0.2,1,0.4,2,0.7,3c0.2,1,1.1,2.5,0.4,3.5C208.5,185.1,208.9,185.8,210.7,185.3"/>
			<path id="패스_367" class="st1" d="M207.5,185.5c0.3-0.1,0.5-0.4,0.7-0.6c-0.4,0.4-1,0.4-1.5,0c-0.1-0.1-0.2-0.2-0.2-0.3
				c-0.2-0.1-0.3-0.3-0.3-0.5l0-0.1c0-0.1,0,0,0-0.1c-0.1-0.3-0.4-1-0.5-1.3c-0.2-0.7-0.3-1.4-0.5-2.1c-0.4-1.4-0.6-2.8-0.9-4.2
				c-0.2,0.4-0.3,0.9-0.3,1.4l0.5,3.7l0.6,3.2C205.1,184.7,205.2,186.2,207.5,185.5"/>
			<path id="패스_368" class="st39" d="M122.6,351.7c-1.9,0-4-0.8-8-2.6c-7-3-18.6-8.1-18.6-8.1l0.3-0.8c0,0,11.6,5.1,18.6,8.1
				c7,3,8,3.1,11.6,1.3c3.5-1.8,8.4-11.7,8.8-12.4l7.2-36.3c-0.6-1.1-4.7-9.8-8.8-20.8c-4.4-11.7-11.1-35.8-11.2-36
				c-0.1-0.2,0.1-0.5,0.3-0.5c0,0,0,0,0,0l6.5-1.5c-2.6-9.3-0.9-14.5-0.8-14.7c0.1-0.2,0.3-0.3,0.5-0.3c0.2,0.1,0.3,0.3,0.3,0.5
				c0,0.1-1.8,5.4,0.9,14.6c0,0.1,0,0.2,0,0.3c-0.1,0.1-0.2,0.2-0.3,0.2l-6.5,1.5c0.9,3.3,7,24.7,11,35.6
				c4.4,11.7,8.8,20.8,8.8,20.9c0,0.1,0.1,0.2,0,0.3l-7.2,36.5c0,0,0,0.1,0,0.1c-0.2,0.4-5.3,10.9-9.2,12.9
				C125.6,351.1,124.1,351.6,122.6,351.7"/>
			<path id="패스_369" class="st39" d="M144.9,300.6c-0.2,0-0.4-0.2-0.4-0.4c0-0.1,0-0.2,0.1-0.2c0.1-0.2,12.8-17.5,17.2-23.9
				c4-5.9,10.6-18.8,11.7-21l-6-4.2c-0.2-0.1-0.2-0.4-0.1-0.6c0,0,0-0.1,0.1-0.1c4.3-3.8,6.5-11.2,6.5-11.3c0.1-0.2,0.3-0.3,0.5-0.3
				c0,0,0,0,0,0c0.2,0.1,0.3,0.3,0.3,0.5c-0.1,0.3-2.2,7.3-6.4,11.3l5.9,4.1c0.2,0.1,0.2,0.3,0.1,0.5c-0.1,0.2-7.5,15-11.9,21.4
				c-4.4,6.4-17.1,23.8-17.2,23.9C145.2,300.5,145.1,300.6,144.9,300.6"/>
			<path id="패스_370" class="st39" d="M150,355c-2.8,0-5.4,0-6.9-0.1c-4.2-0.2-7.1-2.8-7.4-6.7c-0.2-3.2-0.5-10.9-0.5-10.9
				c0-0.2,0.2-0.4,0.4-0.4h0c0.2,0,0.4,0.2,0.4,0.4c0,0.1,0.2,7.7,0.5,10.9c0.2,2.7,2,5.6,6.6,5.9c4.4,0.2,18.9,0,19,0
				c0.2,0,0.4,0.1,0.4,0.4c0,0,0,0,0,0.1c0,0.2-0.2,0.4-0.4,0.4c0,0,0,0,0,0C162,354.9,155.6,355,150,355"/>
			<path id="패스_371" class="st1" d="M233.5,263.2c0,0-1.5,5.1-1.1,8s3.5,10.1,7.3,9.7s3.7-0.8,3.7-0.8l-3-10.4l-5-4.8
				L233.5,263.2z"/>
			<path id="패스_372" class="st2" d="M378.7,232.4c-0.5-18.2-12.1-43.4-16.5-48.7c-4.8-5.6-16.2-8.6-23-6.3
				c-6.7,2.3-8.1,5.1-8.1,9.3c-1.8-0.3-3.5,0.5-4.5,2c-2,2.6-2.6,8.9,0,16.7c4,12.1,6.5,37.8-2.1,52.6l4.5-0.8
				c0,0,5.1-16.8,1.3-39.4c2.7,10.1,3.8,20.5,3.1,30.9l3.6-1.7c-0.1-8.5-1.2-17-3.1-25.3c0.4,0.8,4.2,13.3,5,28.1L378.7,232.4z"/>
			<path id="패스_373" class="st20" d="M368.2,417.8c-1.1,18.8-0.6,37.7,1.4,56.5c0.3,3,0.6,6,0.8,8.9c0.1,1.3,0.2,2.6,0.3,3.9
				c0.2,2.1,0.3,4.1,0.5,5.7c0.3,3.4,0.4,5.5,0.4,5.5l-9.7-0.5c0,0-0.6-5.5-2.2-14.4c-1.3-7.5-3.3-17.5-6.2-28.8
				c-5.6-22-0.7-33-2.6-40.1c-1.9-7.1-11.5-45.7-11.9-71.4c-0.4-25.7,16.2-27.9,23.1-15.1C362.3,328,368.2,412,368.2,417.8"/>
			<path id="패스_374" class="st10" d="M370,226.2l5.2,1.7l0,17.7l-15.3,26.6l-15.5-23.3c0,0,0.4-14.3,0.5-14.3
				c0.5-0.4,1.1-0.8,1.6-1.2l4.2-1.8l7.4,1.4L370,226.2z"/>
			<g id="그룹_275" transform="translate(299.178 240.56)" class="st40">
				<g id="그룹_274">
					<g>
						<defs>
							<rect id="SVGID_00000049217395677504756650000012341094205802653577_" x="40" y="79.8" width="27" height="65.5"/>
						</defs>
						<clipPath id="SVGID_00000178182293656582323930000006555500554583656331_">
							<use xlink:href="#SVGID_00000049217395677504756650000012341094205802653577_"  style="overflow:visible;"/>
						</clipPath>
						<g id="그룹_273" style="clip-path:url(#SVGID_00000178182293656582323930000006555500554583656331_);">
							<path id="패스_375" class="st17" d="M67.1,145.3c-1.7-25.8-4-57.8-4-57.8C56.2,74.6,39.7,76.8,40,102.5
								c0.1,10.5,1.8,23.1,3.9,34.8C51.2,141.3,59.1,143.5,67.1,145.3"/>
						</g>
					</g>
				</g>
			</g>
			<g id="그룹_278" transform="translate(318.974 334.535)" class="st40">
				<g id="그룹_277">
					<g>
						<defs>
							<rect id="SVGID_00000145033768157604279430000001577340876692660877_" x="40" y="79.8" width="8.1" height="9.9"/>
						</defs>
						<clipPath id="SVGID_00000000905531327002166190000005519018447224533906_">
							<use xlink:href="#SVGID_00000145033768157604279430000001577340876692660877_"  style="overflow:visible;"/>
						</clipPath>
						<g id="그룹_276" style="clip-path:url(#SVGID_00000000905531327002166190000005519018447224533906_);">
							<path id="패스_376" class="st17" d="M40.1,82.8c-0.6,3.2,2.1,9.1,4.7,6.1c1.9-2.2,2.9-5.7,3.3-9.1c-0.6,1-1.4,1.8-2.4,2.4
								c-1.4,0.9-3.1,1.1-4.6,0.6C40.8,82.8,40.4,82.8,40.1,82.8"/>
						</g>
					</g>
				</g>
			</g>
			<g id="그룹_281" transform="translate(307.498 319.97)" class="st40">
				<g id="그룹_280">
					<g>
						<defs>
							<rect id="SVGID_00000005960839065085082160000007380901404597843079_" x="40" y="79.8" width="5.8" height="22.1"/>
						</defs>
						<clipPath id="SVGID_00000008867058568317532850000006486591998929222314_">
							<use xlink:href="#SVGID_00000005960839065085082160000007380901404597843079_"  style="overflow:visible;"/>
						</clipPath>
						<g id="그룹_279" style="clip-path:url(#SVGID_00000008867058568317532850000006486591998929222314_);">
							<path id="패스_377" class="st17" d="M43.9,101.9c0.2-0.8,0.7-1.4,1.5-1.7c-0.5-2.1-0.3-4.3,0.4-6.3
								c-1.7-4.6-4.3-8.8-5.5-13.5c-0.1-0.2-0.2-0.4-0.2-0.6c1.6,7.1,3,12.5,3.5,14.7C44.1,96.9,44.2,99.4,43.9,101.9"/>
						</g>
					</g>
				</g>
			</g>
			<path id="패스_378" class="st20" d="M383.6,417.8c5.7,18.5,10,37.4,12.9,56.5c0.5,3,0.9,6,1.4,8.9c0.2,1.3,0.4,2.6,0.6,3.9
				c0.4,2.1,0.7,4.1,1,5.7c0.6,3.4,1,5.5,1,5.5l9.5-0.5c0,0-0.7-5.5-1.4-14.4c-0.6-7.5-1.1-17.5-1.1-28.8c0-22-7.6-33-7.6-40.1
				c0.1-7.1-0.1-45.7-6.2-71.4c-6.1-25.7-23.3-27.9-26.9-15.1C366.7,328,382,412,383.6,417.8"/>
			<g id="그룹_284" transform="translate(326.683 240.56)" class="st40">
				<g id="그룹_283">
					<g>
						<defs>
							<rect id="SVGID_00000002354561346722625430000003735073041198367904_" x="40" y="79.8" width="31.8" height="65.5"/>
						</defs>
						<clipPath id="SVGID_00000152953531294132272770000015490954484046636718_">
							<use xlink:href="#SVGID_00000002354561346722625430000003735073041198367904_"  style="overflow:visible;"/>
						</clipPath>
						<g id="그룹_282" style="clip-path:url(#SVGID_00000152953531294132272770000015490954484046636718_);">
							<path id="패스_379" class="st17" d="M50.7,145.3C45.9,119.4,40,87.5,40,87.5c3.6-12.9,20.7-10.6,26.9,15.1
								c2.5,10.5,4,23.1,4.9,34.8C65.6,141.3,58.2,143.5,50.7,145.3"/>
						</g>
					</g>
				</g>
			</g>
			<g id="그룹_287" transform="translate(343.703 334.535)" class="st40">
				<g id="그룹_286">
					<g>
						<defs>
							<rect id="SVGID_00000179607967954804850790000001765576042076545416_" x="40" y="79.8" width="9.3" height="9.9"/>
						</defs>
						<clipPath id="SVGID_00000144312589834355093600000000469372615270839998_">
							<use xlink:href="#SVGID_00000179607967954804850790000001765576042076545416_"  style="overflow:visible;"/>
						</clipPath>
						<g id="그룹_285" style="clip-path:url(#SVGID_00000144312589834355093600000000469372615270839998_);">
							<path id="패스_380" class="st17" d="M48.8,82.8c1.4,3.2,0.2,9.1-3.2,6.1c-2.5-2.6-4.5-5.7-5.6-9.1c0.9,1,1.9,1.8,3,2.4
								c1.4,0.8,3.2,1.1,4.8,0.6C48.1,82.8,48.5,82.8,48.8,82.8"/>
						</g>
					</g>
				</g>
			</g>
			<g id="그룹_290" transform="translate(357.384 319.97)" class="st40">
				<g id="그룹_289">
					<g>
						<defs>
							<rect id="SVGID_00000052093032208227711050000000406801939576637063_" x="40" y="79.8" width="3.9" height="22.1"/>
						</defs>
						<clipPath id="SVGID_00000101801616290390371720000017067646733531700895_">
							<use xlink:href="#SVGID_00000052093032208227711050000000406801939576637063_"  style="overflow:visible;"/>
						</clipPath>
						<g id="그룹_288" style="clip-path:url(#SVGID_00000101801616290390371720000017067646733531700895_);">
							<path id="패스_381" class="st17" d="M44,101.9c-0.4-0.8-1.1-1.4-1.9-1.7c-0.1-2.2-0.8-4.4-2-6.3c0.5-4.6,2.1-8.8,2.1-13.5
								c0-0.2,0.1-0.4,0.1-0.6c0.2,7.1,0.2,12.5,0.2,14.7C42.6,97,43.1,99.5,44,101.9"/>
						</g>
					</g>
				</g>
			</g>
			<path id="패스_382" class="st47" d="M345.9,371.7L356,372l-3.2-26.1L345.9,371.7z"/>
			<path id="패스_383" class="st47" d="M379,341.3l5.6,26.1l12.6-5.5L379,341.3z"/>
			<g id="그룹_293" transform="translate(305.893 266.099)" class="st48">
				<g id="그룹_292">
					<g>
						<defs>
							<rect id="SVGID_00000067934841050918754830000005157040420547515024_" x="40" y="79.8" width="10.1" height="26.1"/>
						</defs>
						<clipPath id="SVGID_00000019644371011597870660000008800752983726186154_">
							<use xlink:href="#SVGID_00000067934841050918754830000005157040420547515024_"  style="overflow:visible;"/>
						</clipPath>
						<g id="그룹_291" style="clip-path:url(#SVGID_00000019644371011597870660000008800752983726186154_);">
							<path id="패스_384" class="st47" d="M40,105.6l10.1,0.3l-3.2-26.1L40,105.6z"/>
						</g>
					</g>
				</g>
			</g>
			<g id="그룹_296" transform="translate(339.012 261.486)" class="st48">
				<g id="그룹_295">
					<g>
						<defs>
							<rect id="SVGID_00000074430013527812898370000016859121486230974631_" x="40" y="79.8" width="18.2" height="26.1"/>
						</defs>
						<clipPath id="SVGID_00000041992571822636570760000013383290046352610952_">
							<use xlink:href="#SVGID_00000074430013527812898370000016859121486230974631_"  style="overflow:visible;"/>
						</clipPath>
						<g id="그룹_294" style="clip-path:url(#SVGID_00000041992571822636570760000013383290046352610952_);">
							<path id="패스_385" class="st47" d="M40,79.8l5.6,26.1l12.6-5.5L40,79.8z"/>
						</g>
					</g>
				</g>
			</g>
			<path id="패스_386" class="st3" d="M342.3,313.4c0,0-4.3,11.8-7,36.2l-8.7,18.5l19.4,6.1l7-25.4l3.2,26.1c0,0,16-0.9,29.5-4.8
				l-4.9-25.8l16.9,20.8l14.6-12.2l-16.4-17.7c0,0-6.7-16.6-14.7-28L342.3,313.4z"/>
			<g id="그룹_299" transform="translate(309.919 249.344)" class="st48">
				<g id="그룹_298">
					<g>
						<defs>
							<rect id="SVGID_00000129193598375574002050000012727512085248786864_" x="40" y="79.8" width="33.8" height="20.8"/>
						</defs>
						<clipPath id="SVGID_00000058584547082978752730000009760129005439007130_">
							<use xlink:href="#SVGID_00000129193598375574002050000012727512085248786864_"  style="overflow:visible;"/>
						</clipPath>
						<g id="그룹_297" style="clip-path:url(#SVGID_00000058584547082978752730000009760129005439007130_);">
							<path id="패스_387" class="st3" d="M49.7,100.5c5.7,0.2,12.2,0.5,17.6-1.7c1.4-0.5,2.7-1.4,3.9-2.4l-0.3-1.5l0.8,1
								c1.4-1.5,2.1-3.5,2.2-5.5c0.2-4.1-2.4-9.8-6.9-10.6c-5.8,4.5-12.2,8-18.3,12c-1.9,1.2-9.7,5.1-8.5,7.9
								c0.2,0.4,1.2,0.6,2.6,0.7l0.3-0.9l0.1,1C45.6,100.6,48.8,100.5,49.7,100.5"/>
						</g>
					</g>
				</g>
			</g>
			<g id="그룹_302" transform="translate(299.382 235.535)" class="st6">
				<g id="그룹_301">
					<g>
						<defs>
							<rect id="SVGID_00000061444503861213869020000013759140497164314552_" x="40" y="79.8" width="2.2" height="8.7"/>
						</defs>
						<clipPath id="SVGID_00000060736954666852973240000003633120724780046740_">
							<use xlink:href="#SVGID_00000061444503861213869020000013759140497164314552_"  style="overflow:visible;"/>
						</clipPath>
						<g id="그룹_300" style="clip-path:url(#SVGID_00000060736954666852973240000003633120724780046740_);">
							<path id="패스_388" class="st53" d="M40.7,86.5c0.4-1.6,0.8-3.1,1.2-4.7c0.1-0.4,0.3-1.3,0.4-2c-0.5,1.7-1.3,4.6-2.2,8.7
								C40.2,87.8,40.4,87.2,40.7,86.5"/>
						</g>
					</g>
				</g>
			</g>
			<g id="그룹_305" transform="translate(293.186 248.792)" class="st48">
				<g id="그룹_304">
					<g>
						<defs>
							<rect id="SVGID_00000054254316367700459400000005219042750301932440_" x="40" y="79.8" width="6.5" height="25.3"/>
						</defs>
						<clipPath id="SVGID_00000139270337162346294830000015155005757960885909_">
							<use xlink:href="#SVGID_00000054254316367700459400000005219042750301932440_"  style="overflow:visible;"/>
						</clipPath>
						<g id="그룹_303" style="clip-path:url(#SVGID_00000139270337162346294830000015155005757960885909_);">
							<path id="패스_389" class="st3" d="M41.7,103.1c1.2-1.9,2.9-3.4,4.8-4.6c-2.6-5.2-2.2-11.9-1.4-17.7c0-0.3,0.1-0.6,0.1-0.9
								c-1.1,5.5-2.2,12.5-3.2,21l-2,4.3C40.6,104.4,41.1,103.7,41.7,103.1"/>
						</g>
					</g>
				</g>
			</g>
			<g id="그룹_308" transform="translate(286.541 279.607)" class="st48">
				<g id="그룹_307">
					<g>
						<defs>
							<rect id="SVGID_00000045613389853554582670000015400861477533331389_" x="40" y="79.8" width="22.4" height="14.8"/>
						</defs>
						<clipPath id="SVGID_00000161600317961609405880000016614733602796525478_">
							<use xlink:href="#SVGID_00000045613389853554582670000015400861477533331389_"  style="overflow:visible;"/>
						</clipPath>
						<g id="그룹_306" style="clip-path:url(#SVGID_00000161600317961609405880000016614733602796525478_);">
							<path id="패스_390" class="st3" d="M62.4,79.8c-0.2,0.3-0.5,0.6-0.7,0.9c-0.5,1.1-1.1,2.1-1.8,3c-0.1,0.2-0.3,0.3-0.4,0.5
								c-0.1,0.1-0.2,0.3-0.3,0.4c-2.1,2.6-4.9,4.3-7.6,4c-3.4,0.9-6.9-1.1-7.8-4.5c-0.1-0.5-0.2-0.9-0.2-1.4c0-0.6,0-1.3,0.2-1.9
								L40,88.5l19.4,6.1l3-10.8C62.2,82.4,62.2,81.1,62.4,79.8"/>
						</g>
					</g>
				</g>
			</g>
			<g id="그룹_311" transform="translate(304.583 227.427)" class="st4">
				<g id="그룹_310">
					<g>
						<defs>
							<rect id="SVGID_00000100357191237716058620000005539214668149683372_" x="40" y="79.8" width="67.7" height="54.1"/>
						</defs>
						<clipPath id="SVGID_00000065766304419224651660000002976837003084199073_">
							<use xlink:href="#SVGID_00000100357191237716058620000005539214668149683372_"  style="overflow:visible;"/>
						</clipPath>
						<g id="그룹_309" style="clip-path:url(#SVGID_00000065766304419224651660000002976837003084199073_);">
							<path id="패스_391" class="st3" d="M107.8,125.4l-16.4-17.7c0,0-6.7-16.6-14.7-28L40,83.5c0.7,1.3,2.8,2.5,5.7,3.6
								c9.2,1.1,18.9,0,28,1.5c3.8,0.6,5.9,1.9,7.7,5.4c2.1,4.2,3,6.4,6.2,10c1.8,2,3.3,4.1,4.5,6.4c2.9,3,5.2,6.5,7,10.2
								c1.9,4.4,1.9,10-1.5,13.3L107.8,125.4z"/>
						</g>
					</g>
				</g>
			</g>
			<path id="패스_392" class="st13" d="M355,238c0.4,1.6,1.1,3.2,1.9,4.7l3.8-0.5c0.6-1.5,1-3.1,1.4-4.7l-2.9-2.7l-2.2,0.3
				L355,238z"/>
			<path id="패스_393" class="st47" d="M352.9,348.8c0,0-4.3-18.6-2.6-35.5L352.9,348.8z"/>
			<path id="패스_394" class="st47" d="M370.2,311.2l11.3,33.9C381.5,345.2,377.4,323.6,370.2,311.2"/>
			<g id="그룹_314" transform="translate(306.431 145.648)">
				<g id="그룹_313">
					<g>
						<defs>
							<rect id="SVGID_00000040556876067300911480000015802334767596820401_" x="40" y="79.8" width="23.9" height="18.6"/>
						</defs>
						<clipPath id="SVGID_00000168825131642345873240000005112730624948122248_">
							<use xlink:href="#SVGID_00000040556876067300911480000015802334767596820401_"  style="overflow:visible;"/>
						</clipPath>
						<g id="그룹_312" style="clip-path:url(#SVGID_00000168825131642345873240000005112730624948122248_);">
							<path id="패스_395" class="st12" d="M40,87.7c0,0,4,6.5,5,10.7c0,0,6-5.8,6.8-7.2c0,0,4,4.3,8,5.4c0,0,4.1-11,4.1-16.8
								L40,87.7z"/>
						</g>
					</g>
				</g>
			</g>
			<path id="패스_396" class="st10" d="M352.1,227.8l-5.6,5.6c2.5,2.2,4.4,5,5.5,8.1c0,0,5.4-5.7,6.2-8.5c2.1,2.9,4.7,5.5,7.6,7.6
				c0,0,2.7-9.2,4.6-15.2l-5.6-1.1L352.1,227.8z"/>
			<path id="패스_397" class="st17" d="M365.2,226.7l-5.8,6.8l-6.9-2.6c-0.1-1.4-1.2-4.6-2.3-7c-0.1-0.2-0.1-0.4-0.2-0.6
				c-0.6-1.5-1.2-2.6-1.2-2.6s7.3-5.1,11.5-5.8c0.7,0.5,1.6,0.7,2.4,0.5c0.2,0.3,0.3,0.7,0.4,1.1c0,0.2,0,0.4,0.1,0.5
				c0.2,2.2,0.6,4.4,1,6.6C364.5,224.6,364.8,225.7,365.2,226.7"/>
			<path id="패스_398" class="st13" d="M357.3,242.6c0,0-0.3,7.2-0.3,10.7c0,3.5-0.5,9.7-0.5,9.7l5,7.1l2.7-8.1l-2.2-10.5
				c0,0-1.1-6.7-1.6-9.3L357.3,242.6z"/>
			<g id="그룹_317" transform="translate(308.82 135.007)" class="st18">
				<g id="그룹_316">
					<g>
						<defs>
							<rect id="SVGID_00000126294337218407935580000006209170355370459058_" x="40" y="79.8" width="15.4" height="11.5"/>
						</defs>
						<clipPath id="SVGID_00000150083251283512400870000005445018519554756250_">
							<use xlink:href="#SVGID_00000126294337218407935580000006209170355370459058_"  style="overflow:visible;"/>
						</clipPath>
						<g id="그룹_315" style="clip-path:url(#SVGID_00000150083251283512400870000005445018519554756250_);">
							<path id="패스_399" class="st1" d="M55.4,88.6c-3.7,2.5-6.8,3.7-11.7,2c-0.8-0.3-2.6-1.8-2.6-2.3c-0.6-1.5-1.2-2.6-1.2-2.6
								s7.3-5.1,11.5-5.8c0.7,0.5,1.6,0.7,2.4,0.5c0.2,0.3,0.3,0.7,0.4,1.1c0,0.2,0,0.4,0.1,0.5C54.6,84.2,55,86.4,55.4,88.6"/>
						</g>
					</g>
				</g>
			</g>
			<path id="패스_400" class="st20" d="M364.9,213.4c-0.3,0.6-1.3,2.9-1.6,3.6c-0.1,0.2-0.2,0.4-0.3,0.5
				c-3.3,5.3-6.6,6.9-10.6,6.6c-0.7-0.1-1.4-0.2-2.1-0.3c-1.4-0.3-2.7-0.6-4.1-1.1c-7.1-2.3-8.8-6.7-10.3-11.4
				c-0.5-1.1-1.1-2.2-1.7-3.3c-0.6-1.3,1.3-4.6,1.4-5.9c0.3-2.5-0.3-5-1.6-7.2c3.8,4.3,7.5,3.5,7.5,3.5c-1.5-0.6-2.9-1.6-4-2.7
				c6.4,4.6,9.4,1.1,9.4,1.1c-1.2-0.4-2.3-1.2-3.2-2.2c0.7,0.5,1.4,1,2.2,1.3c2.2,1,5.4-0.6,5.4-0.6c-6.1-3.1-8-6.4-10.4-9.8
				c0,0,0.1,0,0.1-0.1c3.4,4.3,9.6,9.3,19.9,10l0,0C361.1,196.5,366.3,206.1,364.9,213.4"/>
			<g id="그룹_320" transform="translate(293.938 105.635)" class="st6">
				<g id="그룹_319">
					<g>
						<defs>
							<rect id="SVGID_00000088844498877307264470000010565280444302541699_" x="40" y="79.8" width="31.2" height="38.7"/>
						</defs>
						<clipPath id="SVGID_00000083807454097509102380000007833254182123733143_">
							<use xlink:href="#SVGID_00000088844498877307264470000010565280444302541699_"  style="overflow:visible;"/>
						</clipPath>
						<g id="그룹_318" style="clip-path:url(#SVGID_00000083807454097509102380000007833254182123733143_);">
							<path id="패스_401" class="st17" d="M66.8,89.8c-10.3-0.8-16.5-5.7-19.9-10c0,0-0.1,0.1-0.1,0.1c2.4,3.4,4.4,6.8,10.4,9.8
								c-0.3,0.2-0.7,0.3-1,0.4c1.9-0.2,3.8,0.2,5.5,1.2c5.5,3.4,8.6,12,2.9,16.6c-0.2,0.2-0.5,0.3-0.7,0.4c-0.7,1.1-1.6,2-2.7,2.7
								c-1.6,1-3.4,1.5-5.2,1.5c-1,0.8-2.3,1.2-3.6,1.2c-1,0.1-2.1-0.1-3-0.5c-1.1-0.2-2.1-0.8-2.9-1.6c-0.5-0.5-0.9-1.1-1.3-1.6
								c-2.1-1.9-3.4-4.5-3.7-7.2c-0.2-3.6,1.6-7,4.7-8.9c0.5-0.3,1-0.5,1.6-0.7c0.3-0.3,0.7-0.5,1.1-0.7c-2-0.3-3.9-1.1-5.4-2.3
								c1.2,1.1,2.6,2,4,2.7c0,0-3.7,0.8-7.5-3.5c1.3,2.2,1.8,4.7,1.6,7.2c-0.1,1.2-2,4.5-1.4,5.9c0.6,1.1,1.2,2.2,1.7,3.3
								c1.5,4.8,3.3,9.2,10.3,11.4c1.3,0.4,2.7,0.8,4.1,1.1c0.7,0.2,1.4,0.3,2.1,0.3c4,0.3,7.2-1.3,10.6-6.6
								c0.1-0.2,0.2-0.4,0.3-0.5c0.4-0.7,1.4-2.9,1.6-3.6C72.4,100.4,67.1,90.8,66.8,89.8"/>
						</g>
					</g>
				</g>
			</g>
			<path id="패스_402" class="st1" d="M332.6,208.1c0,0-1.2-1.1-1.5,0.8c-0.3,1.9,4.8,8.9,6.8,9.1
				C336.4,214.5,334.6,211.2,332.6,208.1"/>
			<path id="패스_403" class="st1" d="M362.9,194.3c0,0,2.3-0.8,3.5,0.7c2.4,2.9,2.4,9.2-0.4,10.9
				C366,205.9,364.8,200.6,362.9,194.3"/>
			<path id="패스_404" class="st22" d="M343,204.8c0.5,1,0.4,2.1-0.2,2.4c-0.6,0.3-1.5-0.4-1.9-1.4c-0.5-1-0.4-2.1,0.2-2.4
				C341.6,203.1,342.5,203.8,343,204.8"/>
			<path id="패스_405" class="st22" d="M350.9,201c0.5,1,0.4,2.1-0.2,2.4c-0.6,0.3-1.5-0.4-1.9-1.4c-0.5-1-0.4-2.1,0.2-2.4
				C349.6,199.3,350.5,199.9,350.9,201"/>
			<path id="패스_406" class="st22" d="M337.2,204.7c-0.1-0.6,0-1.3,0.2-1.9c0.2-0.6,0.6-1.1,1.1-1.6c0.5-0.5,1-0.8,1.6-1
				c0.6-0.2,1.2-0.3,1.9-0.2l0.1,0c0.2,0,0.4,0.2,0.3,0.4c0,0.2-0.1,0.3-0.3,0.3c-1,0.2-2,0.7-2.7,1.4c-0.7,0.7-1.2,1.6-1.5,2.6
				c-0.1,0.2-0.3,0.3-0.5,0.3C337.3,205.1,337.2,204.9,337.2,204.7L337.2,204.7z"/>
			<path id="패스_407" class="st15" d="M383.3,307.2c-1.2,2.2-9.2,5-18.7,4.3c-5.9-0.5-15.2,2.3-18.7,3.1
				c-3.5,0.8-7.7-0.6-3.5-6.6c4.3-6,3-34.3,3-34.3s-6.7-34.8-6-34.7c1.2-0.4,2.3-0.9,3.3-1.6c0.2-0.1,0.5-0.3,0.7-0.4
				c1.2-0.7,2.3-1.3,2.3-1.3s2.7,19.2,15.4,32.2c0,0,8.5-16.5,11.5-35.1l2.1,4.5l0.5,1.1l6.5,13.9l-0.3,49.1
				C381.6,301.4,385,304.2,383.3,307.2"/>
			<g id="그룹_323" transform="translate(299.347 153.01)" class="st4">
				<g id="그룹_322">
					<g>
						<defs>
							<rect id="SVGID_00000121241392661446166740000005808043765184160140_" x="40" y="79.8" width="44.4" height="82"/>
						</defs>
						<clipPath id="SVGID_00000156584297988064840340000000325641626321097088_">
							<use xlink:href="#SVGID_00000121241392661446166740000005808043765184160140_"  style="overflow:visible;"/>
						</clipPath>
						<g id="그룹_321" style="clip-path:url(#SVGID_00000156584297988064840340000000325641626321097088_);">
							<path id="패스_408" class="st61" d="M82.2,148.4l0.3-49.1L76,85.4l-0.5-1.1l-2.1-4.5c-0.3,1.6-0.6,3.1-0.9,4.6
								c0.4,0.5,0.6,1.2,0.4,1.9c-0.4,1.6-0.7,3.1-1.1,4.7c-0.2,8.8-1,18-4.3,26c1.6,4.2,2.7,8.6,3.2,13c0.1,0.3,0.2,0.5,0.3,0.8
								c0.3,4.7,0.1,9.2-3.6,12.5c-2.7,2.3-7.5,5.1-11.1,5c-7.6-0.1-3.1-14.3-2.2-18.3c0,0,0,0,0,0c0.6-3,1.4-6,2.4-8.9
								c-2.4-5.1-4.2-10.4-5.3-16c-0.9-3.8-1.9-7.5-1.7-11.3c-1.3-3.6-2.2-7.2-2.9-11c0,0-1,0.6-2.3,1.3c-0.2,0.1-0.5,0.3-0.7,0.4
								c-1,0.7-2.2,1.2-3.3,1.6c-0.7-0.1,6,34.7,6,34.7s0.8,18.4-1.1,28.7c0.7-0.5,1.5-0.4,2.2,0c0.1,0.1,0.3,0.2,0.4,0.2
								c0.5-0.8,1.5-1.1,2.3-0.7c9.5,3.6,19-4.4,27.8-7.2c1.2-0.3,2.4,0.4,2.8,1.6c3.9,10.2-16,13.2-28,12c-0.1,0.2-0.2,0.4-0.4,0.6
								c-0.1,0.3-0.3,0.6-0.5,0.8c-1.7,1.7-3.8,2.9-6.1,3.6c-1.2,0.3-2.5-0.4-2.7-1.7c-0.2-0.7,0-1.5,0.6-2.1c0.9-1,2-1.8,3.1-2.4
								c-0.5-0.2-1-0.4-1.5-0.7c-0.3-0.2-0.5-0.4-0.7-0.7c-0.3,0.8-0.6,1.7-1.1,2.4c-4.2,6-0.1,7.4,3.5,6.6
								c3.5-0.8,12.8-3.6,18.7-3.2c9.5,0.8,17.5-2.1,18.7-4.3C85.6,151.2,82.2,148.4,82.2,148.4"/>
						</g>
					</g>
				</g>
			</g>
			<path id="패스_409" class="st22" d="M352.6,197.6c-0.5,0-1-0.1-1.5-0.1c-0.4,0-0.9,0-1.3,0c-0.9,0.1-1.9,0.4-2.8,0.7l-0.2,0
				c-0.2,0.1-0.4,0-0.5-0.3c0-0.1,0-0.3,0.1-0.4c0.9-0.8,1.9-1.3,3.1-1.5c1.2-0.1,2.4,0.1,3.4,0.8c0.2,0.1,0.2,0.3,0.1,0.5
				c-0.1,0.1-0.2,0.2-0.4,0.2L352.6,197.6z"/>
			<path id="패스_410" class="st10" d="M375.3,238.4c-4.9,21-13.3,33.3-13.4,33.5l-0.3,0.3l-0.3-0.3c-9.9-9.1-16.4-21.3-18.6-34.5
				c0.3-0.1,0.5-0.3,0.7-0.4c0.9,5.6,2.6,11.1,5.1,16.3c3.2,6.6,7.6,12.7,13,17.8c1.5-2.1,8.9-14.4,13.3-33.8L375.3,238.4z"/>
			<g id="그룹_326" transform="translate(304.209 121.148)" class="st6">
				<g id="그룹_325">
					<g>
						<defs>
							<rect id="SVGID_00000058547859777672288680000004045164718667181999_" x="40" y="79.8" width="4.4" height="7.2"/>
						</defs>
						<clipPath id="SVGID_00000140709169690101480880000003831118612313193145_">
							<use xlink:href="#SVGID_00000058547859777672288680000004045164718667181999_"  style="overflow:visible;"/>
						</clipPath>
						<g id="그룹_324" style="clip-path:url(#SVGID_00000140709169690101480880000003831118612313193145_);">
							<path id="패스_411" class="st24" d="M40.6,80l1.8,3.9c0.1,0.1,0,0.3-0.1,0.4l0,0c-0.3,0.3-0.6,0.7-0.8,1
								c-0.1,0.1-0.1,0.2-0.2,0.4c-0.1-0.2,0,0,0.2,0.1c0.8,0.3,1.7,0.5,2.6,0.5h0c0.2,0,0.3,0.1,0.3,0.3c0,0.1-0.1,0.3-0.2,0.3
								c-1,0.3-2.1,0.2-3.1-0.2c-0.2-0.2-0.6-0.2-0.8-0.9c0-0.3,0.2-0.7,0.4-0.9c0.3-0.4,0.8-0.8,1.2-1l0,0l-0.1,0.4l-1.8-3.9
								c-0.1-0.2,0-0.3,0.1-0.4C40.3,79.7,40.5,79.8,40.6,80C40.6,80,40.6,80,40.6,80"/>
						</g>
					</g>
				</g>
			</g>
			<g id="그룹_329" transform="translate(299.959 129.392)" class="st4">
				<g id="그룹_328">
					<g>
						<defs>
							<rect id="SVGID_00000094616698235612592060000000201369975813751455_" x="40" y="79.8" width="5.3" height="5.3"/>
						</defs>
						<clipPath id="SVGID_00000147185039091873324660000014080409444896342149_">
							<use xlink:href="#SVGID_00000094616698235612592060000000201369975813751455_"  style="overflow:visible;"/>
						</clipPath>
						<g id="그룹_327" style="clip-path:url(#SVGID_00000147185039091873324660000014080409444896342149_);">
							<path id="패스_412" class="st26" d="M45.1,81.4c0.6,1.3,0,2.9-1.3,3.5c-1.3,0.6-2.9,0-3.5-1.3c-0.6-1.3,0-2.9,1.3-3.5
								c0,0,0,0,0,0C42.9,79.4,44.5,80,45.1,81.4"/>
						</g>
					</g>
				</g>
			</g>
			<g id="그룹_332" transform="translate(311.696 123.474)" class="st4">
				<g id="그룹_331">
					<g>
						<defs>
							<rect id="SVGID_00000057110191188759652650000012777916018280413613_" x="40" y="79.8" width="5.3" height="5.3"/>
						</defs>
						<clipPath id="SVGID_00000094592987524475151960000000680290536624779423_">
							<use xlink:href="#SVGID_00000057110191188759652650000012777916018280413613_"  style="overflow:visible;"/>
						</clipPath>
						<g id="그룹_330" style="clip-path:url(#SVGID_00000094592987524475151960000000680290536624779423_);">
							<path id="패스_413" class="st26" d="M45.1,81.4c0.6,1.3,0,2.9-1.3,3.5c-1.3,0.6-2.9,0-3.5-1.3c-0.6-1.3,0-2.9,1.3-3.5
								c0,0,0,0,0,0C42.9,79.4,44.5,80,45.1,81.4C45.1,81.4,45.1,81.4,45.1,81.4"/>
						</g>
					</g>
				</g>
			</g>
			<path id="패스_414" class="st31" d="M353.7,206.3c-0.3,1,0.2,2.2,0.3,3.5c0.1,0.3,0.1,0.7,0,1c0,0.3,0,0.5,0,0.8
				c-0.2,1.2-0.8,2.3-1.8,3.1c-1.2,0.4-2.5,0.4-3.7-0.2c-0.3-0.1-0.5-0.2-0.8-0.4c-0.3-0.2-0.6-0.3-0.9-0.6c-0.9-0.8-2-1.5-3.1-2
				c0,0,0.5-0.1,1.3-0.3c0.1,0,0.2-0.1,0.2-0.1c1-0.8,2.1-1.6,3.2-2.3l0.3-0.2c2.2-1.1,3.4-1.1,3.9-1.6
				C353.2,207,353.5,206.7,353.7,206.3"/>
			<g id="그룹_335" transform="translate(307.815 131.064)" class="st32">
				<g id="그룹_334">
					<g>
						<defs>
							<rect id="SVGID_00000036253612986195559320000009278892442092309438_" x="40" y="79.8" width="6.3" height="4.2"/>
						</defs>
						<clipPath id="SVGID_00000016770047135797977140000008089051217352617884_">
							<use xlink:href="#SVGID_00000036253612986195559320000009278892442092309438_"  style="overflow:visible;"/>
						</clipPath>
						<g id="그룹_333" style="clip-path:url(#SVGID_00000016770047135797977140000008089051217352617884_);">
							<path id="패스_415" class="st24" d="M46.3,79.8c0,0.3,0,0.5,0,0.8c-0.2,1.2-0.8,2.3-1.8,3.1c-1.2,0.4-2.5,0.3-3.7-0.2
								c-0.3-0.1-0.5-0.2-0.8-0.4c0.7-1,1.7-1.8,2.7-2.4C43.8,80.2,45.1,79.9,46.3,79.8"/>
						</g>
					</g>
				</g>
			</g>
			<path id="패스_416" class="st28" d="M328.5,255.5c0,0,8,23.8,7.5,28.5c-0.5,4.7-7.2,19.6-7.2,19.6l12.3,5.1
				c3.6,1.7,8.1-0.7,9.1-4.8l3.8-9.5l1.2-17c0,0-8.6-13.6-9.2-44.6c0,0-12.7,8.3-16.6,10.7C325.5,245.9,328.5,255.5,328.5,255.5"/>
			<g id="그룹_338" transform="translate(317.264 162.28)">
				<g id="그룹_337">
					<g>
						<defs>
							<rect id="SVGID_00000047021951483123467880000013941164913856877442_" x="40" y="79.8" width="3.1" height="4"/>
						</defs>
						<clipPath id="SVGID_00000018210088773433430830000016277122611111952548_">
							<use xlink:href="#SVGID_00000047021951483123467880000013941164913856877442_"  style="overflow:visible;"/>
						</clipPath>
						<g id="그룹_336" style="clip-path:url(#SVGID_00000018210088773433430830000016277122611111952548_);">
							<path id="패스_417" class="st12" d="M40,80.3c0.3,1.2,0.8,2.3,1.4,3.4c0.8,0.9,1.7-3.9,1.7-3.9L40,80.3z"/>
						</g>
					</g>
				</g>
			</g>
			<path id="패스_418" class="st28" d="M390.5,243.2c0,0-5.3,24.7-4.1,29.1c1.1,4.4,12.4,20.7,12.4,20.7l-11.8,9.2
				c-3.2,2.9-8,2.1-9.6-1.6l-6.3-14.6l-3.4-16.2c0,0,6.2-10.7,4.3-41.5c0,0-0.4-1.4,1.1-1.4c1.3,0,14.8,2.3,14.8,2.3
				S399,230.6,390.5,243.2"/>
			<path id="패스_419" class="st39" d="M382.1,303.6c-0.4,0-0.8-0.1-1.2-0.2c-1.2-0.3-2.1-1.1-2.8-2.1l-6.5-16.3l-3.3-14.7
				c0-0.1,0-0.2,0.1-0.3c6.3-8.9,10.4-29.4,11-32.4l-5.2-1.3c-0.1,0-0.2-0.1-0.3-0.2c-0.1-0.1,0-0.3,0-0.4l4.1-7.6
				c0.1-0.2,0.3-0.3,0.5-0.2c0,0,0,0,0,0c0.2,0.1,0.3,0.4,0.2,0.6c0,0,0,0,0,0l-3.8,7.1l5.1,1.3c0.2,0.1,0.3,0.3,0.3,0.5
				c-0.2,0.9-4.2,23.2-11.1,33l3.2,14.5L379,301c0.5,0.8,1.3,1.4,2.2,1.7c1.3,0.3,2.6,0,3.7-0.7c4.3-2.5,12.2-9,12.3-9
				c0.2-0.2,0.4-0.1,0.6,0c0.2,0.2,0.1,0.4,0,0.6c0,0,0,0,0,0c-0.1,0.1-8,6.6-12.4,9.1C384.3,303.3,383.3,303.6,382.1,303.6"/>
			<path id="패스_420" class="st39" d="M343.4,308.5c-0.3,0-0.6,0-1,0c0,0-0.1,0-0.1,0l-9.1-3.2c-0.2-0.1-0.3-0.3-0.3-0.5
				c0.1-0.2,0.3-0.3,0.5-0.3c0,0,0,0,0,0l9.1,3.2c4.4,0.3,5.5-1.9,5.5-2l4.3-11.9l1.6-15.8c-8.2-7-15.4-27.8-15.7-28.7
				c-0.1-0.2,0-0.3,0.1-0.4l5.5-5.5L339,238c-0.2-0.2-0.2-0.4,0-0.6s0.4-0.2,0.6,0c0,0,0,0,0,0l5.1,5.6c0.1,0.2,0.1,0.4,0,0.6
				l-5.6,5.6c0.8,2.4,7.8,21.9,15.5,28.2c0.1,0.1,0.2,0.2,0.1,0.4l-1.7,16.1l-4.3,12C348.8,306,347.7,308.5,343.4,308.5"/>
			<g id="그룹_341" transform="translate(287.365 153.013)" class="st4">
				<g id="그룹_340">
					<g>
						<defs>
							<rect id="SVGID_00000021109834300411326570000017150698023927368617_" x="40" y="79.8" width="20.8" height="75.7"/>
						</defs>
						<clipPath id="SVGID_00000008834961827477068180000013013025550005597099_">
							<use xlink:href="#SVGID_00000021109834300411326570000017150698023927368617_"  style="overflow:visible;"/>
						</clipPath>
						<g id="그룹_339" style="clip-path:url(#SVGID_00000008834961827477068180000013013025550005597099_);">
							<path id="패스_421" class="st28" d="M41.4,150.6l11.7,4.9c-1-1.7-0.9-3.8,0.4-5.3c1.3-1.7,2.4-3.5,3.3-5.4
								c1.1-2.6,1.8-5.4,2.6-8.1c2.3-10.8,1.2-23.5,1-33.6c0-0.6,0.1-1.1,0.3-1.6c-1.2-7.2-1.8-14.4-1.9-21.7l-0.9,0.6
								c0,0.1,0,0.2,0,0.3c1.4,5.1,0.8,10.4,0.6,15.7c0.1,1.5,0.2,2.9,0.4,4.4c0.4,5-7.6,6-8.6,1.2c0-0.2-0.1-0.4-0.1-0.6
								c-0.3-0.6-0.5-1.3-0.5-2l0-0.6c-0.3-0.5-0.6-1-0.8-1.5c-1-3.4-1.3-6.9-0.9-10.4c-2.3,1.5-4.4,2.8-5.7,3.6
								c-3.9,2.4-0.9,12-0.9,12s8,23.8,7.5,28.5C48.1,135.7,41.4,150.6,41.4,150.6"/>
						</g>
					</g>
				</g>
			</g>
			<g id="그룹_344" transform="translate(327.69 165.702)" class="st4">
				<g id="그룹_343">
					<g>
						<defs>
							<rect id="SVGID_00000150789936678942851480000006522969756261782413_" x="40" y="79.8" width="31.1" height="51.5"/>
						</defs>
						<clipPath id="SVGID_00000137839080217172914640000005989430080154848163_">
							<use xlink:href="#SVGID_00000150789936678942851480000006522969756261782413_"  style="overflow:visible;"/>
						</clipPath>
						<g id="그룹_342" style="clip-path:url(#SVGID_00000137839080217172914640000005989430080154848163_);">
							<path id="패스_422" class="st28" d="M42.3,113.2c11.7-1,19.6,8.1,23.7,18.1l5.1-3.9c0,0-11.3-16.3-12.4-20.7
								C57.7,103,61,86,62.3,79.8c-0.3,0.2-0.6,0.3-0.9,0.3c-0.8,2.8-1.7,5.6-2.8,8.3c-0.4,2.7-0.8,5.4-1.3,7.9
								c-0.2,2.2-0.6,4.4-1.1,6.5c-1.1,4.1-4.5,10.9-9.9,9.6c-4.7-1.1-5.3-7-4.8-12.6c-0.4,1.4-0.9,2.8-1.6,4.2l1.9,9.2
								C42.1,113.2,42.2,113.2,42.3,113.2"/>
						</g>
					</g>
				</g>
			</g>
			<path id="패스_423" class="st28" d="M389.1,229.8c0.6-0.9,1.5-1.4,2.6-1.6c0.8-0.1,1.7,2.2,1.7,2.2s3.4,1.9,12.4,14.5
				c9.1,12.5,20.7,22.3,23.5,25.8c2.8,3.5,4.9,6.8,4.1,9.4c-0.8,2.6-21.5-6.6-21.5-6.6l-26-18.8L389.1,229.8z"/>
			<g id="그룹_347" transform="translate(345.834 150.55)" class="st4">
				<g id="그룹_346">
					<g>
						<defs>
							<rect id="SVGID_00000109716981183334136250000012401640104253100472_" x="40" y="79.8" width="47.7" height="50.3"/>
						</defs>
						<clipPath id="SVGID_00000182523807320533328370000014055447582562835374_">
							<use xlink:href="#SVGID_00000109716981183334136250000012401640104253100472_"  style="overflow:visible;"/>
						</clipPath>
						<g id="그룹_345" style="clip-path:url(#SVGID_00000182523807320533328370000014055447582562835374_);">
							<path id="패스_424" class="st28" d="M61.6,106.4c-9.4-6.7-17.6-15-18.4-26.6L40,104.1L66,123c0,0,20.7,9.3,21.5,6.6
								c0.3-1.1,0.2-2.3-0.2-3.3C79.9,118.6,70.8,112.9,61.6,106.4"/>
						</g>
					</g>
				</g>
			</g>
			<path id="패스_425" class="st70" d="M347,270.7c0,29.5-23.9,53.4-53.4,53.4c-29.5,0-53.4-23.9-53.4-53.4s23.9-53.4,53.4-53.4
				c0,0,0,0,0,0C323.1,217.4,347,241.3,347,270.7"/>
			<path id="패스_426" class="st20" d="M233.8,262.6c0.1-1.5,0.9-2.8,2.2-3.6c2.1-1.2,5-5.4,5-5.4s1.4-2.2,2.1-1.4
				s-1.6,4.4-1.6,4.4l-2.7,3.9l-2.9,1.7C235.9,262.3,234.3,264.6,233.8,262.6"/>
			<path id="패스_427" class="st1" d="M242.9,253.1c-1.3,2-4.3,6.6-6.5,7.7c-0.1,0.1-0.2,0.3-0.3,0.4l-0.6,0.6l0,0
				c0,0.2-0.1,0.5-0.2,0.7c0.2,0,0.4-0.1,0.6-0.2l2.9-1.7l2.7-3.9c0,0,2.3-3.6,1.6-4.4c0,0,0,0,0,0
				C243.2,252.6,243.1,252.9,242.9,253.1"/>
			<path id="패스_428" class="st1" d="M242.4,267.1c0,0,0.2,0.5-0.3,2.1s-0.9,1.8-2.6,2.5c-1.7,0.7-1.3-1.1-0.6-1.6
				c0.3-0.2,0.7-0.4,1-0.6c0-0.6,0.1-1.1,0.4-1.6C240.9,267.4,242.4,267.1,242.4,267.1"/>
			<path id="패스_429" class="st17" d="M395.3,257.6c-0.7-2.2-1.6-4.3-2.7-6.3c-0.6-1.2-2.4-1.1-2.8-2.8c-0.6-2.6-0.7-5.2-0.4-7.8
				c0.2-2.4-1.9-1.9-3,0.4c-1,2-0.6,3.5,0.1,6.4c0.7,2.9-6.2,2.3-11.1,2.3c-4.9,0-8.7-0.1-10.1-0.1s-2.6,1.5,0.5,2.4
				c3,0.9,15,1,15,1h-0.6c-1.8,0-3.6,0-3.6,0s-2,0-1.7,1.3c0.1,0.3,0.2,0.6,0.5,0.8c0.1,0.1,0.2,0.2,0.4,0.3
				c0.4,0.3,0.9,0.5,1.4,0.6l0.6,0.1l0.2,0l0.5,0.1c-1.1,0-1.8,0-1.8,0s-1.6,0.2-1.3,1.5c0.1,0.5,0.4,1,0.9,1.2c0,0,0.1,0,0.1,0.1
				c0.1,0,0.2,0.1,0.3,0.1l0.1,0c0.1,0,0.1,0.1,0.2,0.1c0,0,0,0,0.1,0l0.1,0l3.8,0.4l0.3,0l0.7,0c-1.2,0-2.5,0-3.7-0.2
				c-0.3,0-0.5,0.1-0.7,0.2v0c-0.1,0-0.1,0.1-0.1,0.1c-0.1,0-0.1,0.1-0.2,0.2c-0.1,0.2-0.1,0.4-0.1,0.5c0,0-0.4,0.4,0.7,1.1
				c1.7,0.8,3.5,1.4,5.3,1.8c2.5,0.8,5.1,1,7.7,0.8l4.4,3.8l4.9-7.3L395.3,257.6z"/>
			<g id="그룹_350" transform="translate(323.828 170.064)" class="st6">
				<g id="그룹_349">
					<g>
						<defs>
							<rect id="SVGID_00000070118920411116436070000004768821168570260396_" x="40" y="79.8" width="17.5" height="3.4"/>
						</defs>
						<clipPath id="SVGID_00000144307322060766168840000009861159760264796055_">
							<use xlink:href="#SVGID_00000070118920411116436070000004768821168570260396_"  style="overflow:visible;"/>
						</clipPath>
						<g id="그룹_348" style="clip-path:url(#SVGID_00000144307322060766168840000009861159760264796055_);">
							<path id="패스_430" class="st17" d="M51.6,82.1c-2.3-0.1-4.6-0.1-6.9-0.4c-1.6-0.1-3.1-0.7-4.3-1.9
								c-0.8,0.5-0.9,1.7,1.4,2.2c4.9,1.1,12,1.1,15.6,1.2C57.4,82.9,54.6,82.4,51.6,82.1"/>
						</g>
					</g>
				</g>
			</g>
			<g id="그룹_353" transform="translate(338.482 159.314)" class="st6">
				<g id="그룹_352">
					<g>
						<defs>
							<rect id="SVGID_00000114767431659074461700000013158224104776421779_" x="40" y="79.8" width="21.5" height="29.1"/>
						</defs>
						<clipPath id="SVGID_00000005253670656399709780000010352592356355655611_">
							<use xlink:href="#SVGID_00000114767431659074461700000013158224104776421779_"  style="overflow:visible;"/>
						</clipPath>
						<g id="그룹_351" style="clip-path:url(#SVGID_00000005253670656399709780000010352592356355655611_);">
							<path id="패스_431" class="st17" d="M56.8,98.3c-0.7-2.2-1.6-4.4-2.7-6.4c-0.8-1.3-2.3-0.9-2.8-2.7
								c-0.6-2.6-0.7-5.2-0.4-7.8c0.1-1-0.2-1.5-0.6-1.6c0.1,0.1,0.1,0.3,0.2,0.5c0.2,2-1.5,2.3-1.1,5.8c0,0.1-0.1,0.1-0.2,0.2
								c-0.3,0.5-0.8,0.8-1.3,0.7c0.1,0.4,0.2,0.7,0.3,1.2c0.1,0.3,0.1,0.6-0.1,0.9c0.1,0.1,0.2,0.2,0.2,0.3c0.3,0.6,0.3,1.2,0,1.8
								c1.6,1.6,1.9,4.6,2.1,6.6c0.1,1.6,0.3,3.5-1.2,4.6c-0.5,0.4-1.1,0.6-1.7,0.5c-0.2,0.1-0.4,0.1-0.6,0.1
								c-2.2-0.2-4.5,0-6.7-0.2c1.5,0.6,3,1,4.5,1.4c2.5,0.8,5.1,1,7.7,0.8l4.4,3.8l4.9-7.3L56.8,98.3z"/>
						</g>
					</g>
				</g>
			</g>
			<path id="패스_432" class="st28" d="M433.4,280.2c0,0,0.8-5.4-11.6-9.8s-25.4-13.5-25.4-13.5s-8.2,4.4-7,12.9
				c0,0,11.3,7.7,18,11.9C414.2,285.8,427.9,291,433.4,280.2"/>
			<g id="그룹_356" transform="translate(349.263 185.054)" class="st4">
				<g id="그룹_355">
					<g>
						<defs>
							<rect id="SVGID_00000165214946552262314580000017804450066790710460_" x="40" y="79.8" width="44.1" height="21.8"/>
						</defs>
						<clipPath id="SVGID_00000113346616242206835430000011375911812744100774_">
							<use xlink:href="#SVGID_00000165214946552262314580000017804450066790710460_"  style="overflow:visible;"/>
						</clipPath>
						<g id="그룹_354" style="clip-path:url(#SVGID_00000113346616242206835430000011375911812744100774_);">
							<path id="패스_433" class="st28" d="M67.1,90.8c-2.4,0.4-4.8,0.1-7.1-0.6c-6.9-2.1-13.6-6.2-19.5-10.4
								c-0.5,1.6-0.6,3.3-0.4,4.9c0,0,11.3,7.7,18,11.9s20.4,9.4,26-1.4c0-0.1,0-0.3,0-0.4C78.7,89.8,74,89.9,67.1,90.8"/>
						</g>
					</g>
				</g>
			</g>
			<path id="패스_434" class="st20" d="M235.4,268.4c0,0,0.1-0.9,2.1-1.2c1.1-0.2,2.3-0.3,3.5-0.4c0,0,1.7-0.2,1.5,0.7
				s-1.7,1.4-1.7,1.4l-1.6,0.3l-2.7,0.5C236.5,269.7,235.2,270,235.4,268.4"/>
			<path id="패스_435" class="st20" d="M243.1,261.1c0,0.2,0,0.3,0,0.5c-0.1,0.3-0.3,0.5-0.5,0.7c-0.1,0.1-0.2,0.1-0.3,0.2
				c-0.1,0.1-0.2,0.1-0.3,0.2c-0.2,0.1-0.3,0.1-0.5,0.2l-2.8,0.9l-3.7,1c0,0,0,0-0.1,0c-0.1,0-0.2,0-0.3,0.1c-0.2,0-0.3,0-0.5,0
				c-0.1,0-0.2-0.1-0.3-0.2c-0.1,0-0.1-0.1-0.1-0.1c-0.1-0.1-0.2-0.3-0.2-0.4c0-0.1-0.1-0.2-0.1-0.3c-0.1-0.2-0.1-0.4,0-0.6
				c0,0,0.1-1.3,2.8-2c2.7-0.7,5.4-1.3,5.4-1.3c0.7-0.2,1.3,0.3,1.5,0.9C243.1,261,243.1,261,243.1,261.1"/>
			<path id="패스_436" class="st20" d="M234.2,266c0,0,0.1-1.2,2.8-1.9c2.7-0.7,5.4-1.3,5.4-1.3s1.5,0,1.3,1.2
				c-0.1,0.8-0.7,1.4-1.4,1.7l-2.8,1l-3.7,1C235.7,267.6,234,268.3,234.2,266"/>
			<path id="패스_437" class="st1" d="M242.1,266.8c0,0.5-0.3,1-0.8,1.2c-0.6,0.3-1.3,0.5-1.9,0.5c-1.2,0.3-2.4,0.6-3.6,0.8
				c-0.1,0-0.1,0-0.2,0c0.3,0.6,1,0.4,1,0.4l2.7-0.5l1.6-0.3c0,0,1.5-0.5,1.7-1.4C242.5,267.1,242.3,266.9,242.1,266.8
				C242.1,266.8,242.1,266.8,242.1,266.8"/>
			<path id="패스_438" class="st1" d="M243.1,261.6c-0.1,0.3-0.3,0.5-0.5,0.7c-0.1,0.1-0.2,0.1-0.3,0.2c-0.1,0.1-0.2,0.1-0.3,0.2
				c-0.2,0.1-0.3,0.1-0.5,0.2l-2.8,0.9l-3.7,1c0,0,0,0-0.1,0c-0.3,0.1-0.5,0.1-0.8,0c-0.1,0-0.2-0.1-0.3-0.2c-0.1,0-0.1-0.1-0.1-0.1
				c-0.1-0.1-0.2-0.3-0.2-0.4c0-0.1-0.1-0.2-0.1-0.3c0.8,0.7,2-0.1,3.2-0.8c2.5-0.4,3-0.2,5.5-1.1c0.2,0,0.3-0.1,0.4-0.2h0.1
				C242.8,261.6,242.9,261.6,243.1,261.6"/>
			<path id="패스_439" class="st1" d="M243.3,263.2c0.1,0.4,0.1,0.7-0.1,1.1c-0.2,0.4-0.4,0.7-1.6,1c-1.7,0.4-3.4,0.9-5.1,1.3
				c-0.7,0.3-1.5,0.4-2.3,0.2c0.1,0.6,0.6,1,1.2,1c0.1,0,0.2,0,0.3-0.1l3.7-1l2.8-1c0.7-0.3,1.3-0.9,1.4-1.7
				C243.7,263.7,243.6,263.4,243.3,263.2"/>
		</g>
	</g>
</g>
<g id="그룹_399">
	<g>
		<g id="그룹_398">
			<path id="패스_440" class="st74" d="M171.3,432.9H69.1c-2,0-3.6-1.6-3.6-3.6l0,0v-50.4c0-2,1.6-3.6,3.6-3.6h102.3
				c2,0,3.6,1.6,3.6,3.6v50.4C175,431.3,173.3,432.9,171.3,432.9C171.3,432.9,171.3,432.9,171.3,432.9"/>
			<g id="그룹_361" transform="translate(25.375 295.434)">
				<g id="그룹_360">
					<g>
						<defs>
							<rect id="SVGID_00000021838682301844678390000017699605734085804445_" x="40" y="79.8" width="109.5" height="56.3"/>
						</defs>
						<clipPath id="SVGID_00000062889577943495441590000012165573153761635747_">
							<use xlink:href="#SVGID_00000021838682301844678390000017699605734085804445_"  style="overflow:visible;"/>
						</clipPath>
						<g id="그룹_359" style="clip-path:url(#SVGID_00000062889577943495441590000012165573153761635747_);">
							<path id="패스_441" class="st74" d="M149.6,97.9v21.6c0,7.4-4.5,14-11.3,16.7v-0.2c0-10-8.1-18.1-18.1-18.1H46.8
								c-2.3,0-4.6,0.5-6.8,1.4V97.9c0-10,8.1-18.1,18.1-18.1c0,0,0,0,0,0h73.3C141.5,79.8,149.6,87.8,149.6,97.9
								C149.6,97.8,149.6,97.8,149.6,97.9"/>
						</g>
					</g>
				</g>
			</g>
			<path id="패스_442" class="st74" d="M307.6,432.9H205.3c-2,0-3.6-1.6-3.6-3.6l0,0v-50.4c0-2,1.6-3.6,3.6-3.6h102.3
				c2,0,3.6,1.6,3.6,3.6v50.4C311.2,431.3,309.6,432.9,307.6,432.9L307.6,432.9"/>
			<path id="패스_443" class="st74" d="M443.9,432.9H341.6c-2,0-3.6-1.6-3.6-3.6l0,0v-50.4c0-2,1.6-3.6,3.6-3.6h102.2
				c2,0,3.6,1.6,3.6,3.6v50.4C447.5,431.3,445.9,432.9,443.9,432.9"/>
			<g id="그룹_364" transform="translate(161.692 295.434)">
				<g id="그룹_363">
					<g>
						<defs>
							<rect id="SVGID_00000118365482132257891220000002757445929135749765_" x="40" y="79.8" width="109.5" height="56.3"/>
						</defs>
						<clipPath id="SVGID_00000116228915063386022620000016771796441410600091_">
							<use xlink:href="#SVGID_00000118365482132257891220000002757445929135749765_"  style="overflow:visible;"/>
						</clipPath>
						<g id="그룹_362" style="clip-path:url(#SVGID_00000116228915063386022620000016771796441410600091_);">
							<path id="패스_444" class="st74" d="M149.6,97.9v21.6c0,7.4-4.5,14-11.3,16.7v-0.2c0-10-8.1-18.1-18.1-18.1H46.8
								c-2.3,0-4.6,0.5-6.8,1.4V97.9c0-10,8.1-18.1,18.1-18.1c0,0,0,0,0,0h73.3C141.5,79.8,149.5,87.8,149.6,97.9
								C149.6,97.8,149.6,97.8,149.6,97.9"/>
						</g>
					</g>
				</g>
			</g>
			<g id="그룹_367" transform="translate(297.941 295.434)">
				<g id="그룹_366">
					<g>
						<defs>
							<rect id="SVGID_00000040569140020867918050000010570008732892109731_" x="40" y="79.8" width="109.5" height="56.3"/>
						</defs>
						<clipPath id="SVGID_00000134230270428091571620000005931082938937431726_">
							<use xlink:href="#SVGID_00000040569140020867918050000010570008732892109731_"  style="overflow:visible;"/>
						</clipPath>
						<g id="그룹_365" style="clip-path:url(#SVGID_00000134230270428091571620000005931082938937431726_);">
							<path id="패스_445" class="st74" d="M149.6,97.9v21.6c0,7.4-4.5,14-11.3,16.7v-0.2c0-10-8.1-18.1-18.1-18.1H46.8
								c-2.3,0-4.6,0.5-6.8,1.4V97.9c0-10,8.1-18.1,18.1-18.1c0,0,0,0,0,0h73.3C141.5,79.8,149.6,87.8,149.6,97.9
								C149.6,97.8,149.6,97.8,149.6,97.9"/>
						</g>
					</g>
				</g>
			</g>
			<path id="패스_446" class="st74" d="M464.3,407.6H47.7c-4.2,0-7.7-3.4-7.7-7.7c0-2.1,0.9-4.1,2.4-5.5l48.7-46.6
				c1.4-1.4,3.3-2.1,5.3-2.1h319.1c2,0,3.9,0.8,5.3,2.1l48.7,46.6c3.1,2.9,3.2,7.8,0.3,10.8C468.4,406.7,466.4,407.6,464.3,407.6"/>
			<path id="패스_447" class="st78" d="M464.3,402H47.7c-4.2,0-7.7-3.4-7.7-7.7c0-2.1,0.9-4.1,2.4-5.5l48.7-46.6
				c1.4-1.4,3.3-2.1,5.3-2.1h319.1c2,0,3.9,0.8,5.3,2.1l48.7,46.6c3.1,2.9,3.2,7.8,0.3,10.8C468.4,401.2,466.4,402,464.3,402"/>
			<g id="그룹_370" transform="translate(152.903 293.862)">
				<g id="그룹_369">
					<g>
						<defs>
							<rect id="SVGID_00000105407192093653198610000007667756748763275158_" x="40" y="79.8" width="126.1" height="18.1"/>
						</defs>
						<clipPath id="SVGID_00000013181773842950214160000014247904351264479391_">
							<use xlink:href="#SVGID_00000105407192093653198610000007667756748763275158_"  style="overflow:visible;"/>
						</clipPath>
						<g id="그룹_368" style="clip-path:url(#SVGID_00000013181773842950214160000014247904351264479391_);">
							<path id="패스_448" class="st80" d="M163.9,97.9H42.2c-1.2,0-2.2-1-2.2-2.2c0-0.6,0.3-1.2,0.7-1.6L55,80.4
								c0.4-0.4,1-0.6,1.6-0.6h93.2c0.6,0,1.1,0.2,1.5,0.6L165.5,94c0.9,0.9,0.9,2.3,0,3.2C165.1,97.6,164.5,97.9,163.9,97.9"/>
						</g>
					</g>
				</g>
			</g>
			<g id="그룹_373" transform="translate(29.416 293.862)">
				<g id="그룹_372">
					<g>
						<defs>
							<rect id="SVGID_00000010312477226702233850000008055933735296195989_" x="40" y="79.8" width="114.6" height="18.1"/>
						</defs>
						<clipPath id="SVGID_00000157271194020478809080000016069876817182332863_">
							<use xlink:href="#SVGID_00000010312477226702233850000008055933735296195989_"  style="overflow:visible;"/>
						</clipPath>
						<g id="그룹_371" style="clip-path:url(#SVGID_00000157271194020478809080000016069876817182332863_);">
							<path id="패스_449" class="st80" d="M154.6,80.4c0,0-5.1,5.6-9.9,10.5c-0.6,0.6-1.3,1.3-1.9,1.9c-2.9,2.9-5.4,5.1-6.1,5.1
								H42.3c-1.2,0-2.2-1-2.2-2.3c0-0.6,0.2-1.2,0.7-1.6L55,80.4c0.4-0.4,0.9-0.6,1.5-0.6h93.3C150.3,79.8,154.2,80,154.6,80.4"/>
						</g>
					</g>
				</g>
			</g>
			<g id="그룹_376" transform="translate(289.8 293.862)">
				<g id="그룹_375">
					<g>
						<defs>
							<rect id="SVGID_00000124841018963860843410000012378999223151971219_" x="40" y="79.8" width="114.5" height="18.1"/>
						</defs>
						<clipPath id="SVGID_00000101795010805273800130000014152419942197402782_">
							<use xlink:href="#SVGID_00000124841018963860843410000012378999223151971219_"  style="overflow:visible;"/>
						</clipPath>
						<g id="그룹_374" style="clip-path:url(#SVGID_00000101795010805273800130000014152419942197402782_);">
							<path id="패스_450" class="st80" d="M152.3,97.9H57.8c-0.9,0-4.3-3.2-7.9-7C45.1,86,40,80.4,40,80.4
								c0.4-0.4,4.3-0.6,4.9-0.6h93.2c0.6,0,1.1,0.2,1.6,0.6L153.8,94c0.9,0.9,0.9,2.3,0.1,3.2C153.5,97.6,152.9,97.9,152.3,97.9"/>
						</g>
					</g>
				</g>
			</g>
			<g id="그룹_379" transform="translate(163.336 304.931)">
				<g id="그룹_378">
					<g>
						<defs>
							<rect id="SVGID_00000023973142950495611850000007911905316006586296_" x="40" y="79.8" width="105.3" height="7"/>
						</defs>
						<clipPath id="SVGID_00000132048479854480231750000012081814954473667990_">
							<use xlink:href="#SVGID_00000023973142950495611850000007911905316006586296_"  style="overflow:visible;"/>
						</clipPath>
						<g id="그룹_377" style="clip-path:url(#SVGID_00000132048479854480231750000012081814954473667990_);">
							<path id="패스_451" class="st80" d="M145.4,86.8H40l6.6-6.4c0.4-0.4,0.9-0.6,1.5-0.6h89c0.6,0,1.1,0.2,1.5,0.6L145.4,86.8z
								"/>
						</g>
					</g>
				</g>
			</g>
			<g id="그룹_382" transform="translate(45.369 304.931)">
				<g id="그룹_381">
					<g>
						<defs>
							<rect id="SVGID_00000132797710684637151310000005956980159319185080_" x="40" y="79.8" width="88.8" height="7"/>
						</defs>
						<clipPath id="SVGID_00000093894241368447219240000002999250902577543043_">
							<use xlink:href="#SVGID_00000132797710684637151310000005956980159319185080_"  style="overflow:visible;"/>
						</clipPath>
						<g id="그룹_380" style="clip-path:url(#SVGID_00000093894241368447219240000002999250902577543043_);">
							<path id="패스_452" class="st80" d="M128.8,79.8c-3.7,3.7-7.1,7-8,7H40l6.6-6.4c0.4-0.4,0.9-0.6,1.5-0.6L128.8,79.8z"/>
						</g>
					</g>
				</g>
			</g>
			<g id="그룹_385" transform="translate(54.104 263.228)">
				<g id="그룹_384">
					<g>
						<defs>
							<rect id="SVGID_00000083780425323546262350000011777042137582904727_" x="40" y="79.8" width="155.8" height="21.5"/>
						</defs>
						<clipPath id="SVGID_00000008835389044579491050000004222532662357945735_">
							<use xlink:href="#SVGID_00000083780425323546262350000011777042137582904727_"  style="overflow:visible;"/>
						</clipPath>
						<g id="그룹_383" style="clip-path:url(#SVGID_00000008835389044579491050000004222532662357945735_);">
							<path id="패스_453" class="st80" d="M195.8,80.4c0,0-1.9,7.4-3.6,13.4c-0.1,0.4-0.2,0.8-0.3,1.1c-1.1,3.6-2.1,6.3-2.5,6.3
								H43.1c-2.7,0-4.1-3-2.1-4.6l19.4-16.3c0.6-0.4,1.3-0.7,2.1-0.6h126.7C190,79.8,195.2,80,195.8,80.4"/>
						</g>
					</g>
				</g>
			</g>
			<g id="그룹_388" transform="translate(222.39 263.228)">
				<g id="그룹_387">
					<g>
						<defs>
							<rect id="SVGID_00000096044665207304569950000009620939604287575181_" x="40" y="79.8" width="155.7" height="21.5"/>
						</defs>
						<clipPath id="SVGID_00000131345090591695924320000013067559246176159637_">
							<use xlink:href="#SVGID_00000096044665207304569950000009620939604287575181_"  style="overflow:visible;"/>
						</clipPath>
						<g id="그룹_386" style="clip-path:url(#SVGID_00000131345090591695924320000013067559246176159637_);">
							<path id="패스_454" class="st80" d="M192.7,101.3H46.4c-0.4,0-1.6-3.4-2.7-7.4c-1.8-6-3.6-13.4-3.6-13.4
								c0.6-0.4,5.8-0.6,6.6-0.6h126.8c0.7,0,1.4,0.2,2,0.6l19.4,16.3C196.8,98.3,195.4,101.3,192.7,101.3"/>
						</g>
					</g>
				</g>
			</g>
			<g id="그룹_391" transform="translate(82.644 277.224)">
				<g id="그룹_390">
					<g>
						<defs>
							<rect id="SVGID_00000127737182630069800830000000989104287226634942_" x="40" y="79.8" width="123.6" height="7.5"/>
						</defs>
						<clipPath id="SVGID_00000064329300238598189940000003984532610835866500_">
							<use xlink:href="#SVGID_00000127737182630069800830000000989104287226634942_"  style="overflow:visible;"/>
						</clipPath>
						<g id="그룹_389" style="clip-path:url(#SVGID_00000064329300238598189940000003984532610835866500_);">
							<path id="패스_455" class="st80" d="M163.6,79.9c-1.1,4.1-2.4,7.4-2.8,7.4H40l8.2-6.9c0.5-0.4,1.1-0.6,1.8-0.6h112.1
								C162.3,79.8,162.9,79.8,163.6,79.9"/>
						</g>
					</g>
				</g>
			</g>
			<g id="그룹_394" transform="translate(226.032 277.224)">
				<g id="그룹_393">
					<g>
						<defs>
							<rect id="SVGID_00000085947720109037858590000000487516596293456267_" x="40" y="79.8" width="123.6" height="7.5"/>
						</defs>
						<clipPath id="SVGID_00000122704307007858817430000005328047998402586496_">
							<use xlink:href="#SVGID_00000085947720109037858590000000487516596293456267_"  style="overflow:visible;"/>
						</clipPath>
						<g id="그룹_392" style="clip-path:url(#SVGID_00000122704307007858817430000005328047998402586496_);">
							<path id="패스_456" class="st80" d="M163.6,87.3H42.7c-0.4,0-1.6-3.4-2.7-7.4c0.5,0,1-0.1,1.4-0.1h112.1
								c0.7,0,1.3,0.2,1.9,0.6L163.6,87.3z"/>
						</g>
					</g>
				</g>
			</g>
			<g id="그룹_397" transform="translate(299.655 304.931)">
				<g id="그룹_396">
					<g>
						<defs>
							<rect id="SVGID_00000068656090483025179280000006642814916512915116_" x="40" y="79.8" width="88.7" height="7"/>
						</defs>
						<clipPath id="SVGID_00000116204500516058236160000016125623279455287487_">
							<use xlink:href="#SVGID_00000068656090483025179280000006642814916512915116_"  style="overflow:visible;"/>
						</clipPath>
						<g id="그룹_395" style="clip-path:url(#SVGID_00000116204500516058236160000016125623279455287487_);">
							<path id="패스_457" class="st80" d="M128.7,86.8H48c-0.9,0-4.3-3.2-7.9-7h80.6c0.5,0,1.1,0.2,1.4,0.6L128.7,86.8z"/>
						</g>
					</g>
				</g>
			</g>
			<path id="패스_458" class="st10" d="M461.2,394.3H48.4c-0.5,0-1-0.4-1-1s0.4-1,1-1h412.8c0.5,0,1,0.4,1,1
				S461.7,394.3,461.2,394.3"/>
			<path id="패스_459" class="st10" d="M447,372.2H62.5c-0.5,0-1-0.4-1-1s0.4-1,1-1H447c0.5,0,1,0.4,1,1S447.6,372.2,447,372.2"/>
			<path id="패스_460" class="st10" d="M397,364.5H270.6c6.3-8.4,32.2-14.7,63.2-14.7S390.7,356.1,397,364.5"/>
			<path id="패스_461" class="st90" d="M246,358.2c-1.1,3.6-2.1,6.3-2.5,6.3h-123v-0.2c0-8.3,20-11.8,56.3-11.8
				C203.4,352.5,235.8,352.9,246,358.2"/>
			<path id="패스_462" class="st91" d="M431.5,388.3c0,1.2-1.1,2.4-2.9,3.4h-80.7c-1.9-1-2.9-2.2-2.9-3.4c0-5.2,19.4-9.5,43.3-9.5
				S431.5,383.1,431.5,388.3"/>
			<path id="패스_463" class="st92" d="M312.2,391.1c0,0.2,0,0.4-0.1,0.6H204.5c-0.1-0.2-0.2-0.4-0.1-0.6c0-7.2,24.1-13,53.9-13
				S312.2,383.9,312.2,391.1"/>
			<path id="패스_464" class="st93" d="M172.4,384.8c0,0.6-0.1,1.2-0.2,1.8c-2.9,2.9-5.4,5.1-6.1,5.1H160c-0.1,0-0.1-0.1-0.1-0.1
				v0.1H144c-0.1-0.2-0.1-0.5-0.1-0.7c-0.2,0.2-0.4,0.5-0.6,0.7H85.8c-0.1-0.3-0.1-0.6-0.1-0.9c-0.1-4.5,3.5-8.2,8-8.3
				c2.5,0,4.8,1,6.4,2.9c1.8-5.7,8-8.9,13.7-7.1c1.8,0.6,3.5,1.6,4.7,3.1c1.5-2.2,4-3.6,6.6-3.6c0.4,0,0.7,0.1,1.1,0.2
				c1.6-2.4,4.1-4,6.9-4.5c0.7-0.1,1.3-0.2,2-0.2c0.7,0,1.5,0.1,2.2,0.2c5.1,1,8.7,5.5,8.8,10.6c1.5-1.5,3.6-2.4,5.8-2.4
				c1.5,0,3,0.5,4.3,1.4c0.8-4.4,5.1-7.4,9.5-6.6C169.6,377.4,172.5,380.8,172.4,384.8"/>
			<path id="패스_465" class="st94" d="M172.7,409.2H65.6c-0.5,0-1-0.4-1-1s0.4-1,1-1h107.1c0.5,0,1,0.4,1,1
				S173.2,409.2,172.7,409.2"/>
			<path id="패스_466" class="st94" d="M309.6,409.2H203.6c-0.5,0-1-0.4-1-1s0.4-1,1-1l0,0h105.9c0.5,0,1,0.4,1,1
				S310.1,409.2,309.6,409.2L309.6,409.2"/>
			<path id="패스_467" class="st94" d="M445.2,409.2H339.3c-0.5,0-1-0.4-1-1s0.4-1,1-1h105.9c0.5,0,1,0.4,1,1
				S445.8,409.2,445.2,409.2"/>
		</g>
	</g>
</g>
<text transform="matrix(1 0 0 1 270.3333 264.2545)" class="st10 st95 st96">급식물품,</text>
<text transform="matrix(1 0 0 1 273.3846 290.2545)" class="st10 st95 st96">기념사진</text>
<text transform="matrix(1 0 0 1 163.3846 140.2545)" class="st10 st95 st96">급식도구</text>
</svg>
