<svg id="그룹_618" data-name="그룹 618" xmlns="http://www.w3.org/2000/svg" xmlns:xlink="http://www.w3.org/1999/xlink" width="309.443" height="530" viewBox="0 0 309.443 530">
  <defs>
    <style>
      .cls-1 {
        fill: none;
      }

      .cls-2 {
        clip-path: url(#clip-path);
      }

      .cls-3 {
        fill: #ed8d7f;
      }

      .cls-4 {
        fill: #361700;
      }

      .cls-5 {
        opacity: 0.4;
      }

      .cls-12, .cls-17, .cls-27, .cls-32, .cls-5 {
        mix-blend-mode: multiply;
      }

      .cls-12, .cls-17, .cls-27, .cls-32, .cls-35, .cls-41, .cls-48, .cls-5, .cls-73 {
        isolation: isolate;
      }

      .cls-6 {
        clip-path: url(#clip-path-3);
      }

      .cls-7 {
        fill: #674431;
      }

      .cls-8 {
        clip-path: url(#clip-path-4);
      }

      .cls-9 {
        fill: #ffb69d;
      }

      .cls-10, .cls-52 {
        fill: #fff;
      }

      .cls-11 {
        fill: #444a86;
      }

      .cls-13 {
        clip-path: url(#clip-path-5);
      }

      .cls-14 {
        clip-path: url(#clip-path-6);
      }

      .cls-15 {
        fill: #564f4d;
      }

      .cls-16 {
        fill: #7b7471;
      }

      .cls-17 {
        opacity: 0.3;
      }

      .cls-18 {
        clip-path: url(#clip-path-7);
      }

      .cls-19 {
        clip-path: url(#clip-path-8);
      }

      .cls-20 {
        clip-path: url(#clip-path-9);
      }

      .cls-21 {
        clip-path: url(#clip-path-10);
      }

      .cls-22 {
        clip-path: url(#clip-path-11);
      }

      .cls-23 {
        clip-path: url(#clip-path-12);
      }

      .cls-24 {
        fill: #d54847;
      }

      .cls-25 {
        clip-path: url(#clip-path-13);
      }

      .cls-26 {
        fill: #d1e0ed;
      }

      .cls-27 {
        opacity: 0.8;
      }

      .cls-28 {
        clip-path: url(#clip-path-14);
      }

      .cls-29 {
        fill: #540000;
      }

      .cls-30 {
        fill: #c28558;
      }

      .cls-31 {
        fill: #a4724b;
      }

      .cls-32 {
        opacity: 0.5;
      }

      .cls-33 {
        clip-path: url(#clip-path-15);
      }

      .cls-34 {
        fill: #b54f41;
      }

      .cls-35 {
        opacity: 0.35;
        mix-blend-mode: color-burn;
      }

      .cls-36 {
        clip-path: url(#clip-path-16);
      }

      .cls-37 {
        fill: #ff8f88;
      }

      .cls-38 {
        clip-path: url(#clip-path-17);
      }

      .cls-39 {
        fill: #b53d34;
      }

      .cls-40 {
        fill: #fce5cd;
      }

      .cls-41 {
        opacity: 0.7;
      }

      .cls-41, .cls-48 {
        mix-blend-mode: color-dodge;
      }

      .cls-42 {
        clip-path: url(#clip-path-18);
      }

      .cls-43 {
        fill: #71a42f;
      }

      .cls-44 {
        fill: #4e5263;
      }

      .cls-45 {
        clip-path: url(#clip-path-19);
      }

      .cls-46 {
        clip-path: url(#clip-path-20);
      }

      .cls-47 {
        clip-path: url(#clip-path-21);
      }

      .cls-49 {
        clip-path: url(#clip-path-22);
      }

      .cls-50 {
        fill: #9c9fa9;
      }

      .cls-51 {
        clip-path: url(#clip-path-23);
      }

      .cls-52 {
        font-size: 78px;
        font-family: SegoeUI, Segoe UI;
      }

      .cls-53 {
        fill: #63311a;
      }

      .cls-54 {
        clip-path: url(#clip-path-25);
      }

      .cls-55 {
        clip-path: url(#clip-path-26);
      }

      .cls-56 {
        clip-path: url(#clip-path-27);
      }

      .cls-57 {
        clip-path: url(#clip-path-28);
      }

      .cls-58 {
        clip-path: url(#clip-path-29);
      }

      .cls-59 {
        clip-path: url(#clip-path-30);
      }

      .cls-60 {
        clip-path: url(#clip-path-31);
      }

      .cls-61 {
        clip-path: url(#clip-path-32);
      }

      .cls-62 {
        clip-path: url(#clip-path-33);
      }

      .cls-63 {
        clip-path: url(#clip-path-34);
      }

      .cls-64 {
        clip-path: url(#clip-path-35);
      }

      .cls-65 {
        clip-path: url(#clip-path-36);
      }

      .cls-66 {
        fill: #cb5740;
      }

      .cls-67 {
        clip-path: url(#clip-path-37);
      }

      .cls-68 {
        clip-path: url(#clip-path-38);
      }

      .cls-69 {
        clip-path: url(#clip-path-40);
      }

      .cls-70 {
        clip-path: url(#clip-path-41);
      }

      .cls-71 {
        clip-path: url(#clip-path-42);
      }

      .cls-72 {
        clip-path: url(#clip-path-43);
      }

      .cls-74 {
        clip-path: url(#clip-path-44);
      }

      .cls-75 {
        fill: #08add2;
      }

      .cls-76 {
        opacity: 0.6;
      }

      .cls-77 {
        clip-path: url(#clip-path-45);
      }

      .cls-78 {
        fill: #808296;
      }

      .cls-79 {
        clip-path: url(#clip-path-46);
      }
    </style>
    <clipPath id="clip-path">
      <rect id="사각형_209" data-name="사각형 209" class="cls-1" width="309.443" height="530"/>
    </clipPath>
    <clipPath id="clip-path-3">
      <rect id="사각형_162" data-name="사각형 162" class="cls-1" width="30.735" height="18.195"/>
    </clipPath>
    <clipPath id="clip-path-4">
      <rect id="사각형_163" data-name="사각형 163" class="cls-1" width="53.079" height="62.622"/>
    </clipPath>
    <clipPath id="clip-path-5">
      <rect id="사각형_164" data-name="사각형 164" class="cls-1" width="26.574" height="7.584"/>
    </clipPath>
    <clipPath id="clip-path-6">
      <rect id="사각형_165" data-name="사각형 165" class="cls-1" width="26.586" height="7.516"/>
    </clipPath>
    <clipPath id="clip-path-7">
      <rect id="사각형_166" data-name="사각형 166" class="cls-1" width="57.332" height="12.689"/>
    </clipPath>
    <clipPath id="clip-path-8">
      <rect id="사각형_167" data-name="사각형 167" class="cls-1" width="49.335" height="39.079"/>
    </clipPath>
    <clipPath id="clip-path-9">
      <rect id="사각형_168" data-name="사각형 168" class="cls-1" width="17.722" height="53.503"/>
    </clipPath>
    <clipPath id="clip-path-10">
      <rect id="사각형_169" data-name="사각형 169" class="cls-1" width="31.727" height="21.044"/>
    </clipPath>
    <clipPath id="clip-path-11">
      <rect id="사각형_170" data-name="사각형 170" class="cls-1" width="33.785" height="52.939"/>
    </clipPath>
    <clipPath id="clip-path-12">
      <rect id="사각형_171" data-name="사각형 171" class="cls-1" width="41.639" height="25.186"/>
    </clipPath>
    <clipPath id="clip-path-13">
      <rect id="사각형_172" data-name="사각형 172" class="cls-1" width="32.295" height="15.477"/>
    </clipPath>
    <clipPath id="clip-path-14">
      <rect id="사각형_173" data-name="사각형 173" class="cls-1" width="19.243" height="12.921"/>
    </clipPath>
    <clipPath id="clip-path-15">
      <rect id="사각형_174" data-name="사각형 174" class="cls-1" width="4.446" height="10.219"/>
    </clipPath>
    <clipPath id="clip-path-16">
      <rect id="사각형_175" data-name="사각형 175" class="cls-1" width="6.789" height="6.79"/>
    </clipPath>
    <clipPath id="clip-path-17">
      <rect id="사각형_176" data-name="사각형 176" class="cls-1" width="6.789" height="6.787"/>
    </clipPath>
    <clipPath id="clip-path-18">
      <rect id="사각형_177" data-name="사각형 177" class="cls-1" width="9.594" height="4.02"/>
    </clipPath>
    <clipPath id="clip-path-19">
      <rect id="사각형_179" data-name="사각형 179" class="cls-1" width="77.958" height="125.961"/>
    </clipPath>
    <clipPath id="clip-path-20">
      <rect id="사각형_180" data-name="사각형 180" class="cls-1" width="72.84" height="134.758"/>
    </clipPath>
    <clipPath id="clip-path-21">
      <rect id="사각형_181" data-name="사각형 181" class="cls-1" width="4.018" height="4.806"/>
    </clipPath>
    <clipPath id="clip-path-22">
      <rect id="사각형_182" data-name="사각형 182" class="cls-1" width="32.668" height="102.408"/>
    </clipPath>
    <clipPath id="clip-path-23">
      <rect id="사각형_183" data-name="사각형 183" class="cls-1" width="35.16" height="99.399"/>
    </clipPath>
    <clipPath id="clip-path-25">
      <rect id="사각형_185" data-name="사각형 185" class="cls-1" width="29.72" height="8.259"/>
    </clipPath>
    <clipPath id="clip-path-26">
      <rect id="사각형_186" data-name="사각형 186" class="cls-1" width="24.482" height="78.494"/>
    </clipPath>
    <clipPath id="clip-path-27">
      <rect id="사각형_187" data-name="사각형 187" class="cls-1" width="12.028" height="16.533"/>
    </clipPath>
    <clipPath id="clip-path-28">
      <rect id="사각형_188" data-name="사각형 188" class="cls-1" width="10.172" height="88.004"/>
    </clipPath>
    <clipPath id="clip-path-29">
      <rect id="사각형_189" data-name="사각형 189" class="cls-1" width="72.262" height="58.421"/>
    </clipPath>
    <clipPath id="clip-path-30">
      <rect id="사각형_190" data-name="사각형 190" class="cls-1" width="13.272" height="83.402"/>
    </clipPath>
    <clipPath id="clip-path-31">
      <rect id="사각형_191" data-name="사각형 191" class="cls-1" width="25.692" height="136.054"/>
    </clipPath>
    <clipPath id="clip-path-32">
      <rect id="사각형_192" data-name="사각형 192" class="cls-1" width="33.329" height="15.858"/>
    </clipPath>
    <clipPath id="clip-path-33">
      <rect id="사각형_193" data-name="사각형 193" class="cls-1" width="4.171" height="4.996"/>
    </clipPath>
    <clipPath id="clip-path-34">
      <rect id="사각형_194" data-name="사각형 194" class="cls-1" width="21.608" height="18.492"/>
    </clipPath>
    <clipPath id="clip-path-35">
      <rect id="사각형_195" data-name="사각형 195" class="cls-1" width="17.472" height="10.07"/>
    </clipPath>
    <clipPath id="clip-path-36">
      <rect id="사각형_196" data-name="사각형 196" class="cls-1" width="55.439" height="44.999"/>
    </clipPath>
    <clipPath id="clip-path-37">
      <rect id="사각형_197" data-name="사각형 197" class="cls-1" width="5.026" height="9.614"/>
    </clipPath>
    <clipPath id="clip-path-38">
      <rect id="사각형_198" data-name="사각형 198" class="cls-1" width="6.791" height="6.793"/>
    </clipPath>
    <clipPath id="clip-path-40">
      <rect id="사각형_200" data-name="사각형 200" class="cls-1" width="33.946" height="98.682"/>
    </clipPath>
    <clipPath id="clip-path-41">
      <rect id="사각형_201" data-name="사각형 201" class="cls-1" width="9.967" height="39.992"/>
    </clipPath>
    <clipPath id="clip-path-42">
      <rect id="사각형_202" data-name="사각형 202" class="cls-1" width="32.325" height="137.266"/>
    </clipPath>
    <clipPath id="clip-path-43">
      <rect id="사각형_203" data-name="사각형 203" class="cls-1" width="29.417" height="142.988"/>
    </clipPath>
    <clipPath id="clip-path-44">
      <rect id="사각형_205" data-name="사각형 205" class="cls-1" width="123.893" height="115.252"/>
    </clipPath>
    <clipPath id="clip-path-45">
      <rect id="사각형_206" data-name="사각형 206" class="cls-1" width="10.861" height="16.899"/>
    </clipPath>
    <clipPath id="clip-path-46">
      <rect id="사각형_207" data-name="사각형 207" class="cls-1" width="29.72" height="73.376"/>
    </clipPath>
  </defs>
  <g id="그룹_616" data-name="그룹 616" class="cls-2">
    <g id="그룹_547" data-name="그룹 547">
      <g id="그룹_546" data-name="그룹 546" class="cls-2">
        <path id="패스_605" data-name="패스 605" class="cls-3" d="M47.836,46.959l-.911-5.277s-4.46-1.354-4.159-11.091l-.843-10.875,4.415-2.275,7.7,18.017L57.16,48.113Z" transform="translate(93.559 38.922)"/>
        <path id="패스_606" data-name="패스 606" class="cls-4" d="M28.7,39.581S29.9,57.055,23.941,65.17s-11.318,8.606-11.318,8.606l7.346.9s13.15-8.629,8.729-35.09" transform="translate(28.171 88.335)"/>
        <path id="패스_607" data-name="패스 607" class="cls-4" d="M34.065,40.46a43.181,43.181,0,0,0,1,19.074A20.079,20.079,0,0,0,40.929,68.4L45.8,70s-6.722-4.689-9.23-11.246c-2.608-6.829-2.5-18.3-2.5-18.3" transform="translate(74.628 90.296)"/>
        <path id="패스_608" data-name="패스 608" class="cls-4" d="M71.8,81.369c-.588-6.783,1.2-14.976,1.5-20.638,0,0,.892-9.065-1.076-15.7S55.3,28.895,46.253,29.134,34.473,32.3,32.9,37.349a5.861,5.861,0,0,0-6.279.708c-3.361,2.43-6.567,7.5-6.186,17.93s3.516,42.284-4.289,49.717l19.875,4.078,29.655-.575L76.844,92.244A17.932,17.932,0,0,1,71.8,81.369" transform="translate(36.04 65.01)"/>
        <g id="그룹_485" data-name="그룹 485" class="cls-5" transform="translate(67.307 94.141)">
          <g id="그룹_484" data-name="그룹 484">
            <g id="그룹_483" data-name="그룹 483" class="cls-6">
              <path id="패스_609" data-name="패스 609" class="cls-7" d="M21.021,37.3a22.116,22.116,0,0,1,5.562,9.311,3.479,3.479,0,0,1,.132.711,4.122,4.122,0,0,1,3.022-4.166c7.569-1.836,15.606-3.813,21.824-8.587-5.138-3.209-11.192-5.559-15.748-5.439-9.049.239-11.78,3.164-13.35,8.215a5.275,5.275,0,0,0-1.635-.514c.068.155.129.313.194.469" transform="translate(-20.826 -29.131)"/>
            </g>
          </g>
        </g>
        <g id="그룹_488" data-name="그룹 488" class="cls-5" transform="translate(56.462 112.171)">
          <g id="그룹_487" data-name="그룹 487">
            <g id="그룹_486" data-name="그룹 486" class="cls-8">
              <path id="패스_610" data-name="패스 610" class="cls-7" d="M68.8,63.514c.278-5.4,1.322-11.017,1.551-15.234a53.741,53.741,0,0,0-.562-13.57c-3.3,4.783-9.514,7.74-15.832,8.777-7.21,2.369-14.853,1.205-19.209-6.457a4.439,4.439,0,0,1-.514-1.632,4.652,4.652,0,0,1-4.143,4.23A4.785,4.785,0,0,1,29.1,41.05a4.33,4.33,0,0,1-.692,1.48c-.061.171-.084.333-.162.5a4.277,4.277,0,0,1-4.809,2.03,10.949,10.949,0,0,1-4.046-2.511,11.5,11.5,0,0,1-1.9-1.458c-.016.795-.045,1.574-.01,2.44.133,3.671.6,10.009.821,16.986,10.109,8.829,13.677,23.5,7.824,35.388l6.942,1.422L62.3,96.765c-8.26-11.424-4.208-25.867,6.5-33.251" transform="translate(-17.472 -34.709)"/>
            </g>
          </g>
        </g>
        <path id="패스_611" data-name="패스 611" class="cls-9" d="M47.585,211.29c-.517,7.32-4.075,31.332-2.143,71.961.181,3.823.333,7.646.446,11.269.055,1.69.11,3.348.162,4.906.068,2.708.132,5.177.194,7.275.087,4.266.155,7.007.155,7.007l-12.258-.42s-.427-6.935-1.787-18.292c-1.138-9.566-2.989-22.273-5.811-36.622-5.53-27.961,1.4-42.064-.472-51.045C24.2,198.315,14.647,149.347,16,116.6c1.348-32.718,22.6-35.83,30.424-19.542,0,0,1.645,106.884,1.163,114.236" transform="translate(35.413 195.167)"/>
        <path id="패스_612" data-name="패스 612" class="cls-10" d="M35.016,170.711l-12.261-.42s-.423-6.935-1.787-18.292c4.537-.126,9.036-.284,13.538-.475.055,1.69.11,3.348.162,4.906.068,2.708.132,5.177.194,7.275.12,4.266.155,7.006.155,7.006" transform="translate(46.795 338.163)"/>
        <path id="패스_613" data-name="패스 613" class="cls-11" d="M45.916,178.628a2.339,2.339,0,0,1-1.05,1.306c-3.371,2.337-20.334,3.558-24.568.831,0,0-.071-.036-.071-.071a1.662,1.662,0,0,1-.886-1.264c-.184-2.64,6.874-19.917,6.874-19.917,6.211-7.559,12.691-1.277,12.691-1.277,2.514,13.825,7.7,17.891,7.01,20.392" transform="translate(43.157 347.675)"/>
        <path id="패스_614" data-name="패스 614" class="cls-10" d="M54.918,53.519l1.2-.155,4.1.443L59.7,74.687,39.283,105.835,20.332,73.7s.3-20.951.514-20.955,1.91.611,1.91.611l6.2-.569,9.366,3.038Z" transform="translate(45.376 117.718)"/>
        <path id="패스_615" data-name="패스 615" class="cls-10" d="M34.606,160.72c-5.358-.928-9.892,2.653-14.65,5.051a11.287,11.287,0,0,0-.614,2.983,1.658,1.658,0,0,0,.882,1.264c0,.036.071.071.071.071,4.234,2.731,21.2,1.506,24.568-.831a2.339,2.339,0,0,0,1.05-1.306,3.377,3.377,0,0,0-.407-2.2c-3.523-2.072-7.039-4.366-10.9-5.035" transform="translate(43.159 358.351)"/>
        <g id="그룹_491" data-name="그룹 491" class="cls-12" transform="translate(62.5 522.416)">
          <g id="그룹_490" data-name="그룹 490">
            <g id="그룹_489" data-name="그룹 489" class="cls-13">
              <path id="패스_616" data-name="패스 616" class="cls-11" d="M45.914,165.539a2.339,2.339,0,0,1-1.05,1.306c-3.371,2.337-20.334,3.558-24.568.831,0,0-.071-.036-.071-.071a6.347,6.347,0,0,1-.886-1.264,33.711,33.711,0,0,1,8.47-3.833,17.183,17.183,0,0,1,12.921.834c1.942,1.047,3.494,2.026,5.184,2.2" transform="translate(-19.34 -161.652)"/>
            </g>
          </g>
        </g>
        <path id="패스_617" data-name="패스 617" class="cls-9" d="M30.225,211.469c.7,7.3,4.861,31.219,3.949,71.887-.087,3.826-.139,7.653-.162,11.276-.013,1.69-.026,3.351-.042,4.906,0,2.711,0,5.18-.01,7.281.019,4.263.019,7.006.019,7.006l12.248-.73s.249-6.942,1.325-18.33c.9-9.592,2.427-22.338,4.886-36.758,4.828-28.09-2.456-42.013-.808-51.039,1.645-9.059,9.963-58.249,7.792-90.954C57.256,83.337,35.929,80.761,28.519,97.24c0,0,1.041,106.89,1.706,114.229" transform="translate(63.647 194.852)"/>
        <path id="패스_618" data-name="패스 618" class="cls-3" d="M47.6,197.849c-.365-32.9-1.235-100.795-1.235-100.795C38.541,80.766,17.286,83.879,15.939,116.6c-.553,13.35,4.192,61.112,7.236,75.762,6.2-.191,12.313,5.478,24.422,5.491" transform="translate(35.472 195.167)"/>
        <path id="패스_619" data-name="패스 619" class="cls-3" d="M22.239,128.359c-.947,4.036,2.078,11.573,5.565,7.692,2.563-2.854,4.1-7.323,4.861-11.634a10.762,10.762,0,0,1-3.245,3.06,7.252,7.252,0,0,1-5.9.831,4.343,4.343,0,0,1-1.28.052" transform="translate(49.24 277.665)"/>
        <path id="패스_620" data-name="패스 620" class="cls-3" d="M21.33,146.89a3.684,3.684,0,0,1,1.981-2.191,14.437,14.437,0,0,1,1.005-8.044c-1.819-5.8-4.854-11.185-6.092-17.109-.087-.262-.191-.514-.275-.776,1.532,9.013,2.886,15.819,3.474,18.657.549,2.634.336,5.727-.094,9.463" transform="translate(40.06 265.067)"/>
        <path id="패스_621" data-name="패스 621" class="cls-3" d="M54.287,190.621c3.558-15.173,6.085-60.33,5.138-74.608C57.253,83.337,35.93,80.761,28.52,97.24c0,0,.824,67.023,1.27,99.467,18.977,1.884,21.01-6.037,24.5-6.085" transform="translate(63.649 194.852)"/>
        <path id="패스_622" data-name="패스 622" class="cls-3" d="M36.6,127.269a9.227,9.227,0,0,1-7.614-2.808c.01.307.023.6.032.889.669,4.311,2.792,9.24,7.359,7.078,2.485-1.18,4.447-3.888,6.06-6.551a18.742,18.742,0,0,1-5.837,1.393" transform="translate(64.698 277.765)"/>
        <path id="패스_623" data-name="패스 623" class="cls-3" d="M40.71,139.878c-.717-5.814-1.645-10.422-1.823-14.223a42.635,42.635,0,0,1-4.751,6.457,61.286,61.286,0,0,1,6.573,7.766" transform="translate(76.185 280.43)"/>
        <path id="패스_624" data-name="패스 624" class="cls-10" d="M30.225,170.654l12.245-.73s.252-6.942,1.328-18.33c-4.537-.01-9.039-.055-13.544-.133-.013,1.69-.026,3.351-.039,4.909,0,2.708,0,5.177-.01,7.278-.016,4.266.019,7.006.019,7.006" transform="translate(67.403 338.023)"/>
        <path id="패스_625" data-name="패스 625" class="cls-11" d="M28.151,178.842a2.358,2.358,0,0,0,1.083,1.28c3.429,2.249,20.418,3.047,24.581.21,0,0,.071-.036.071-.071a1.649,1.649,0,0,0,.85-1.286c.12-2.644-7.368-19.736-7.368-19.736-6.4-7.4-12.72-.957-12.72-.957-2.168,13.884-7.252,18.075-6.5,20.56" transform="translate(62.657 347.441)"/>
        <path id="패스_626" data-name="패스 626" class="cls-10" d="M39.274,160.659c5.336-1.063,9.957,2.4,14.772,4.683a11.211,11.211,0,0,1,.688,2.967,1.649,1.649,0,0,1-.85,1.283c0,.036-.071.074-.071.074-4.162,2.834-21.152,2.036-24.581-.213a2.358,2.358,0,0,1-1.083-1.28,3.39,3.39,0,0,1,.352-2.207c3.471-2.159,6.926-4.541,10.771-5.307" transform="translate(62.658 358.108)"/>
        <g id="그룹_494" data-name="그룹 494" class="cls-12" transform="translate(90.808 522.078)">
          <g id="그룹_493" data-name="그룹 493">
            <g id="그룹_492" data-name="그룹 492" class="cls-14">
              <path id="패스_627" data-name="패스 627" class="cls-11" d="M28.1,165.752a2.358,2.358,0,0,0,1.083,1.28c3.429,2.249,20.418,3.048,24.581.21,0,0,.071-.036.071-.071a6.207,6.207,0,0,0,.85-1.286,33.655,33.655,0,0,0-8.561-3.616,17.176,17.176,0,0,0-12.9,1.157c-1.913,1.1-3.439,2.114-5.126,2.327" transform="translate(-28.098 -161.546)"/>
            </g>
          </g>
        </g>
        <path id="패스_628" data-name="패스 628" class="cls-15" d="M16.608,148.9,30.53,152l.317-48.544Z" transform="translate(37.064 230.895)"/>
        <path id="패스_629" data-name="패스 629" class="cls-15" d="M32.464,102.909l2.931,49.158,18.427-6.79Z" transform="translate(72.451 229.667)"/>
        <path id="패스_630" data-name="패스 630" class="cls-16" d="M40.2,85.138s-8.073,20.438-16.314,64.489L8.544,181.305,34.2,197.383,48.446,152.6l-.313,48.544s22.244,2.346,41.638-1.18l-2-48.515,19.507,42.394,22.444-18.65L110.289,138.7S104.026,106.639,95.1,83.794Z" transform="translate(19.068 187.007)"/>
        <g id="그룹_497" data-name="그룹 497" class="cls-17" transform="translate(61.246 270.801)">
          <g id="그룹_496" data-name="그룹 496">
            <g id="그룹_495" data-name="그룹 495" class="cls-18">
              <path id="패스_631" data-name="패스 631" class="cls-16" d="M47.342,90.968c10.17,1.981,19.513,6.14,28.944,5.433-1.38-4.334-2.854-8.616-4.411-12.607l-52.923,1.3c9.459,2.091,18.877,4.024,28.391,5.879" transform="translate(-18.952 -83.794)"/>
            </g>
          </g>
        </g>
        <g id="그룹_500" data-name="그룹 500" class="cls-17" transform="translate(62.657 301.849)">
          <g id="그룹_499" data-name="그룹 499">
            <g id="그룹_498" data-name="그룹 498" class="cls-19">
              <path id="패스_632" data-name="패스 632" class="cls-16" d="M35.45,118.851c-5.116,2.951-10.458,5.381-15.48,8.6-.061.042-.294.223-.582.456,6.438-.006,14.216,3.413,20.667,3.833,1.458.1,3.471.41,5.73.74,8.218-2.211,16.178-5.462,22.205-13.257,2.046-8.383-.452-18.515-4.334-25.825-7.831,11.55-17.367,19.2-28.207,25.45" transform="translate(-19.388 -93.401)"/>
            </g>
          </g>
        </g>
        <g id="그룹_503" data-name="그룹 503" class="cls-17" transform="translate(31.584 306.604)">
          <g id="그룹_502" data-name="그룹 502">
            <g id="그룹_501" data-name="그룹 501" class="cls-20">
              <path id="패스_633" data-name="패스 633" class="cls-16" d="M13.115,143.449a9.351,9.351,0,0,1,.663-1.215,78.64,78.64,0,0,1,11.014-14.107c.2-2.02.317-4.036.41-6.056a8.648,8.648,0,0,1-.239-2.395c.1-2.207.249-4.4.43-6.58q0-2.458-.032-4.932a8.048,8.048,0,0,1,1-4.208c.362-3.031.75-6.06,1.141-9.084-2.01,8.406-4.175,18.363-6.357,30.029L9.773,148.375a39.065,39.065,0,0,1,3.342-4.925" transform="translate(-9.773 -94.872)"/>
            </g>
          </g>
        </g>
        <g id="그룹_506" data-name="그룹 506" class="cls-17" transform="translate(27.611 363.345)">
          <g id="그룹_505" data-name="그룹 505">
            <g id="그룹_504" data-name="그룹 504" class="cls-21">
              <path id="패스_634" data-name="패스 634" class="cls-16" d="M24.265,123.424a5.1,5.1,0,0,1-3.39-1.942,28.053,28.053,0,0,1-4.764-.113c-3.2-.372-6.334-4.628-5.161-8.939L8.543,117.4,34.2,133.475l6.069-19.08c-4.444,5.588-10.29,9.492-16.007,9.03" transform="translate(-8.545 -112.43)"/>
            </g>
          </g>
        </g>
        <g id="그룹_509" data-name="그룹 509" class="cls-17" transform="translate(115.007 327.909)">
          <g id="그룹_508" data-name="그룹 508">
            <g id="그룹_507" data-name="그룹 507" class="cls-22">
              <path id="패스_635" data-name="패스 635" class="cls-16" d="M51.109,101.465c3.594,14.006,6.722,30.514.685,42.611-2.721,5.449-9.786,3.891-9.783-3.38,0-.423.016-.9.032-1.37a5.733,5.733,0,0,1-3.713-4.647L38.3,134.5a14.307,14.307,0,0,1-2.547-4.951c-.058.068-.11.142-.168.213L46.927,154.4l22.444-18.65Z" transform="translate(-35.585 -101.465)"/>
            </g>
          </g>
        </g>
        <g id="그룹_512" data-name="그룹 512" class="cls-17" transform="translate(67.199 363.728)">
          <g id="그룹_511" data-name="그룹 511">
            <g id="그룹_510" data-name="그룹 510" class="cls-23">
              <path id="패스_636" data-name="패스 636" class="cls-16" d="M30.046,130.794c-6.3-.911-8.183-7.4-9.12-14.439l-.132,20.615s22.244,2.346,41.638-1.18l-.957-23.243c-8.037,7.74-21.624,19.662-31.429,18.246" transform="translate(-20.792 -112.55)"/>
            </g>
          </g>
        </g>
        <path id="패스_637" data-name="패스 637" class="cls-24" d="M24.622,57.956a24.3,24.3,0,0,0,2.285,6.224l4.844-.058a35.84,35.84,0,0,0,1.891-5.788L30.1,54.392l-2.76-.026Z" transform="translate(54.95 121.331)"/>
        <g id="그룹_515" data-name="그룹 515" class="cls-12" transform="translate(67.998 171.079)">
          <g id="그룹_514" data-name="그룹 514">
            <g id="그룹_513" data-name="그룹 513" class="cls-25">
              <path id="패스_638" data-name="패스 638" class="cls-26" d="M21.174,52.937s5.484,9.805,6.68,15.289c0,0,7.821-6.3,8.926-8.008,0,0,5.016,6.14,9.976,8.2,0,0,4.25-9.928,6.58-15.315l-32.295.4" transform="translate(-21.039 -52.937)"/>
            </g>
          </g>
        </g>
        <path id="패스_639" data-name="패스 639" class="cls-10" d="M29.057,51.578l-7.976,5.177A32.55,32.55,0,0,1,28.5,68.936s7.078-6.331,8.147-9.711a48.537,48.537,0,0,0,9.43,10.9s3.138-8.364,7.168-13.208l-7.407-5.691Z" transform="translate(47.047 114.323)"/>
        <path id="패스_640" data-name="패스 640" class="cls-3" d="M42.172,50.071a43.659,43.659,0,0,0-1.218,8.722,27.827,27.827,0,0,0,.139,4.159l-9.408,6.4L24.09,63.78c.436-1.881-.068-6.745-.527-10.177C23.289,51.539,23.04,50,23.04,50s20.945-7.514,19.132.074" transform="translate(51.419 104.177)"/>
        <path id="패스_641" data-name="패스 641" class="cls-24" d="M26.6,57.484s-.591,9.036-.675,13.48-.979,12.142-.979,12.142l6.121,9.8,3.684-9.776L32.325,69.47s-1.238-8.658-1.706-12.109Z" transform="translate(55.675 128.015)"/>
        <g id="그룹_518" data-name="그룹 518" class="cls-27" transform="translate(74.461 150.855)">
          <g id="그룹_517" data-name="그룹 517">
            <g id="그룹_516" data-name="그룹 516" class="cls-28">
              <path id="패스_642" data-name="패스 642" class="cls-3" d="M42.172,50.071a43.659,43.659,0,0,0-1.218,8.722c-6.114,2.139-10.7-.126-17.39-5.19C23.289,51.539,23.04,50,23.04,50s20.945-7.514,19.132.074" transform="translate(-23.041 -46.678)"/>
            </g>
          </g>
        </g>
        <path id="패스_643" data-name="패스 643" class="cls-9" d="M60.354,56.93c-.029.152-.055.3-.084.485a12.373,12.373,0,0,0-.391,2.631c.042,3.229.717,11.518-8.638,18.424s-14.023,5.517-22.393-.294c-7.763-5.394-8.183-11.415-8.26-17.81a42.412,42.412,0,0,0-.814-4.65,18.7,18.7,0,0,1,.071-5.568,22.462,22.462,0,0,1,1.648-5.164,30.09,30.09,0,0,1,9.055-11.576s3.122,8.38,13.379,12.9c10.225,4.518,16.24,2.934,16.24,2.934S45.7,48.424,32.822,34.492c0,0,14.8,12.074,27.034,14.252,0,0,1.69,2.256.5,8.186" transform="translate(43.735 74.554)"/>
        <path id="패스_644" data-name="패스 644" class="cls-3" d="M59.436,38.308a12.45,12.45,0,0,1-1.564.2,20.574,20.574,0,0,1-.191,8.147,17.2,17.2,0,0,1-.562,3.578C54.688,59.35,44.87,67.507,35.13,65a15.9,15.9,0,0,1-10.238-8.283A23.273,23.273,0,0,1,19.9,49.765c.094,6.27.63,12.174,8.254,17.474,8.37,5.807,13.034,7.2,22.393.291s8.68-15.2,8.638-18.424a12.4,12.4,0,0,1,.391-2.631c.029-.181.055-.333.084-.485.879-4.373.194-6.735-.229-7.682" transform="translate(44.423 85.494)"/>
        <path id="패스_645" data-name="패스 645" class="cls-9" d="M21.959,40.263s-1.17-1.9-3.439.042.785,12.814,4.292,14.184c0,0,.53-8.283-.853-14.226" transform="translate(39.593 87.999)"/>
        <path id="패스_646" data-name="패스 646" class="cls-9" d="M34.881,40.117s1.121-1.929,3.439-.042S39.3,52.85,31.833,53.826c0,0,1.813-7.734,3.048-13.709" transform="translate(71.043 87.589)"/>
        <path id="패스_647" data-name="패스 647" class="cls-29" d="M26.607,42.291c.019,1.458-.643,2.647-1.477,2.66s-1.522-1.163-1.542-2.621.643-2.65,1.477-2.66,1.522,1.163,1.542,2.621" transform="translate(52.642 88.533)"/>
        <path id="패스_648" data-name="패스 648" class="cls-29" d="M30.154,42.247c.019,1.458-.643,2.647-1.474,2.66s-1.525-1.163-1.545-2.621.643-2.65,1.477-2.66,1.522,1.163,1.542,2.621" transform="translate(60.558 88.435)"/>
        <path id="패스_649" data-name="패스 649" class="cls-29" d="M22.075,41.8a4.529,4.529,0,0,1,1.47-1.9,6.6,6.6,0,0,1,2.107-1.231,7.791,7.791,0,0,1,2.417-.252,5.42,5.42,0,0,1,2.295.546l.055.026a.35.35,0,0,1,.178.459.344.344,0,0,1-.391.194,7.8,7.8,0,0,0-4.179.158,6.93,6.93,0,0,0-3.371,2.385.343.343,0,0,1-.485.071.35.35,0,0,1-.113-.41Z" transform="translate(49.172 85.691)"/>
        <path id="패스_650" data-name="패스 650" class="cls-30" d="M27.164,53.637s2.857,25.353,18.618,44.9c0,0,11.321-19.607,15.823-43.076L72.664,82.687l-1.952,63.5s4.269,4.308,2,7.8c-1.661,2.56-11.945,4.625-23.96,1.642-7.569-1.881-19.465-.178-23.976.162s-9.76-2.346-4.2-9.188c5.623-6.922,4.951-43.858,4.951-43.858S18.171,56.29,19.02,56.562s8.144-2.925,8.144-2.925" transform="translate(40.573 119.704)"/>
        <path id="패스_651" data-name="패스 651" class="cls-31" d="M72.666,82.686l-10.807-26.6c.048,14.682-3.3,31.219-10.313,44.259,1.706,8.732,6.845,26.882,5.885,39.049a24.658,24.658,0,0,0,4.667,5.174c3.141,2.537.724,8.516-3.277,8.2a85.524,85.524,0,0,1-10.216-1.354,6.678,6.678,0,0,1-3.028-.717,45.283,45.283,0,0,1-5.559-1.813c-2.388-.973-2.964-4.492-1.8-6.512.284-.494.549-1,.831-1.493.343-1.661.685-3.322.97-4.993.11-.669.233-1.338.326-2.007.019-.116.032-.229.048-.343.385-2.8.653-5.584.84-8.38a57.214,57.214,0,0,0-.73-12.649,9.07,9.07,0,0,1-.921-4.45,4.668,4.668,0,0,1-.313-.5c-7.646-15.428-8.735-32.311-11.5-49.039a5.416,5.416,0,0,1-.042-1.306c-.407-2.23-.566-3.578-.566-3.578s-7.3,3.2-8.144,2.925,6.5,46.182,6.5,46.182.675,36.936-4.951,43.858c-5.555,6.842-.3,9.527,4.208,9.188s16.408-2.039,23.976-.162c12.012,2.983,22.3.918,23.957-1.642,2.269-3.493-2-7.8-2-7.8Z" transform="translate(40.571 119.702)"/>
        <path id="패스_652" data-name="패스 652" class="cls-29" d="M34.962,41.772c-.556-.4-1.141-.8-1.7-1.154a8,8,0,0,0-1.849-.737,10.59,10.59,0,0,0-4.056-.462h-.1a.344.344,0,0,1-.081-.675,8.54,8.54,0,0,1,4.579,0,7.56,7.56,0,0,1,3.778,2.634.336.336,0,0,1-.462.478Z" transform="translate(60.081 85.763)"/>
        <g id="그룹_521" data-name="그룹 521" class="cls-32" transform="translate(79.945 127.05)">
          <g id="그룹_520" data-name="그룹 520">
            <g id="그룹_519" data-name="그룹 519" class="cls-33">
              <path id="패스_653" data-name="패스 653" class="cls-34" d="M28.095,39.714l.068,5.462a.412.412,0,0,1-.323.4h0a11.64,11.64,0,0,0-1.477.776,1.01,1.01,0,0,0-.362.352c.006-.268.006.042.171.2a7.3,7.3,0,0,0,2.757,1.839l.019.01a.407.407,0,0,1-.239.772,6.157,6.157,0,0,1-3.5-1.845,1.466,1.466,0,0,1-.417-1.461,2.085,2.085,0,0,1,.924-.924,4.448,4.448,0,0,1,1.952-.511l.006,0-.323.4-.071-5.462a.407.407,0,0,1,.814-.01" transform="translate(-24.738 -39.313)"/>
            </g>
          </g>
        </g>
        <g id="그룹_524" data-name="그룹 524" class="cls-35" transform="translate(71.915 135.472)">
          <g id="그룹_523" data-name="그룹 523">
            <g id="그룹_522" data-name="그룹 522" class="cls-36">
              <path id="패스_654" data-name="패스 654" class="cls-37" d="M29.042,45.272a3.4,3.4,0,1,1-3.435-3.351,3.393,3.393,0,0,1,3.435,3.351" transform="translate(-22.254 -41.917)"/>
            </g>
          </g>
        </g>
        <g id="그룹_527" data-name="그룹 527" class="cls-35" transform="translate(88.415 135.329)">
          <g id="그룹_526" data-name="그룹 526">
            <g id="그룹_525" data-name="그룹 525" class="cls-38">
              <path id="패스_655" data-name="패스 655" class="cls-37" d="M34.148,45.226a3.4,3.4,0,1,1-3.435-3.351,3.393,3.393,0,0,1,3.435,3.351" transform="translate(-27.359 -41.875)"/>
            </g>
          </g>
        </g>
        <path id="패스_656" data-name="패스 656" class="cls-39" d="M38.641,43.032c-.986.918-1.3,2.43-2,3.949a5.6,5.6,0,0,1-.621,1.092,4.511,4.511,0,0,1-.591.824,6.964,6.964,0,0,1-4.166,2.314A6.836,6.836,0,0,1,27.068,49a7.1,7.1,0,0,1-.643-.808,7.6,7.6,0,0,1-.646-1.076c-.8-1.47-1.215-2.941-2.223-3.836,0,0,.637.174,1.7.372a1.507,1.507,0,0,0,.362.026c.966-.013,2.346-.543,5.3-.64l.482-.006c3.351.019,4.686.666,5.678.472a7.451,7.451,0,0,0,1.564-.472" transform="translate(52.569 96.037)"/>
        <path id="패스_657" data-name="패스 657" class="cls-40" d="M43.968,107.589l-.446-.5a91.855,91.855,0,0,1-13.25-20.906C24.661,73.873,19.3,53.228,19.248,53.021l.982-.255c.055.207,5.391,20.767,10.969,33A92.014,92.014,0,0,0,43.838,105.9C45.409,103.378,51.7,93,55.4,82.944a216.572,216.572,0,0,0,6.884-23.088l.989.226a215.392,215.392,0,0,1-6.922,23.21C52.086,94.9,44.4,106.911,44.326,107.03Z" transform="translate(42.957 117.76)"/>
        <g id="그룹_530" data-name="그룹 530" class="cls-41" transform="translate(78.993 143.234)">
          <g id="그룹_529" data-name="그룹 529">
            <g id="그룹_528" data-name="그룹 528" class="cls-42">
              <path id="패스_658" data-name="패스 658" class="cls-34" d="M34.037,45.2a4.469,4.469,0,0,1-.595.824,6.922,6.922,0,0,1-4.162,2.314,6.811,6.811,0,0,1-4.192-2.207,7.148,7.148,0,0,1-.646-.808,12.34,12.34,0,0,1,4.786-1,11.89,11.89,0,0,1,4.809.873" transform="translate(-24.444 -44.32)"/>
            </g>
          </g>
        </g>
        <rect id="사각형_178" data-name="사각형 178" class="cls-43" width="93.619" height="105.229" transform="translate(25.642 92.421) rotate(-80.821)"/>
        <path id="패스_659" data-name="패스 659" class="cls-44" d="M67.946,76.02S55.252,64.754,53.416,64.638s-4.486,2.311-4.486,2.311S28.761,55.776,17.5,46.046-.822,47.4.248,54.022,26.855,83.589,45.961,99.993c0,0,8.3,34.383,7.469,40.248S43.65,163.92,43.65,163.92l15.49,8.532a7.872,7.872,0,0,0,11.776-4.6l5.142-11.427L78.1,135.061S67.594,115.376,67.946,76.02" transform="translate(0.315 94.209)"/>
        <path id="패스_660" data-name="패스 660" class="cls-44" d="M36.177,81.542s9.56-13.661,11.392-13.825,4.541,2.2,4.541,2.2,14.646-7.449,29.021-25.33c9.327-11.6,21.86-.417,20.955,6.224S75.624,83.3,60.431,103.524c0,0-8.81,30.469-7.494,36.244S65.857,163.15,65.857,163.15l-15.344,9.631a7.873,7.873,0,0,1-12.119-3.613l-5.3-14.607-3.8-21.123s8.228-12.559,6.887-51.9" transform="translate(65.368 88.27)"/>
        <g id="그룹_533" data-name="그룹 533" class="cls-32" transform="translate(0.456 136.422)">
          <g id="그룹_532" data-name="그룹 532">
            <g id="그룹_531" data-name="그룹 531" class="cls-45">
              <path id="패스_661" data-name="패스 661" class="cls-44" d="M43.648,163.922l7.721,4.25c-3.642-3.493-4.928-8.092-.572-14.449,5.488-8.012,18.2-19.138,26.552-10.817l.75-7.847s-4.612-8.716-7.624-26.035a39.5,39.5,0,0,1-3.271,8.9,3.014,3.014,0,0,1-4.046,1.115c-16.046-8.18-13.783-26.187-14.934-41.78-.973-4.45-1.49-8.774-1.952-11.285a2.644,2.644,0,0,1-.019-.553c-2.072-1.193-5.155-3.006-8.713-5.213.265.275.527.549.789.831a22.144,22.144,0,0,1,5.384,4.906c2.33,3.038,2.673,6.813-.129,9.7-3.028,3.122-7.265,2.288-10.91.831-8.916-3.561-20.4-11.835-24.655-20.774-1.781-3.739-1.047-7.281,3.1-8.91a13.762,13.762,0,0,1,6.467-.679c-.026-.026-.058-.048-.084-.071C6.231,36.314-.824,47.4.249,54.02s26.6,29.567,45.713,45.972c0,0,8.3,34.386,7.465,40.248s-9.779,23.682-9.779,23.682" transform="translate(-0.14 -42.212)"/>
            </g>
          </g>
        </g>
        <g id="그룹_536" data-name="그룹 536" class="cls-32" transform="translate(94.659 127.867)">
          <g id="그룹_535" data-name="그룹 535">
            <g id="그룹_534" data-name="그룹 534" class="cls-46">
              <path id="패스_662" data-name="패스 662" class="cls-44" d="M81.723,43.919c3.994-.591,7.96-.168,9.805,3.261,2.731,5.074-2.55,11.272-5.584,15C79.2,70.442,62.856,86.346,52.828,73.781a3.1,3.1,0,0,1-.052-4.195c.032-.045.078-.078.113-.123-.494.278-.779.423-.779.423a14.24,14.24,0,0,0-2.13-1.477c-.213.187-.394.407-.6.6,0,.158-.006.313-.01.469a33.064,33.064,0,0,1,1.752,6.651,2.792,2.792,0,0,1,.879,2c.284,11.537,5.213,34.467-6.564,42.255-4.754,3.148-7.944.181-8.551-4.8-.427-3.484.184-7.158.068-10.668-.152-4.4-.524-8.771-.666-13.16-.265,31.245-7,41.644-7,41.644l3.8,21.123,5.307,14.607a7.87,7.87,0,0,0,12.116,3.613l.391-.242c-6.593.288-12.591-2.763-12.73-11.3-.158-9.947,7.84-18.311,14.847-26,1.228-10.332,7.41-31.72,7.41-31.72,15.192-20.221,40.752-46.072,41.654-52.713.885-6.5-11.1-17.306-20.36-6.861" transform="translate(-29.289 -39.566)"/>
            </g>
          </g>
        </g>
        <path id="패스_663" data-name="패스 663" class="cls-15" d="M21.317,150.38s-2.6-35.216,2.879-65.592Z" transform="translate(46.197 189.225)"/>
        <path id="패스_664" data-name="패스 664" class="cls-15" d="M30.38,85.187l9.456,65s-1.745-40.526-9.456-65" transform="translate(67.8 190.116)"/>
        <g id="그룹_539" data-name="그룹 539" class="cls-12" transform="translate(82.276 185.379)">
          <g id="그룹_538" data-name="그룹 538">
            <g id="그룹_537" data-name="그룹 537" class="cls-47">
              <path id="패스_665" data-name="패스 665" class="cls-26" d="M25.459,57.484a15.266,15.266,0,0,0,1.677,4.492c1.005,1.328,2.34-4.615,2.34-4.615Z" transform="translate(-25.458 -57.364)"/>
            </g>
          </g>
        </g>
        <path id="패스_666" data-name="패스 666" class="cls-44" d="M1.289,77.836s-4.912-3.746,4.447-16.559S24.7,32.689,24.7,32.689s10.332-2.879,14.892,6.37c0,0-7.924,14.911-11.835,23.634S10.053,90.7,1.289,77.836" transform="translate(0.001 72.007)"/>
        <path id="패스_667" data-name="패스 667" class="cls-44" d="M70.428,83.656s5.717-2.343,0-17.144S58.5,28.189,58.5,28.189s-9.233-5.462-16.036,2.291c0,0,4.819,22.244,6.334,31.684s9.831,31.642,21.633,21.491" transform="translate(94.76 58.742)"/>
        <path id="패스_668" data-name="패스 668" class="cls-9" d="M53.3,18.644s-.265-1.364-3.513-1.416-8.319-.01-8.319-.01-2.76.058-2.424,1.386S41.95,20.36,41.95,20.36l5.206.339,4.515.136s2.1.294,1.626-2.191" transform="translate(87.068 38.39)"/>
        <path id="패스_669" data-name="패스 669" class="cls-9" d="M51.017,21.54s-.3-1.083-2.918-.921-6.7.514-6.7.514-2.217.22-1.861,1.27,2.45,1.228,2.45,1.228L46.2,23.58l3.645-.175s1.71.107,1.173-1.865" transform="translate(88.145 45.98)"/>
        <path id="패스_670" data-name="패스 670" class="cls-9" d="M54.6,19.858s-.326-1.532-3.975-1.577-9.343.023-9.343.023-3.1.078-2.692,1.571,3.3,1.958,3.3,1.958l5.853.359,5.074.136s2.366.323,1.781-2.469" transform="translate(86.031 40.76)"/>
        <path id="패스_671" data-name="패스 671" class="cls-9" d="M54.5,20.992s-.326-1.532-3.975-1.574-9.343.023-9.343.023-3.1.078-2.692,1.567,3.3,1.962,3.3,1.962l5.853.355,5.074.139s2.366.323,1.781-2.472" transform="translate(85.825 43.298)"/>
        <path id="패스_672" data-name="패스 672" class="cls-3" d="M41.4,19.812c1.658.133,3.316.255,4.97.262a24.818,24.818,0,0,1,5.691.213c.071.016.094.078.158.1.585-.1,1.393-.524,1.079-2.168a1.283,1.283,0,0,0-.543-.688,3.022,3.022,0,0,1-2.686,1.651,47.25,47.25,0,0,1-6.011-.145c-1.37-.061-2.938.2-4.124-.62a1.623,1.623,0,0,1-.633-1.028.746.746,0,0,0-.259.8c.239.94,1.584,1.422,2.356,1.626" transform="translate(87.068 38.812)"/>
        <path id="패스_673" data-name="패스 673" class="cls-3" d="M51.018,21.214a1.039,1.039,0,0,0-.407-.465,1.694,1.694,0,0,1-.3.527,3.287,3.287,0,0,1-2.55.847c-.585.013-1.173.036-1.765.048q-2.157.213-4.337.252A1.369,1.369,0,0,1,40.227,21.1c-.465.191-.856.491-.695.979.355,1.047,2.453,1.228,2.453,1.228l4.214-.052,3.645-.175s1.71.107,1.173-1.865" transform="translate(88.144 46.307)"/>
        <path id="패스_674" data-name="패스 674" class="cls-3" d="M54.571,19.288a1.464,1.464,0,0,0-.617-.769,1.5,1.5,0,0,1-.843,2.114l-.323.1a1.322,1.322,0,0,1-1.218-.191c-1.681-.22-3.413.013-5.1-.045-2.227-.074-4.447-.288-6.667-.43a1.445,1.445,0,0,1-1.238-.824c.006.023-.006.039,0,.065.407,1.49,3.3,1.958,3.3,1.958l1.115.068c1.59.026,3.18.048,4.78.026,1.548-.019,4.1-.6,5.4.407.64-.042,1.852-.388,1.416-2.476" transform="translate(86.055 41.33)"/>
        <path id="패스_675" data-name="패스 675" class="cls-3" d="M53.634,20.527a1.747,1.747,0,0,0-.869-.918,1.068,1.068,0,0,1-.789,1.852,1.38,1.38,0,0,1-.763.242l-.116-.045a.629.629,0,0,1-.155,0c-.417.036-1.651.207-2.1.213-1.121.013-2.243.023-3.361.045-2.23.048-4.418-.087-6.638-.107a7.723,7.723,0,0,0,2.081.688l5.853.359L51.854,23s2.366.323,1.781-2.469" transform="translate(86.694 43.762)"/>
        <path id="패스_676" data-name="패스 676" class="cls-9" d="M27.681,55.637a.538.538,0,0,1-.029.149c0,.029-.029.061-.029.09-.055.207-.11.5-.2.863-.081.417-.223.953-.336,1.519-.055.268-.142.536-.2.837v.058c-.055.239-.113.507-.168.743-.055.268-.084.507-.139.747-3.823-3.755-8.929-3.513-11.243-3.186.433-1.076,1.677-3.736,1.677-3.736s-3.471-6.641-4.757-7.191c-1.254-.549-2.049.026-2.188-1.519-.168-1.571.094-2.139-1.367-2.45-1.49-.336-2.2-.475-2.291-2.585-.116-2.107-1.5-1.05-1.668-2.653a2.019,2.019,0,0,1,.081-.536,6.072,6.072,0,0,1,.465-1.015c.084-.181.233-.391.349-.6A36.122,36.122,0,0,1,9.182,30.7,8.575,8.575,0,0,1,10.2,29.23c2.34-2.821,5.21-6.334,5.21-6.334s2.11-2.375,3.277-1.735a1.046,1.046,0,0,1,.33.294v.029c.488.856-.591,2.621-.591,2.621l-3.448,4.56-2.427,3.241c2.476-1.7,4.951-3.39,4.951-3.39s2.624-1.609,3.707-.524c1.054,1.118-.882,2.954-.882,2.954l-1.089.818L17.3,33.212l-.061.061-.763.575a2.276,2.276,0,0,1,.352-.213c1.561-1,2.86-1.79,2.86-1.79s1.622-.97,2.757-.507a.026.026,0,0,1,.029.029,1.036,1.036,0,0,1,.452.291c1.054,1.144-.533,2.711-.533,2.711l-.029.029a1.1,1.1,0,0,0-.381.3l-3.064,2.269-.2.152A.973.973,0,0,0,18.948,37a3.711,3.711,0,0,0,.679-.394c1.151-.611,2.036-1.066,2.036-1.066s2.036-1.066,2.731-.242c.423.469.074,1.07-.307,1.49v.029l-.472.482a.108.108,0,0,1-.058.032l-3.536,2.243-2.126,1.244a33.4,33.4,0,0,1,7.714,6.024c4.366,4.55,2.072,8.8,2.072,8.8" transform="translate(10.596 46.981)"/>
        <path id="패스_677" data-name="패스 677" class="cls-3" d="M27.681,55.338a.538.538,0,0,1-.029.149c0,.029-.029.061-.029.09-.055.178-.11.5-.2.863-.081.417-.223.953-.336,1.519-.055.268-.142.536-.2.837v.058c-.055.239-.113.507-.168.743-.055.268-.084.507-.139.747-3.823-3.755-8.929-3.513-11.243-3.186.433-1.076,1.677-3.736,1.677-3.736s-3.471-6.641-4.757-7.191c-1.254-.549-2.049.026-2.188-1.519-.168-1.571.094-2.139-1.367-2.45-1.49-.336-2.2-.475-2.291-2.585-.116-2.107-1.5-1.05-1.668-2.653a2.019,2.019,0,0,1,.081-.536,6.072,6.072,0,0,1,.465-1.015c.084-.181.233-.391.349-.6a1.466,1.466,0,0,0,1.907.391c1.651-.824,2.644-2.353,3.694-3.791a.971.971,0,0,0,.145-.33,4.937,4.937,0,0,0,.381-.478c.937-1.024,1.845-2.1,2.663-3.183.349-.511.7-1.05,1.05-1.59a1.063,1.063,0,0,0,.53-.391c.087-.09.145-.21.233-.3.029-.061.09-.09.116-.152.763-1.018,1.461-2.068,2.13-3.144.149-.239.323-.452.527-.721.488.856-.591,2.621-.591,2.621l-3.448,4.56-2.427,3.241c-.527.511-1.144.966-1.642,1.535-4.573,5.2.814,3.468,2.133,2.055a41.677,41.677,0,0,1,7.178-5.917c.087-.087.207-.149.294-.239a1.258,1.258,0,0,0,.278-1.58,1.182,1.182,0,0,1,.417.233c1.054,1.118-.882,2.954-.882,2.954l-1.089.818c-.766.514-1.386,1-1.942,1.448l-.061.061a5.189,5.189,0,0,0-.41.362,49.21,49.21,0,0,1-5.475,4.227,1.444,1.444,0,0,0-.32.452c-.029.058-.058.087-.058.149-.029.058-.029.12-.058.178a1.45,1.45,0,0,0,.553,1.331c.029.029.09.058.12.087a1.237,1.237,0,0,0,.271.145,1.893,1.893,0,0,0,.388.113c.058,0,.087.029.149.029a2.454,2.454,0,0,0,.414-.065.385.385,0,0,0,.178-.032,1.858,1.858,0,0,1,.207-.061c2.54-1.28,4.353-3.5,6.531-5.255l.207-.21a9.1,9.1,0,0,1,1.858-.915,1.568,1.568,0,0,0,.682-2.443,1.036,1.036,0,0,1,.452.291c1.054,1.144-.533,2.711-.533,2.711l-.029.029a1.1,1.1,0,0,0-.381.3l-3.064,2.269-.2.152-.029.029c0,.029-3.885,3.2-3.885,3.229.013.921,4.854-1.577,5.921-1.978a26.886,26.886,0,0,0,3.367-1.616v.029l-.472.482a.108.108,0,0,1-.058.032L20.021,39.27l-2.126,1.244a33.4,33.4,0,0,1,7.714,6.024c4.366,4.55,2.072,8.8,2.072,8.8" transform="translate(10.596 47.28)"/>
        <g id="그룹_542" data-name="그룹 542" class="cls-48" transform="translate(44.667 164.874)">
          <g id="그룹_541" data-name="그룹 541">
            <g id="그룹_540" data-name="그룹 540" class="cls-49">
              <path id="패스_678" data-name="패스 678" class="cls-50" d="M32,153.415a6.367,6.367,0,0,1-2.453-.666c-6.725-3.306-15.377-8.07-15.461-8.121a.506.506,0,0,1-.2-.688.512.512,0,0,1,.688-.2c.087.048,8.716,4.806,15.422,8.1,3.668,1.8,6.838-1.231,8.028-2.627,1.222-1.425,4.428-10,5.559-13.186l1.871-20.286c-.472-.989-3.678-7.721-8.687-18.385-5.387-11.463-11.12-28.727-11.175-28.9l-.178-.527,8.664-2.02L29.817,51.67a.508.508,0,1,1,.973-.291l4.57,15.273-8.629,2.01c1.005,2.986,6.121,17.978,10.952,28.262,5.433,11.563,8.745,18.5,8.745,18.5l.061.126-1.923,20.686c-.194.6-4.179,11.77-5.772,13.632-1.079,1.26-3.607,3.717-6.8,3.542" transform="translate(-13.821 -51.018)"/>
            </g>
          </g>
        </g>
        <g id="그룹_545" data-name="그룹 545" class="cls-48" transform="translate(95.281 162.46)">
          <g id="그룹_544" data-name="그룹 544">
            <g id="그룹_543" data-name="그룹 543" class="cls-51">
              <path id="패스_679" data-name="패스 679" class="cls-50" d="M44.847,149.66c-4.24-.236-6.163-4.789-6.186-4.841l-5.488-15.079-3.691-19.92.123-.175A82.469,82.469,0,0,0,37.433,94.5c3.4-8.425,7.556-22.493,8.393-25.353l-8.742-2,3.862-16.482a.492.492,0,0,1,.611-.378.506.506,0,0,1,.378.611L38.306,66.384,47.1,68.4l-.149.514c-.045.165-4.78,16.553-8.574,25.97a85.808,85.808,0,0,1-7.821,15.17l3.594,19.423,5.458,14.979c.071.171,2.007,4.689,6.318,4.15,2.7-.359,12.908-6.577,17.933-9.815a.507.507,0,1,1,.549.853c-.6.388-14.756,9.492-18.35,9.97a6.468,6.468,0,0,1-1.212.048" transform="translate(-29.482 -50.27)"/>
            </g>
          </g>
        </g>
      </g>
    </g>
    <text id="Q" class="cls-52" transform="translate(51.887 73.096) rotate(9.179)"><tspan x="0" y="0">Q</tspan></text>
    <g id="그룹_615" data-name="그룹 615">
      <g id="그룹_614" data-name="그룹 614" class="cls-2">
        <path id="패스_680" data-name="패스 680" class="cls-44" d="M57.031,68.343s-9.912.139-13.079,8.422c-2.062,5.4-.834,11.87-.065,14.016s7.036,6.286,7.036,6.286,13.864-18.411,6.108-28.724" transform="translate(95.556 152.524)"/>
        <path id="패스_681" data-name="패스 681" class="cls-9" d="M80.5,169.63l-12.258-.575s-.336-6.939-1.554-18.314c4.534-.065,9.036-.168,13.538-.3.036,1.693.068,3.351.107,4.909.029,2.708.065,5.177.1,7.278.071,4.266.071,7.006.071,7.006" transform="translate(148.831 335.737)"/>
        <path id="패스_682" data-name="패스 682" class="cls-9" d="M92.892,170.287,91.826,188.43l-14.6-15.445,2.495-4.689s.375-6.939.271-18.389c4.906.459,9.776.879,14.65,1.264-.142,1.687-.284,3.342-.414,4.893-.252,2.7-.478,5.158-.666,7.249-.381,4.246-.672,6.974-.672,6.974" transform="translate(172.353 334.557)"/>
        <path id="패스_683" data-name="패스 683" class="cls-53" d="M94.053,179.864a2.586,2.586,0,0,1-1.193,1.416c-3.8,2.511-22.784,3.616-27.48.569,0,0-.078-.039-.078-.078a1.815,1.815,0,0,1-.97-1.4c-.171-2.889,7.963-21.7,7.963-21.7,7.052-8.189,14.207-1.222,14.207-1.222,2.618,15.167,8.361,19.688,7.549,22.415" transform="translate(143.571 345.217)"/>
        <path id="패스_684" data-name="패스 684" class="cls-31" d="M81.512,160.109c-5.979-1.089-11.1,2.766-16.446,5.326a12.053,12.053,0,0,0-.73,3.258,1.807,1.807,0,0,0,.97,1.4c0,.039.078.077.078.077,4.7,3.048,23.676,1.942,27.476-.569a2.58,2.58,0,0,0,1.2-1.416,3.634,3.634,0,0,0-.427-2.411c-3.91-2.317-7.808-4.877-12.116-5.662" transform="translate(143.573 356.9)"/>
        <g id="그룹_550" data-name="그룹 550" class="cls-12" transform="translate(207.905 520.651)">
          <g id="그룹_549" data-name="그룹 549">
            <g id="그룹_548" data-name="그룹 548" class="cls-54">
              <path id="패스_685" data-name="패스 685" class="cls-29" d="M94.051,165.534a2.586,2.586,0,0,1-1.193,1.416c-3.8,2.511-22.784,3.616-27.48.569,0,0-.078-.039-.078-.078a6.914,6.914,0,0,1-.97-1.4,38.1,38.1,0,0,1,9.521-4.078c5.6-1.567,10.833-.869,14.436,1.089,2.152,1.176,3.875,2.269,5.762,2.479" transform="translate(-64.333 -161.104)"/>
            </g>
          </g>
        </g>
        <path id="패스_686" data-name="패스 686" class="cls-44" d="M70.08,49.346S67.3,47.995,66,49.859s-1.024,5.82-1.024,5.82-6.147,45.894-13.651,69.289c0,0,12.723,19,16.143,15.626S81.352,96.82,81.427,95.976,70.08,49.346,70.08,49.346" transform="translate(114.54 109.071)"/>
        <path id="패스_687" data-name="패스 687" class="cls-16" d="M72.493,120.811s16.233,47.953,20.292,76.725c0,0,0,1.128-3.481,21.439s-2.32,82.93-2.32,82.93,13.056,7.194,21.753,6.628c0,0,3.762-63.607,8.4-87.868s1.739-47.387-4.059-83.5l-4.638-24.258-1.16-23.7L74.81,83.578Z" transform="translate(161.786 186.525)"/>
        <path id="패스_688" data-name="패스 688" class="cls-16" d="M106.417,89.08l-3.481,23.7-5.8,23.7v73.338c0,13.541-3.477,24.261-2.317,99.292l-22.066.989s-6.347-61.917-2.867-97.46l-8.7-92.522,3.39-38.742Z" transform="translate(136.558 181.588)"/>
        <g id="그룹_553" data-name="그룹 553" class="cls-32" transform="translate(234.295 306.896)">
          <g id="그룹_552" data-name="그룹 552">
            <g id="그룹_551" data-name="그룹 551" class="cls-55">
              <path id="패스_689" data-name="패스 689" class="cls-16" d="M96.981,165.567c-1.868-10.539-7.21-20.871-10.435-30.847-4.34-13.421-8.451-26.8-14.039-39.757l-.01.152.01.365c.53,1.574,16.278,48.366,20.27,76.651,0,0,0,.162-.171,1.325,1.341-2.682,2.776-5.326,4.376-7.889" transform="translate(-72.5 -94.962)"/>
            </g>
          </g>
        </g>
        <g id="그룹_556" data-name="그룹 556" class="cls-32" transform="translate(268.795 374.889)">
          <g id="그룹_555" data-name="그룹 555">
            <g id="그룹_554" data-name="그룹 554" class="cls-56">
              <path id="패스_690" data-name="패스 690" class="cls-16" d="M84.181,125.183c1.115,1.535,2.01,3.225,3,4.857a14.022,14.022,0,0,0,1.584,2.495,1.327,1.327,0,0,0,.588-.6c1.254-2.282,3.755-4.463,5.281-6.67.187-.275.381-.549.572-.824a5.508,5.508,0,0,1-5.924-.963,51.731,51.731,0,0,1-6.1-7.475,48.729,48.729,0,0,1,1.008,9.181" transform="translate(-83.174 -116.002)"/>
            </g>
          </g>
        </g>
        <g id="그룹_559" data-name="그룹 559" class="cls-32" transform="translate(269.879 400.075)">
          <g id="그룹_558" data-name="그룹 558">
            <g id="그룹_557" data-name="그룹 557" class="cls-57">
              <path id="패스_691" data-name="패스 691" class="cls-16" d="M90.69,125.278c-3.077,1.012-5.342.559-7.181-.662a73.209,73.209,0,0,1,1.283,11.308c2.818,12.849,1,25.689.433,38.807C84.7,187,84.246,199.437,84.592,211.8c1.121-17.164,4.263-61.532,7.963-80.887.452-2.375.811-4.747,1.125-7.116a12.834,12.834,0,0,1-2.989,1.483" transform="translate(-83.508 -123.796)"/>
            </g>
          </g>
        </g>
        <g id="그룹_562" data-name="그룹 562" class="cls-32" transform="translate(197.776 262.954)">
          <g id="그룹_561" data-name="그룹 561">
            <g id="그룹_560" data-name="그룹 560" class="cls-58">
              <path id="패스_692" data-name="패스 692" class="cls-16" d="M132.491,94.157,106.32,89.61l.078-.53L64.559,81.366,61.4,117.5a17.356,17.356,0,0,0-.113,4.4c8.894.268,19.381,4.857,25.967,9.149a26.932,26.932,0,0,1,8.806,8.739c.074,0,.158,0,.229-.006.6-.026,1.629-4.935,2.734-10.729,1.147,3.167,2.579,5.924,4.091,7.414a34.046,34.046,0,0,1,5.507-10.4c5.2-6.531,13.971-12.145,22.551-11.466a3.714,3.714,0,0,1,2.288-.614Z" transform="translate(-61.198 -81.365)"/>
            </g>
          </g>
        </g>
        <g id="그룹_565" data-name="그룹 565" class="cls-32" transform="translate(198.474 309.234)">
          <g id="그룹_564" data-name="그룹 564">
            <g id="그룹_563" data-name="그룹 563" class="cls-59">
              <path id="패스_693" data-name="패스 693" class="cls-16" d="M74.687,179.089c-2.052-7.934-4.308-15.839-4.508-24.089a5.256,5.256,0,0,1,.268-1.8c-2.873-19.155-6.829-38.138-8.138-57.512-.3.058-.595.129-.9.187l7.061,75.115c.772,1.3,1.464,2.611,2.165,3.923a48.893,48.893,0,0,0,4.046,4.175" transform="translate(-61.414 -95.685)"/>
            </g>
          </g>
        </g>
        <g id="그룹_568" data-name="그룹 568" class="cls-32" transform="translate(208.005 355.621)">
          <g id="그룹_567" data-name="그룹 567">
            <g id="그룹_566" data-name="그룹 566" class="cls-60">
              <path id="패스_694" data-name="패스 694" class="cls-16" d="M90.055,110.04a5.438,5.438,0,0,1-.763.032c-.074,5.992-.352,11.98-.388,17.972a5,5,0,0,1-.268,1.59c-.006,6.289-.9,12.733-4.78,15.949a14.732,14.732,0,0,1-5.365,5.807,39.882,39.882,0,0,0,.352,4.049,7.434,7.434,0,0,1,.013,1.257c4.466,4.356,8.015,9.078,8.251,14.927.821,20.234-.889,45.632-1.267,66.008-.065,3.477-7.378,4.9-10.687,4.146-4.886-1.105-8.335-4.993-10.791-10.439.721,8.984,1.309,14.753,1.309,14.753l22.066-.986c-1.16-75.035,2.317-85.751,2.317-99.292Z" transform="translate(-64.363 -110.04)"/>
            </g>
          </g>
        </g>
        <path id="패스_695" data-name="패스 695" class="cls-10" d="M102.858,46.744l6.16,4.117-.427,16.944L87.255,100.026,67.748,66.59l-.591-17.933,7.821-4.282L86.5,48.13Z" transform="translate(149.877 99.034)"/>
        <path id="패스_696" data-name="패스 696" class="cls-24" d="M71.825,49.825a22.988,22.988,0,0,0,1.4,6.5l5.012-.039a43.606,43.606,0,0,0,2.844-6.018L78.03,46.141,75.183,46.1Z" transform="translate(160.295 102.881)"/>
        <g id="그룹_571" data-name="그룹 571" class="cls-12" transform="translate(220.283 144.853)">
          <g id="그룹_570" data-name="그룹 570">
            <g id="그룹_569" data-name="그룹 569" class="cls-61">
              <path id="패스_697" data-name="패스 697" class="cls-26" d="M68.162,45.394s5.6,9.3,6.813,15c0,0,8.147-6.5,9.3-8.267,0,0,5.171,6.4,10.312,8.554,0,0,4.457-10.28,6.9-15.861Z" transform="translate(-68.163 -44.822)"/>
            </g>
          </g>
        </g>
        <path id="패스_698" data-name="패스 698" class="cls-10" d="M74.382,44.757l-6.244,4.773A26.3,26.3,0,0,1,75.81,61.275s7.375-6.535,8.5-10.038A50.33,50.33,0,0,0,94.04,62.593s3.3-8.661,7.5-13.67l-7.656-5.94Z" transform="translate(152.067 95.927)"/>
        <path id="패스_699" data-name="패스 699" class="cls-24" d="M76.3,49.332s-2,9.4-2.779,14.032-2.879,12.643-2.879,12.643l5.539,13.909,5.652-11.6-.8-16.146s-.614-9.353-.562-12.95Z" transform="translate(157.655 109.858)"/>
        <path id="패스_700" data-name="패스 700" class="cls-30" d="M131.087,176.7c-1.739,2.663-12.429,4.754-24.855,1.587-7.873-2.007-34.088-9.382-38.774-9.059s-10.106-2.479-4.3-9.566c5.849-7.152,5.349-45.467,5.349-45.467s4.515-66.241,5.407-65.957c.462.142,2.85-.695,4.964-1.522.32-.142.672-.278.986-.385,1.416-.588,2.511-1.066,2.511-1.066S81.728,70.391,98,90.731c0,0,16.947-15.965,23.669-44.349l3.106,1,.992.294,11.825,3.791-8.554,117.131s4.421,4.479,2.052,8.105" transform="translate(135.329 101.018)"/>
        <path id="패스_701" data-name="패스 701" class="cls-31" d="M129.034,167.249l8.554-117.128-11.825-3.794-.957-.281c-.776,10.749-1.293,24.422-5.384,35.53-2.615,13.486-8.005,24.939-22,25.082a12.479,12.479,0,0,1-8.461-2.7,5.284,5.284,0,0,1-6.018-2.5,72.646,72.646,0,0,1-7.763-36.276c-.637-7.1-.242-13.939,2.4-19.316A12.585,12.585,0,0,1,73.913,46.9c-.892-.288-5.407,65.953-5.407,65.953s.5,38.319-5.345,45.467c-5.811,7.087-.391,9.892,4.3,9.569s30.9,7.052,38.774,9.055c12.426,3.17,23.12,1.076,24.855-1.584,2.369-3.626-2.052-8.108-2.052-8.108" transform="translate(135.33 102.359)"/>
        <g id="그룹_574" data-name="그룹 574" class="cls-12" transform="translate(233.955 159.083)">
          <g id="그룹_573" data-name="그룹 573">
            <g id="그룹_572" data-name="그룹 572" class="cls-62">
              <path id="패스_702" data-name="패스 702" class="cls-26" d="M72.393,49.332s.21,3.3,1.041,4.686,3.132-4.793,3.132-4.793Z" transform="translate(-72.392 -49.225)"/>
            </g>
          </g>
        </g>
        <path id="패스_703" data-name="패스 703" class="cls-3" d="M91.587,55.936l-9.934,7.255-9.4-4.592c.171-1.409-.43-4.331-1.144-7.078-.265-.979-.536-1.926-.779-2.779-.566-1.991-1.034-3.481-1.034-3.481s22.661-12.788,21.562-5.193a53.557,53.557,0,0,0-.123,9.521c.065.966.11,1.742.168,2.3a24.712,24.712,0,0,0,.688,4.043" transform="translate(154.64 84.044)"/>
        <g id="그룹_577" data-name="그룹 577" class="cls-27" transform="translate(223.931 121.704)">
          <g id="그룹_576" data-name="그룹 576">
            <g id="그룹_575" data-name="그룹 575" class="cls-63">
              <path id="패스_704" data-name="패스 704" class="cls-3" d="M90.9,51.893c-6.386,5.164-14.271,5.126-18.983,2.566-.268-.976-1.348-4.864-1.59-5.717-.569-1.994-1.034-3.481-1.034-3.481S91.952,32.473,90.85,40.068c-.394,2.6-.116,9,.048,11.825" transform="translate(-69.291 -37.66)"/>
            </g>
          </g>
        </g>
        <path id="패스_705" data-name="패스 705" class="cls-4" d="M110.675,74.827s5.113-11.922,5.349-18.873.614-19.494-2.136-22.974S97.5,20.983,85,21.84,71.431,26.852,71.086,29.7c0,0-4.851-.772-8.05,5.552s-3.064,11.983-1.849,15.9a72.507,72.507,0,0,0,4.078,9.411Z" transform="translate(134.78 48.606)"/>
        <g id="그룹_580" data-name="그룹 580" class="cls-5" transform="translate(200.2 71.279)">
          <g id="그룹_579" data-name="그룹 579">
            <g id="그룹_578" data-name="그룹 578" class="cls-64">
              <path id="패스_706" data-name="패스 706" class="cls-7" d="M75.263,31.2a13.937,13.937,0,0,1,2.4.931,4.818,4.818,0,0,1,.2-.556,11.362,11.362,0,0,0,1.554-6.153,3.423,3.423,0,0,0-1.48-1.277,4.287,4.287,0,0,1-2.13-2.084c-7.032,1.732-7.911,4.7-8.2,7.023a8.427,8.427,0,0,0-5.665,2.414c4.634-.7,8.891-1.477,13.315-.3" transform="translate(-61.947 -22.056)"/>
            </g>
          </g>
        </g>
        <g id="그룹_583" data-name="그룹 583" class="cls-5" transform="translate(195.529 78.435)">
          <g id="그룹_582" data-name="그룹 582">
            <g id="그룹_581" data-name="그룹 581" class="cls-65">
              <path id="패스_707" data-name="패스 707" class="cls-7" d="M115.778,50.393c.236-6.951.614-19.494-2.136-22.974a19.518,19.518,0,0,0-3.571-3.148c-.213,8.063-4.356,19.19-11.263,16.5A4.433,4.433,0,0,1,93,37.6c-.026-.133-.019-.288-.042-.423a4.186,4.186,0,0,1-3.313-2.356,4.636,4.636,0,0,1-1.535-.378,3.9,3.9,0,0,1-.953-.21,6.756,6.756,0,0,1-.355,3.846c-3.309,8.367-19.329,8.6-26.3,5.843.123.559.265,1.112.44,1.671A72.508,72.508,0,0,0,65.02,55l45.409,14.268s5.109-11.922,5.349-18.873" transform="translate(-60.504 -24.268)"/>
            </g>
          </g>
        </g>
        <path id="패스_708" data-name="패스 708" class="cls-66" d="M65.67,34s-1.593-1.91-3.523.692,1.965,14.465,9.821,13.942c0,0-3.649-8.234-6.3-14.633" transform="translate(137.61 74.364)"/>
        <path id="패스_709" data-name="패스 709" class="cls-9" d="M102.245,70.4c-8.125,8.2-12.956,8.971-22.629,4.945-9-3.736-11.877-9.75-13.166-15.806a27.8,27.8,0,0,0-2.088-5.959l.126.01a25.022,25.022,0,0,1-2.117-12.63c3.4,5.623,9.5,2.553,9.5,2.553.265.145-3.371-2.039,5.656-1.745,9.13.271,11.68-4.55,11.68-4.55s-5.6.769-8.024-3.742c-2.388-4.537-.5-6.59-.5-6.59,7.608-1.254,18.951,5.465,21.016,9.059,2.062,3.623,6.619,14.352,6.619,14.352.326,7.12,1.344,12.617-6.072,20.1" transform="translate(138.934 59.653)"/>
        <path id="패스_710" data-name="패스 710" class="cls-3" d="M108.318,50s-4.554-10.729-6.615-14.352c-1.593-2.776-8.729-7.4-15.4-8.794a16.294,16.294,0,0,1,5.161,3.067,17.565,17.565,0,0,1,2.117,1.823,26.52,26.52,0,0,1,5.885,7.507c9.631,6.438,4.146,22.764-4.444,28.5a18.815,18.815,0,0,1-19.752.866,11.046,11.046,0,0,1-5.662-7.717,25.718,25.718,0,0,1-5.268-17.839c.006-.065.023-.123.032-.184a7.32,7.32,0,0,1-2.007-2.217A25.035,25.035,0,0,0,64.493,53.3l-.129-.01a27.979,27.979,0,0,1,2.088,5.959C67.744,65.3,70.613,71.318,79.62,75.054c9.673,4.027,14.5,3.258,22.625-4.945,7.417-7.488,6.4-12.985,6.072-20.1" transform="translate(138.933 59.942)"/>
        <path id="패스_711" data-name="패스 711" class="cls-9" d="M76.435,31s.65-2.4,3.487-.84,4.266,13.961-3.09,16.77c0,0-.129-9.007-.4-15.929" transform="translate(170.584 66.132)"/>
        <path id="패스_712" data-name="패스 712" class="cls-29" d="M69.483,35.859c.375,1.409.026,2.724-.779,2.941s-1.761-.756-2.136-2.165-.026-2.724.779-2.938,1.761.753,2.136,2.162" transform="translate(148.227 75.135)"/>
        <path id="패스_713" data-name="패스 713" class="cls-29" d="M72.913,34.947c.372,1.409.023,2.724-.782,2.941S70.37,37.132,70,35.723s-.029-2.724.776-2.938,1.761.753,2.139,2.162" transform="translate(155.878 73.1)"/>
        <path id="패스_714" data-name="패스 714" class="cls-29" d="M64.719,37.333a4.528,4.528,0,0,1,.96-2.207,6.617,6.617,0,0,1,1.739-1.706,7.861,7.861,0,0,1,2.285-.84,5.483,5.483,0,0,1,2.359-.029l.061.01a.347.347,0,0,1,.281.4.351.351,0,0,1-.333.288,7.764,7.764,0,0,0-4.011,1.173,6.929,6.929,0,0,0-2.682,3.138.348.348,0,0,1-.666-.181Z" transform="translate(144.414 72.388)"/>
        <path id="패스_715" data-name="패스 715" class="cls-29" d="M77.7,33.652c-.637-.255-1.3-.494-1.936-.7a8.078,8.078,0,0,0-1.971-.262,10.591,10.591,0,0,0-4.046.546l-.094.023a.342.342,0,0,1-.242-.633,8.526,8.526,0,0,1,4.44-1.125,7.512,7.512,0,0,1,4.308,1.629.335.335,0,0,1,.055.472.342.342,0,0,1-.388.1Z" transform="translate(154.516 70.284)"/>
        <g id="그룹_586" data-name="그룹 586" class="cls-32" transform="translate(218.474 106.929)">
          <g id="그룹_585" data-name="그룹 585">
            <g id="그룹_584" data-name="그룹 584" class="cls-67">
              <path id="패스_716" data-name="패스 716" class="cls-34" d="M69.035,33.38l1.535,5.242a.416.416,0,0,1-.207.475l0,0a11.62,11.62,0,0,0-1.215,1.144,1.007,1.007,0,0,0-.255.433c-.061-.259.019.042.22.145a7.254,7.254,0,0,0,3.151,1.031l.019,0a.409.409,0,0,1-.023.811,6.19,6.19,0,0,1-3.865-.837,1.477,1.477,0,0,1-.789-1.3,2.061,2.061,0,0,1,.637-1.138,4.564,4.564,0,0,1,1.745-1.018h0l-.2.475-1.532-5.242a.408.408,0,0,1,.782-.229" transform="translate(-67.601 -33.086)"/>
            </g>
          </g>
        </g>
        <g id="그룹_589" data-name="그룹 589" class="cls-35" transform="translate(211.881 116.97)">
          <g id="그룹_588" data-name="그룹 588">
            <g id="그룹_587" data-name="그룹 587" class="cls-68">
              <path id="패스_717" data-name="패스 717" class="cls-37" d="M72.215,38.636A3.394,3.394,0,1,1,68,36.332a3.393,3.393,0,0,1,4.211,2.3" transform="translate(-65.562 -36.193)"/>
            </g>
          </g>
        </g>
        <g id="그룹_592" data-name="그룹 592" class="cls-35" transform="translate(228.368 112.442)">
          <g id="그룹_591" data-name="그룹 591">
            <g id="그룹_590" data-name="그룹 590" class="cls-68">
              <path id="패스_718" data-name="패스 718" class="cls-37" d="M77.317,37.235a3.394,3.394,0,1,1-4.211-2.3,3.393,3.393,0,0,1,4.211,2.3" transform="translate(-70.663 -34.792)"/>
            </g>
          </g>
        </g>
        <path id="패스_719" data-name="패스 719" class="cls-39" d="M67.59,40.671s4.23-1.092,5.972-1.748a39.108,39.108,0,0,0,5.575-3.406s-.165,7.3-3.658,8.823-7.889-3.668-7.889-3.668" transform="translate(150.844 79.263)"/>
        <path id="패스_720" data-name="패스 720" class="cls-44" d="M88.107,45.623s-2.918,29.05-1.435,43.913,3.018,16.7,2.508,22.322-1.218,38.409-1.218,38.409l-7.575,27.761a12.025,12.025,0,0,1-15.06,8.354l-9.831-2.947s15.2-42.665,16.269-54.465S63.329,84.585,60.769,56.6c0,0,10.022-7.446,27.337-10.975" transform="translate(123.851 101.819)"/>
        <path id="패스_721" data-name="패스 721" class="cls-53" d="M76.207,178.315s-1.27-9.227.388-14.688c.824-2.724,4.162-7.233,4.162-7.233a32.219,32.219,0,0,0,11.618,11.838L88.21,159.9s3.729-3.946,11.618-1.535c0,0,4.945,6.14,9.7,8.5a44.465,44.465,0,0,1,12.222,4.654c5.481,3.29,5.481,5.921,5.481,7.236s-51.023-.44-51.023-.44" transform="translate(169.037 349.032)"/>
        <path id="패스_722" data-name="패스 722" class="cls-31" d="M125.19,161.911c-2.12,4.919-16.433,2.185-20.58,2.078-6.163-.158-12.248-.927-18.392-1.231A80.14,80.14,0,0,1,75.773,162c.136,2.333.365,4.007.365,4.007s51.023,1.752,51.023.436a5.938,5.938,0,0,0-1.971-4.531" transform="translate(169.106 361.344)"/>
        <path id="패스_723" data-name="패스 723" class="cls-40" d="M113.168,46.935a181.855,181.855,0,0,1-9.611,25.027C96.783,85.929,85.792,96.93,85.679,97.056l-.41.4-.365-.475c-4.692-6.341-13.089-19.064-16.343-32.65a79.692,79.692,0,0,1-2.278-18.356c.32-.142.672-.278.989-.385a80.886,80.886,0,0,0,2.262,18.489c3.164,13.1,11.124,25.379,15.842,31.823,2.062-2.123,11.33-12.125,17.267-24.367a178.958,178.958,0,0,0,9.534-24.9Z" transform="translate(147.924 101.754)"/>
        <path id="패스_724" data-name="패스 724" class="cls-44" d="M92.176,45.715s-.986,29.968-5.119,44.323-5.972,15.884-6.483,21.5S75.6,155.611,75.6,155.611l6.218,28.1a12.028,12.028,0,0,0,14.637,9.078l13.092-1.894s-10.374-37.724-8.69-59.383c.918-11.812,9.356-50.451,16.912-77.523a87.767,87.767,0,0,0-25.592-8.27" transform="translate(168.72 102.024)"/>
        <g id="그룹_595" data-name="그룹 595" class="cls-32" transform="translate(244.319 196.484)">
          <g id="그룹_594" data-name="그룹 594">
            <g id="그룹_593" data-name="그룹 593" class="cls-69">
              <path id="패스_725" data-name="패스 725" class="cls-44" d="M100.855,97.848c.43-5.536,2.521-16.986,5.391-30.353-4.2,5.785-9.32,7.944-15.357,2.327A20.2,20.2,0,0,1,85.734,60.8c-3.209,10.316-4.709,12.106-5.158,17.083C80.065,83.5,75.6,121.95,75.6,121.95l6.218,28.1a12.025,12.025,0,0,0,14.637,9.075l13.092-1.894s-10.371-37.724-8.69-59.38" transform="translate(-75.601 -60.796)"/>
            </g>
          </g>
        </g>
        <path id="패스_726" data-name="패스 726" class="cls-44" d="M112.729,139.25c-5.051.97-11.605-3.193-16.349-14.229a57.858,57.858,0,0,1-2.592-7.372,151.277,151.277,0,0,0-7.094-20.357c-1.163-2.553-1.832-3.771-1.832-3.771s-5.345-34.37,13.78-45.141c0,0,5.016-1.687,3.771,6.389,0,0,15.147,52.222,18.117,66.293s-1.748,17.038-7.8,18.188" transform="translate(187.856 107.645)"/>
        <g id="그룹_598" data-name="그룹 598" class="cls-32" transform="translate(183.779 167.686)">
          <g id="그룹_597" data-name="그룹 597">
            <g id="그룹_596" data-name="그룹 596" class="cls-70">
              <path id="패스_727" data-name="패스 727" class="cls-44" d="M56.867,51.887l9.967,39.99L59.3,90.63Z" transform="translate(-56.867 -51.886)"/>
            </g>
          </g>
        </g>
        <g id="그룹_601" data-name="그룹 601" class="cls-48" transform="translate(179.681 151.074)">
          <g id="그룹_600" data-name="그룹 600">
            <g id="그룹_599" data-name="그룹 599" class="cls-71">
              <path id="패스_728" data-name="패스 728" class="cls-50" d="M68.482,184.013c-2.734,0-6.4-.918-12.559-3.316a.513.513,0,0,1-.291-.659.519.519,0,0,1,.659-.288c11.974,4.663,14.116,3.558,18.812,1.128,3.4-1.755,5.423-10.06,7.375-18.095.717-2.951,1.457-6,2.269-8.739,2.437-8.228,2.253-16.136,2.055-24.5-.048-2.088-.1-4.217-.11-6.4-.045-8.742-1.228-12.523-3.578-20.053-.6-1.926-1.283-4.1-2.039-6.657-3.7-12.529-8.335-31.61-8.38-31.8l-.094-.385L82.7,58.9,74.554,47.552a.509.509,0,0,1,.116-.708.5.5,0,0,1,.708.113L84.2,59.248,73.775,64.774c.679,2.77,4.877,19.849,8.277,31.371.756,2.556,1.432,4.718,2.033,6.644,2.379,7.627,3.578,11.453,3.626,20.347.01,2.178.058,4.3.107,6.383.2,8.451.385,16.433-2.094,24.813-.808,2.715-1.545,5.753-2.259,8.69-2.1,8.635-4.078,16.792-7.9,18.757-2.5,1.293-4.321,2.233-7.087,2.233" transform="translate(-55.599 -46.748)"/>
            </g>
          </g>
        </g>
        <g id="그룹_604" data-name="그룹 604" class="cls-48" transform="translate(246.652 150.906)">
          <g id="그룹_603" data-name="그룹 603">
            <g id="그룹_602" data-name="그룹 602" class="cls-72">
              <path id="패스_729" data-name="패스 729" class="cls-50" d="M93.44,189.683a27.421,27.421,0,0,1-4.712-.339c-5.875-1.05-8.613-7.317-10.464-23.941-1.777-15.975-1.939-33.39-1.942-33.562.016-.4.456-9.388,9.388-27.16C93.84,88.5,102.324,69.336,103.762,66.062L91.746,61.4l10.429-14.491A.507.507,0,1,1,103,47.5L93.336,60.927,105.119,65.5l-.213.488c-.09.21-9.4,21.462-18.288,39.149-8.832,17.577-9.275,26.63-9.278,26.717,0,.152.165,17.513,1.936,33.436,1.765,15.865,4.373,22.115,9.631,23.058,5.455.973,16.143-.62,16.249-.637a.52.52,0,0,1,.578.423.506.506,0,0,1-.427.578,91.888,91.888,0,0,1-11.867.97" transform="translate(-76.323 -46.695)"/>
            </g>
          </g>
        </g>
        <g id="그룹_607" data-name="그룹 607" class="cls-73" transform="translate(137.968 191.116)">
          <g id="그룹_606" data-name="그룹 606">
            <g id="그룹_605" data-name="그룹 605" class="cls-74">
              <rect id="사각형_204" data-name="사각형 204" class="cls-75" width="93.62" height="105.23" transform="translate(0 91.124) rotate(-76.745)"/>
            </g>
          </g>
        </g>
        <path id="패스_730" data-name="패스 730" class="cls-44" d="M134.287,79.265s-.207,8.409-3.3,11.292c-7.724,7.278-27.722,13.547-40.526,16.194-1.309.265-2.556.5-3.687.711a10.015,10.015,0,0,1-5.436-5.436l-1.012-4.4-1.842-8.141s21.931-7.162,28.795-13.1c6-5.2,18.57-10.371,27.008,2.883" transform="translate(175.156 158.181)"/>
        <path id="패스_731" data-name="패스 731" class="cls-10" d="M91.2,86.628c0,4.337-.743,6.654-1.991,7.785a3.758,3.758,0,0,1-1.723.921,3.632,3.632,0,0,1-1.962-.207,10.028,10.028,0,0,1-5.439-5.439,13.417,13.417,0,0,1-.95-3.06,4.117,4.117,0,0,1-.058-1.338c.356-5.555,8.942-8.884,8.942-8.884A17.85,17.85,0,0,1,91.2,86.628" transform="translate(176.409 170.519)"/>
        <g id="그룹_610" data-name="그룹 610" class="cls-76" transform="translate(255.453 246.925)">
          <g id="그룹_609" data-name="그룹 609">
            <g id="그룹_608" data-name="그룹 608" class="cls-77">
              <path id="패스_732" data-name="패스 732" class="cls-78" d="M89.907,85.5c0,3.862-.663,5.924-1.777,6.929a3.37,3.37,0,0,1-1.542.821,3.25,3.25,0,0,1-1.752-.184,8.931,8.931,0,0,1-4.861-4.841,11.8,11.8,0,0,1-.85-2.724,3.565,3.565,0,0,1-.052-1.189c.317-4.948,7.992-7.908,7.992-7.908a15.845,15.845,0,0,1,2.841,9.1" transform="translate(-79.044 -76.406)"/>
            </g>
          </g>
        </g>
        <path id="패스_733" data-name="패스 733" class="cls-3" d="M82.2,73.541s2.837.9,7.43,9.269c0,0,3.364,7.6-.307,12.3s-9,.133-10.674-5.672S82.2,73.541,82.2,73.541" transform="translate(174.792 164.125)"/>
        <path id="패스_734" data-name="패스 734" class="cls-9" d="M90.893,74.1s-.032-1.655-3.494-1.264S78.5,74,78.5,74s-2.96.462-2.844,2.062,2.786,1.765,2.786,1.765l5.507-.313,4.8-.469s2.191.071,2.139-2.944" transform="translate(168.843 162.419)"/>
        <path id="패스_735" data-name="패스 735" class="cls-9" d="M87.5,78.2s-.226-1.322-2.957-.595-7,2-7,2-2.32.724-2.036,1.994,2.446,1.083,2.446,1.083l4.382-.911,3.794-.947S87.9,80.618,87.5,78.2" transform="translate(168.456 172.716)"/>
        <path id="패스_736" data-name="패스 736" class="cls-9" d="M91.786,75.315s-.3-1.871-4.036-1.028-9.56,2.346-9.56,2.346-3.174.866-2.783,2.666,3.342,1.681,3.342,1.681l5.982-.992L89.918,78.9s2.414-.171,1.868-3.587" transform="translate(168.215 165.302)"/>
        <path id="패스_737" data-name="패스 737" class="cls-9" d="M91.766,76.87s-.3-1.871-4.036-1.028-9.559,2.349-9.559,2.349-3.174.863-2.783,2.666,3.342,1.677,3.342,1.677l5.982-.992L89.9,80.46s2.414-.175,1.868-3.59" transform="translate(168.17 168.772)"/>
        <path id="패스_738" data-name="패스 738" class="cls-3" d="M89.653,72.83a1.438,1.438,0,0,1-.346,2.194c-3.19,2-7.969,1.4-11.521,1.377a1.423,1.423,0,0,1-1.4-1.719,1.416,1.416,0,0,0-.727,1.26c.116,1.6,2.786,1.765,2.786,1.765l5.507-.313,4.8-.465s2.191.068,2.139-2.947c0,0-.042-.8-1.238-1.15" transform="translate(168.845 162.538)"/>
        <path id="패스_739" data-name="패스 739" class="cls-3" d="M87.485,78.173s-.129-.614-1.083-.769a1.267,1.267,0,0,1-.132,1.852c-1.1.976-2.307.953-3.684,1.2-2.013.355-3.93,1.028-5.969,1.28a1.148,1.148,0,0,1-1.118-.423,1.013,1.013,0,0,0,0,.262c.284,1.27,2.446,1.083,2.446,1.083l4.382-.911,3.794-.947s1.768-.207,1.367-2.621" transform="translate(168.466 172.746)"/>
        <path id="패스_740" data-name="패스 740" class="cls-3" d="M91.782,75.119a1.542,1.542,0,0,0-.889-.963,1.541,1.541,0,0,1-.4,2.24c-1.748.831-3.72.915-5.6,1.293-2.576.514-5.164.97-7.756,1.4a1.531,1.531,0,0,1-1.626-.811,1.33,1.33,0,0,0-.1.831c.388,1.8,3.342,1.681,3.342,1.681l5.982-.992,5.187-1.086s2.414-.171,1.868-3.587" transform="translate(168.219 165.497)"/>
        <path id="패스_741" data-name="패스 741" class="cls-3" d="M91.765,76.855s-.213-1.131-2.081-1.225a1.445,1.445,0,0,1,.349,2.32c-1.81,1.48-4.146,1.6-6.376,2.007s-4.625,1.325-6.893.976A1.162,1.162,0,0,1,75.716,79.6a1.44,1.44,0,0,0-.33,1.241c.388,1.8,3.342,1.677,3.342,1.677l5.982-.992L89.9,80.445s2.414-.175,1.868-3.59" transform="translate(168.171 168.787)"/>
        <path id="패스_742" data-name="패스 742" class="cls-9" d="M45.493,68.739s.643-1.561,3.784.032,8.011,4.246,8.011,4.246,2.64,1.483,1.939,2.964-3.3.7-3.3.7l-5.109-2.24L46.437,72.3s-2.107-.7-.944-3.558" transform="translate(100.747 151.88)"/>
        <path id="패스_743" data-name="패스 743" class="cls-9" d="M44.862,70.325s.64-1.826,4.23-.378,9.168,3.894,9.168,3.894,3.028,1.377,2.317,3.119-3.652,1.147-3.652,1.147L51.1,76.148,46.1,74.222s-2.391-.562-1.235-3.9" transform="translate(99.416 154.857)"/>
        <path id="패스_744" data-name="패스 744" class="cls-9" d="M44.763,71.892s.64-1.826,4.23-.378,9.168,3.894,9.168,3.894,3.028,1.377,2.317,3.119-3.652,1.147-3.652,1.147L51,77.715,46,75.789s-2.391-.562-1.235-3.9" transform="translate(99.195 158.354)"/>
        <path id="패스_745" data-name="패스 745" class="cls-3" d="M57.306,72.264c.023.029.055.055.078.084.776,1.005-.527,2.64-1.677,2.181-2-.795-3.988-1.658-5.972-2.5a8.438,8.438,0,0,1-4.2-3.135,1.482,1.482,0,0,1-.194-.494c-.766,2.466,1.073,3.119,1.073,3.119L50.8,73.66,55.907,75.9s2.6.785,3.3-.7c.672-1.416-1.684-2.818-1.9-2.941" transform="translate(100.768 152.656)"/>
        <path id="패스_746" data-name="패스 746" class="cls-3" d="M58.9,73.091c.5,1.015-.669,2.23-1.8,2.023-2.4-.436-4.663-1.6-7-2.32a13.024,13.024,0,0,1-5.171-2.582,1.554,1.554,0,0,1-.259-.323c-.6,2.7,1.4,3.219,1.4,3.219l5.009,1.923,5.824,1.958s2.938.6,3.649-1.144c.494-1.212-.8-2.236-1.651-2.753" transform="translate(99.44 155.972)"/>
        <path id="패스_747" data-name="패스 747" class="cls-3" d="M58.973,75.731a1.5,1.5,0,0,1-1.506,2.375,28.453,28.453,0,0,1-5.6-1.819c-1.483-.624-2.889-1.551-4.373-2.194-.433-.126-.847-.291-1.289-.381a1.24,1.24,0,0,1-.947-.724,1.617,1.617,0,0,1,.3-1.971,1.442,1.442,0,0,0-.789.74c-1.157,3.335,1.231,3.9,1.231,3.9L51,77.58l5.824,1.958s2.941.6,3.652-1.144c.465-1.144-.666-2.12-1.506-2.663" transform="translate(99.195 158.49)"/>
        <g id="그룹_613" data-name="그룹 613" class="cls-32" transform="translate(274.548 161.006)">
          <g id="그룹_612" data-name="그룹 612">
            <g id="그룹_611" data-name="그룹 611" class="cls-79">
              <path id="패스_748" data-name="패스 748" class="cls-44" d="M114.673,123.195a23.153,23.153,0,0,0-20.034-1.716,57.86,57.86,0,0,1-2.592-7.372A151.277,151.277,0,0,0,84.954,93.75c.168-1.855,2.023-18.544,11.8-43.929,0,0-6.2,37.23-4.188,46.182,2,8.987,4.127,23.046,4.127,23.046s7.763-4.631,17.978,4.146" transform="translate(-84.952 -49.818)"/>
            </g>
          </g>
        </g>
        <path id="패스_749" data-name="패스 749" class="cls-9" d="M44.837,72.875s.52-1.26,3.057.029,6.473,3.426,6.473,3.426,2.133,1.2,1.564,2.4-2.663.559-2.663.559l-4.127-1.807L45.6,75.754s-1.7-.572-.763-2.879" transform="translate(99.432 161.407)"/>
        <path id="패스_750" data-name="패스 750" class="cls-3" d="M55.467,77.12a1.116,1.116,0,0,1-1.037.96c-3.009.407-5.685-2.33-8.341-3.342a1.6,1.6,0,0,1-.74-2.379.986.986,0,0,0-.514.436c-.937,2.3.763,2.876.763,2.876L49.139,77.4l4.127,1.81s2.1.633,2.666-.562a1.388,1.388,0,0,0-.465-1.529" transform="translate(99.43 161.489)"/>
      </g>
    </g>
    <text id="A" class="cls-52" transform="translate(169.464 266.933) rotate(13.256)"><tspan x="0" y="0">A</tspan></text>
  </g>
</svg>
